%TF.GenerationSoftware,Altium Limited,Altium Designer,25.6.2 (33)*%
G04 Layer_Physical_Order=2*
G04 Layer_Color=32768*
%FSLAX45Y45*%
%MOMM*%
%TF.SameCoordinates,2E975FAE-7BB7-4674-B285-B64E5795C48D*%
%TF.FilePolarity,Negative*%
%TF.FileFunction,Copper,L2,Inr,Plane*%
%TF.Part,Single*%
G01*
G75*
%TA.AperFunction,NonConductor*%
%ADD86C,1.01600*%
%ADD87C,0.25400*%
%ADD88R,40.57961X9.30000*%
%TA.AperFunction,ComponentPad*%
%ADD89C,1.76200*%
%ADD90C,1.77800*%
%ADD91C,1.66200*%
%ADD92C,1.36200*%
%ADD93O,2.51200X1.31200*%
%ADD94O,2.21200X1.31200*%
%TA.AperFunction,ViaPad*%
%ADD95C,1.16200*%
%ADD96C,1.06200*%
%ADD97C,1.06680*%
D86*
X300000Y6300000D02*
G03*
X0Y6000000I0J-300000D01*
G01*
X10700000D02*
G03*
X10400000Y6300000I-300000J0D01*
G01*
Y-850000D02*
G03*
X10700000Y-550000I0J300000D01*
G01*
X0D02*
G03*
X300000Y-850000I300000J0D01*
G01*
X0Y-550000D02*
Y6000000D01*
X300000Y6300000D02*
X10400000D01*
X10700000Y-550000D02*
Y6000000D01*
X4011014Y-850000D02*
X10400000D01*
X3261014Y-1600000D02*
X4011014Y-850000D01*
X1175288Y-1600000D02*
X3261014D01*
X425287Y-850000D02*
X1175288Y-1600000D01*
X300000Y-850000D02*
X425287D01*
D87*
X0Y-794972D02*
X5800000D01*
X0D02*
Y1720000D01*
X3980000Y2090000D02*
Y4100000D01*
Y2090000D02*
X5800000D01*
Y-794972D02*
Y2090000D01*
X0Y1720000D02*
X1400000D01*
Y2020000D01*
Y2720000D01*
Y3280000D01*
X2940000D01*
Y4600000D01*
Y4870000D01*
X3320000D01*
Y4100000D02*
Y4870000D01*
Y4100000D02*
X3980000D01*
D88*
X2297873Y-1235000D02*
D03*
D89*
X6939904Y2785000D02*
D03*
X2554913Y6075156D02*
D03*
X1434065D02*
D03*
X2823006Y5365700D02*
D03*
X978033Y3935931D02*
D03*
X1766667Y3875000D02*
D03*
X3373223Y6075156D02*
D03*
X4050000D02*
D03*
X3714912D02*
D03*
X4404100D02*
D03*
X4168143Y1879824D02*
D03*
X3803662Y1044851D02*
D03*
X3491264Y1693058D02*
D03*
X4938290Y4943371D02*
D03*
X3524073Y2178717D02*
D03*
X8230000Y4060000D02*
D03*
X10500000Y4087440D02*
D03*
X630584Y3945371D02*
D03*
D90*
X1854586Y26254D02*
D03*
X1554390D02*
D03*
X1046390D02*
D03*
X1300390D02*
D03*
X1846695Y674137D02*
D03*
X1563057Y680688D02*
D03*
X1055057D02*
D03*
X1309057D02*
D03*
X2048695Y-610006D02*
D03*
X1794695D02*
D03*
X1540695D02*
D03*
X1286695D02*
D03*
X1032695D02*
D03*
X10164062Y1062269D02*
D03*
Y1316269D02*
D03*
X9608463Y1052269D02*
D03*
Y1306269D02*
D03*
X8579212Y1064361D02*
D03*
Y1318361D02*
D03*
X8028904Y1081030D02*
D03*
Y1335030D02*
D03*
X7478904Y1086029D02*
D03*
Y1340029D02*
D03*
X6939904Y1101529D02*
D03*
Y1355529D02*
D03*
X6636904Y1351151D02*
D03*
Y1097151D02*
D03*
X6342500Y1118173D02*
D03*
Y1372173D02*
D03*
D91*
X7908000Y2349992D02*
D03*
X10230000D02*
D03*
D92*
X544912Y4580372D02*
D03*
Y5160371D02*
D03*
X544913Y2190000D02*
D03*
Y2770000D02*
D03*
D93*
X594912Y5302872D02*
D03*
Y4437871D02*
D03*
X594912Y2912500D02*
D03*
Y2047500D02*
D03*
D94*
X174912Y4437871D02*
D03*
Y5302872D02*
D03*
X174913Y2047500D02*
D03*
Y2912500D02*
D03*
D95*
X3154831Y3741288D02*
D03*
X3360000Y1520000D02*
D03*
X4670000Y240000D02*
D03*
X3532673Y3912871D02*
D03*
X3750000Y3916220D02*
D03*
X3837197Y4019774D02*
D03*
X3645895Y4020372D02*
D03*
X3438532Y4019774D02*
D03*
X8041440Y4005419D02*
D03*
X8166440Y3755419D02*
D03*
X8041440Y3505419D02*
D03*
X8166440Y3255419D02*
D03*
X8041440Y3005419D02*
D03*
X7791440Y4005419D02*
D03*
X7916440Y3755419D02*
D03*
X10291440Y4005419D02*
D03*
X10416440Y3755419D02*
D03*
X10291440Y3505419D02*
D03*
X10416440Y3255419D02*
D03*
X10041440Y4005419D02*
D03*
X10166440Y3755419D02*
D03*
X2856283Y1841645D02*
D03*
X2123695Y1576946D02*
D03*
X2236950Y1819145D02*
D03*
X2243481Y5096938D02*
D03*
X1330679Y3823788D02*
D03*
X3904912Y2550000D02*
D03*
X3157331Y4564432D02*
D03*
X2442412Y3555371D02*
D03*
Y3655371D02*
D03*
X3154831Y4163789D02*
D03*
X3152331Y4972871D02*
D03*
X1989481Y5098851D02*
D03*
D96*
X3387447Y2352796D02*
D03*
X2456848Y5055371D02*
D03*
X4011014Y1640865D02*
D03*
X4480550Y5565119D02*
D03*
X4005532Y1362334D02*
D03*
X4537450Y5418371D02*
D03*
X3324383Y3707102D02*
D03*
X2417117Y1839490D02*
D03*
X2917301Y1797917D02*
D03*
X2132764Y1255579D02*
D03*
X2062412Y1134083D02*
D03*
X3276359Y1098148D02*
D03*
X2601283Y677901D02*
D03*
X2711973Y672576D02*
D03*
X2788814D02*
D03*
Y754907D02*
D03*
X2656283Y618131D02*
D03*
X2420000Y440000D02*
D03*
X2550853Y728206D02*
D03*
X3221173Y1174324D02*
D03*
X2396297Y754907D02*
D03*
X2456283Y693185D02*
D03*
X2503405Y753639D02*
D03*
X3192161Y1003335D02*
D03*
X3276359Y1013032D02*
D03*
X2356137Y1754558D02*
D03*
X2516347Y1832864D02*
D03*
X2586037Y1778649D02*
D03*
X2716109Y1774490D02*
D03*
X2776283Y1816988D02*
D03*
X2697964Y4144280D02*
D03*
X2618313Y4211593D02*
D03*
X2639912Y4845372D02*
D03*
X2132764Y1370979D02*
D03*
X3148783Y1405171D02*
D03*
X5960000Y2277957D02*
D03*
X8690812Y3422440D02*
D03*
X9310000Y3050000D02*
D03*
X1693371Y916041D02*
D03*
X3973156Y320901D02*
D03*
X3199847Y287386D02*
D03*
X3491264Y3696221D02*
D03*
X3173695Y1331139D02*
D03*
X4427412Y5418371D02*
D03*
X3596173Y298036D02*
D03*
X1731712Y4619031D02*
D03*
X2041481Y4626405D02*
D03*
X1901481Y4617319D02*
D03*
X1804912Y4538371D02*
D03*
X2191481Y4613451D02*
D03*
X2434896Y5770000D02*
D03*
X1680000Y4500371D02*
D03*
X1690000Y2745000D02*
D03*
X2331481Y2466250D02*
D03*
X2014591Y3197857D02*
D03*
X1839555Y2809982D02*
D03*
X1400000Y2148717D02*
D03*
X1475570Y3005000D02*
D03*
X1690000Y3100371D02*
D03*
X1616557Y3000000D02*
D03*
X2032231Y2788250D02*
D03*
X1317263Y2991250D02*
D03*
X2193783Y1531139D02*
D03*
Y1411139D02*
D03*
X2101781Y2110000D02*
D03*
X2116481Y2943910D02*
D03*
X397412Y1394680D02*
D03*
X2193783Y1331139D02*
D03*
X946237Y1056139D02*
D03*
X2193783Y1171299D02*
D03*
X2938710Y765529D02*
D03*
X2576283Y2442421D02*
D03*
X972712Y2210000D02*
D03*
Y2113744D02*
D03*
X1075012Y2692500D02*
D03*
X900000Y2690000D02*
D03*
X1009912Y3720758D02*
D03*
X910000Y3725000D02*
D03*
X2270110Y3060000D02*
D03*
X2481727Y2802500D02*
D03*
X2780813Y3285413D02*
D03*
X2696283Y2455000D02*
D03*
X2821283D02*
D03*
X9101240Y4965641D02*
D03*
X9085000Y3710000D02*
D03*
X6795000Y4945000D02*
D03*
X6774938Y3730503D02*
D03*
X6394091Y3412088D02*
D03*
X4370000Y2190000D02*
D03*
X4613600Y4700372D02*
D03*
X4730000Y2520000D02*
D03*
X4770000Y3720000D02*
D03*
X2494912Y4090372D02*
D03*
X2734912Y3526289D02*
D03*
X2419843Y4632341D02*
D03*
X2462477Y4340372D02*
D03*
X2634912Y4632341D02*
D03*
X2297981Y4613451D02*
D03*
D97*
X4414912Y4778371D02*
D03*
Y4858371D02*
D03*
X4344912D02*
D03*
Y4778371D02*
D03*
%TF.MD5,6a9da6270f85285e96d7ba69e25b22f8*%
M02*
