%TF.GenerationSoftware,Altium Limited,Altium Designer,25.6.2 (33)*%
G04 Layer_Physical_Order=1*
G04 Layer_Color=255*
%FSLAX45Y45*%
%MOMM*%
%TF.SameCoordinates,2E975FAE-7BB7-4674-B285-B64E5795C48D*%
%TF.FilePolarity,Positive*%
%TF.FileFunction,Copper,L1,Top,Signal*%
%TF.Part,Single*%
G01*
G75*
%TA.AperFunction,Conductor*%
%ADD10C,0.25400*%
%TA.AperFunction,SMDPad,CuDef*%
G04:AMPARAMS|DCode=11|XSize=0.8mm|YSize=1mm|CornerRadius=0.1mm|HoleSize=0mm|Usage=FLASHONLY|Rotation=180.000|XOffset=0mm|YOffset=0mm|HoleType=Round|Shape=RoundedRectangle|*
%AMROUNDEDRECTD11*
21,1,0.80000,0.80000,0,0,180.0*
21,1,0.60000,1.00000,0,0,180.0*
1,1,0.20000,-0.30000,0.40000*
1,1,0.20000,0.30000,0.40000*
1,1,0.20000,0.30000,-0.40000*
1,1,0.20000,-0.30000,-0.40000*
%
%ADD11ROUNDEDRECTD11*%
G04:AMPARAMS|DCode=12|XSize=1.3043mm|YSize=3.22213mm|CornerRadius=0.4565mm|HoleSize=0mm|Usage=FLASHONLY|Rotation=90.000|XOffset=0mm|YOffset=0mm|HoleType=Round|Shape=RoundedRectangle|*
%AMROUNDEDRECTD12*
21,1,1.30430,2.30912,0,0,90.0*
21,1,0.39129,3.22213,0,0,90.0*
1,1,0.91301,1.15456,0.19564*
1,1,0.91301,1.15456,-0.19564*
1,1,0.91301,-1.15456,-0.19564*
1,1,0.91301,-1.15456,0.19564*
%
%ADD12ROUNDEDRECTD12*%
G04:AMPARAMS|DCode=13|XSize=1.3043mm|YSize=0.91213mm|CornerRadius=0.45606mm|HoleSize=0mm|Usage=FLASHONLY|Rotation=90.000|XOffset=0mm|YOffset=0mm|HoleType=Round|Shape=RoundedRectangle|*
%AMROUNDEDRECTD13*
21,1,1.30430,0.00000,0,0,90.0*
21,1,0.39217,0.91213,0,0,90.0*
1,1,0.91213,0.00000,0.19608*
1,1,0.91213,0.00000,-0.19608*
1,1,0.91213,0.00000,-0.19608*
1,1,0.91213,0.00000,0.19608*
%
%ADD13ROUNDEDRECTD13*%
%ADD14R,0.91213X1.30430*%
G04:AMPARAMS|DCode=15|XSize=0.8mm|YSize=1mm|CornerRadius=0.1mm|HoleSize=0mm|Usage=FLASHONLY|Rotation=270.000|XOffset=0mm|YOffset=0mm|HoleType=Round|Shape=RoundedRectangle|*
%AMROUNDEDRECTD15*
21,1,0.80000,0.80000,0,0,270.0*
21,1,0.60000,1.00000,0,0,270.0*
1,1,0.20000,-0.40000,-0.30000*
1,1,0.20000,-0.40000,0.30000*
1,1,0.20000,0.40000,0.30000*
1,1,0.20000,0.40000,-0.30000*
%
%ADD15ROUNDEDRECTD15*%
%ADD16R,6.40000X6.40000*%
%ADD17O,0.20000X1.00000*%
%ADD18O,1.00000X0.20000*%
G04:AMPARAMS|DCode=19|XSize=1.05mm|YSize=0.4mm|CornerRadius=0.05mm|HoleSize=0mm|Usage=FLASHONLY|Rotation=270.000|XOffset=0mm|YOffset=0mm|HoleType=Round|Shape=RoundedRectangle|*
%AMROUNDEDRECTD19*
21,1,1.05000,0.30000,0,0,270.0*
21,1,0.95000,0.40000,0,0,270.0*
1,1,0.10000,-0.15000,-0.47500*
1,1,0.10000,-0.15000,0.47500*
1,1,0.10000,0.15000,0.47500*
1,1,0.10000,0.15000,-0.47500*
%
%ADD19ROUNDEDRECTD19*%
G04:AMPARAMS|DCode=20|XSize=0.2mm|YSize=0.6mm|CornerRadius=0.05mm|HoleSize=0mm|Usage=FLASHONLY|Rotation=270.000|XOffset=0mm|YOffset=0mm|HoleType=Round|Shape=RoundedRectangle|*
%AMROUNDEDRECTD20*
21,1,0.20000,0.50000,0,0,270.0*
21,1,0.10000,0.60000,0,0,270.0*
1,1,0.10000,-0.25000,-0.05000*
1,1,0.10000,-0.25000,0.05000*
1,1,0.10000,0.25000,0.05000*
1,1,0.10000,0.25000,-0.05000*
%
%ADD20ROUNDEDRECTD20*%
%AMCUSTOMSHAPE21*
4,1,12,-0.25000,-0.75000,-0.25000,-0.25000,-0.75001,-0.25000,-0.75000,0.25000,-0.25000,0.25000,-0.25000,0.75000,0.25000,0.75000,0.25000,0.25000,0.75000,0.25000,0.75000,-0.25000,0.25000,-0.25000,0.25000,-0.75000,-0.25000,-0.75000,0.0*%
%ADD21CUSTOMSHAPE21*%

%TA.AperFunction,SMDPad,SMDef*%
%ADD22R,1.00000X1.00000*%
%TA.AperFunction,ConnectorPad*%
%ADD23R,1.05000X0.65000*%
%TA.AperFunction,SMDPad,SMDef*%
G04:AMPARAMS|DCode=24|XSize=0.3mm|YSize=0.3mm|CornerRadius=0.075mm|HoleSize=0mm|Usage=FLASHONLY|Rotation=270.000|XOffset=0mm|YOffset=0mm|HoleType=Round|Shape=RoundedRectangle|*
%AMROUNDEDRECTD24*
21,1,0.30000,0.15000,0,0,270.0*
21,1,0.15000,0.30000,0,0,270.0*
1,1,0.15000,-0.07500,-0.07500*
1,1,0.15000,-0.07500,0.07500*
1,1,0.15000,0.07500,0.07500*
1,1,0.15000,0.07500,-0.07500*
%
%ADD24ROUNDEDRECTD24*%
%TA.AperFunction,SMDPad,CuDef*%
G04:AMPARAMS|DCode=25|XSize=0.96535mm|YSize=0.23928mm|CornerRadius=0.11964mm|HoleSize=0mm|Usage=FLASHONLY|Rotation=180.000|XOffset=0mm|YOffset=0mm|HoleType=Round|Shape=RoundedRectangle|*
%AMROUNDEDRECTD25*
21,1,0.96535,0.00000,0,0,180.0*
21,1,0.72606,0.23928,0,0,180.0*
1,1,0.23928,-0.36303,0.00000*
1,1,0.23928,0.36303,0.00000*
1,1,0.23928,0.36303,0.00000*
1,1,0.23928,-0.36303,0.00000*
%
%ADD25ROUNDEDRECTD25*%
%ADD26R,0.96535X0.23928*%
%ADD27R,0.62213X2.47407*%
G04:AMPARAMS|DCode=28|XSize=2.47407mm|YSize=0.62213mm|CornerRadius=0.31107mm|HoleSize=0mm|Usage=FLASHONLY|Rotation=270.000|XOffset=0mm|YOffset=0mm|HoleType=Round|Shape=RoundedRectangle|*
%AMROUNDEDRECTD28*
21,1,2.47407,0.00000,0,0,270.0*
21,1,1.85193,0.62213,0,0,270.0*
1,1,0.62213,0.00000,-0.92597*
1,1,0.62213,0.00000,0.92597*
1,1,0.62213,0.00000,0.92597*
1,1,0.62213,0.00000,-0.92597*
%
%ADD28ROUNDEDRECTD28*%
%ADD29R,3.10000X2.02500*%
%ADD30C,0.12700*%
%ADD31R,1.43000X5.50000*%
G04:AMPARAMS|DCode=32|XSize=1.6mm|YSize=2.7mm|CornerRadius=0.2mm|HoleSize=0mm|Usage=FLASHONLY|Rotation=270.000|XOffset=0mm|YOffset=0mm|HoleType=Round|Shape=RoundedRectangle|*
%AMROUNDEDRECTD32*
21,1,1.60000,2.30000,0,0,270.0*
21,1,1.20000,2.70000,0,0,270.0*
1,1,0.40000,-1.15000,-0.60000*
1,1,0.40000,-1.15000,0.60000*
1,1,0.40000,1.15000,0.60000*
1,1,0.40000,1.15000,-0.60000*
%
%ADD32ROUNDEDRECTD32*%
G04:AMPARAMS|DCode=33|XSize=1.4mm|YSize=1.7mm|CornerRadius=0.175mm|HoleSize=0mm|Usage=FLASHONLY|Rotation=180.000|XOffset=0mm|YOffset=0mm|HoleType=Round|Shape=RoundedRectangle|*
%AMROUNDEDRECTD33*
21,1,1.40000,1.35000,0,0,180.0*
21,1,1.05000,1.70000,0,0,180.0*
1,1,0.35000,-0.52500,0.67500*
1,1,0.35000,0.52500,0.67500*
1,1,0.35000,0.52500,-0.67500*
1,1,0.35000,-0.52500,-0.67500*
%
%ADD33ROUNDEDRECTD33*%
%ADD34R,3.20000X1.72000*%
%ADD35R,1.50000X0.60000*%
%ADD36R,1.50000X0.30000*%
G04:AMPARAMS|DCode=37|XSize=1.4mm|YSize=1.7mm|CornerRadius=0.175mm|HoleSize=0mm|Usage=FLASHONLY|Rotation=90.000|XOffset=0mm|YOffset=0mm|HoleType=Round|Shape=RoundedRectangle|*
%AMROUNDEDRECTD37*
21,1,1.40000,1.35000,0,0,90.0*
21,1,1.05000,1.70000,0,0,90.0*
1,1,0.35000,0.67500,0.52500*
1,1,0.35000,0.67500,-0.52500*
1,1,0.35000,-0.67500,-0.52500*
1,1,0.35000,-0.67500,0.52500*
%
%ADD37ROUNDEDRECTD37*%
%ADD38R,2.75000X2.75000*%
G04:AMPARAMS|DCode=39|XSize=0.25mm|YSize=0.75mm|CornerRadius=0.0625mm|HoleSize=0mm|Usage=FLASHONLY|Rotation=180.000|XOffset=0mm|YOffset=0mm|HoleType=Round|Shape=RoundedRectangle|*
%AMROUNDEDRECTD39*
21,1,0.25000,0.62500,0,0,180.0*
21,1,0.12500,0.75000,0,0,180.0*
1,1,0.12500,-0.06250,0.31250*
1,1,0.12500,0.06250,0.31250*
1,1,0.12500,0.06250,-0.31250*
1,1,0.12500,-0.06250,-0.31250*
%
%ADD39ROUNDEDRECTD39*%
G04:AMPARAMS|DCode=40|XSize=0.25mm|YSize=0.75mm|CornerRadius=0.0625mm|HoleSize=0mm|Usage=FLASHONLY|Rotation=270.000|XOffset=0mm|YOffset=0mm|HoleType=Round|Shape=RoundedRectangle|*
%AMROUNDEDRECTD40*
21,1,0.25000,0.62500,0,0,270.0*
21,1,0.12500,0.75000,0,0,270.0*
1,1,0.12500,-0.31250,-0.06250*
1,1,0.12500,-0.31250,0.06250*
1,1,0.12500,0.31250,0.06250*
1,1,0.12500,0.31250,-0.06250*
%
%ADD40ROUNDEDRECTD40*%
G04:AMPARAMS|DCode=41|XSize=1.6mm|YSize=2.7mm|CornerRadius=0.2mm|HoleSize=0mm|Usage=FLASHONLY|Rotation=0.000|XOffset=0mm|YOffset=0mm|HoleType=Round|Shape=RoundedRectangle|*
%AMROUNDEDRECTD41*
21,1,1.60000,2.30000,0,0,0.0*
21,1,1.20000,2.70000,0,0,0.0*
1,1,0.40000,0.60000,-1.15000*
1,1,0.40000,-0.60000,-1.15000*
1,1,0.40000,-0.60000,1.15000*
1,1,0.40000,0.60000,1.15000*
%
%ADD41ROUNDEDRECTD41*%
%ADD42R,0.62339X2.47407*%
G04:AMPARAMS|DCode=43|XSize=2.47407mm|YSize=0.62339mm|CornerRadius=0.31169mm|HoleSize=0mm|Usage=FLASHONLY|Rotation=90.000|XOffset=0mm|YOffset=0mm|HoleType=Round|Shape=RoundedRectangle|*
%AMROUNDEDRECTD43*
21,1,2.47407,0.00000,0,0,90.0*
21,1,1.85068,0.62339,0,0,90.0*
1,1,0.62339,0.00000,0.92534*
1,1,0.62339,0.00000,-0.92534*
1,1,0.62339,0.00000,-0.92534*
1,1,0.62339,0.00000,0.92534*
%
%ADD43ROUNDEDRECTD43*%
G04:AMPARAMS|DCode=44|XSize=0.63mm|YSize=0.83mm|CornerRadius=0.07875mm|HoleSize=0mm|Usage=FLASHONLY|Rotation=0.000|XOffset=0mm|YOffset=0mm|HoleType=Round|Shape=RoundedRectangle|*
%AMROUNDEDRECTD44*
21,1,0.63000,0.67250,0,0,0.0*
21,1,0.47250,0.83000,0,0,0.0*
1,1,0.15750,0.23625,-0.33625*
1,1,0.15750,-0.23625,-0.33625*
1,1,0.15750,-0.23625,0.33625*
1,1,0.15750,0.23625,0.33625*
%
%ADD44ROUNDEDRECTD44*%
%ADD45R,0.90000X0.80000*%
%ADD46R,1.35000X0.40000*%
%ADD47R,1.35000X0.60000*%
%TA.AperFunction,BGAPad,SMDef*%
%ADD48R,0.30000X0.30000*%
%TA.AperFunction,SMDPad,CuDef*%
%ADD49R,0.80000X2.70000*%
%ADD50R,5.50000X5.00000*%
%TA.AperFunction,TestPad*%
G04:AMPARAMS|DCode=51|XSize=0.9mm|YSize=0.8mm|CornerRadius=0.04mm|HoleSize=0mm|Usage=FLASHONLY|Rotation=0.000|XOffset=0mm|YOffset=0mm|HoleType=Round|Shape=RoundedRectangle|*
%AMROUNDEDRECTD51*
21,1,0.90000,0.72000,0,0,0.0*
21,1,0.82000,0.80000,0,0,0.0*
1,1,0.08000,0.41000,-0.36000*
1,1,0.08000,-0.41000,-0.36000*
1,1,0.08000,-0.41000,0.36000*
1,1,0.08000,0.41000,0.36000*
%
%ADD51ROUNDEDRECTD51*%
%TA.AperFunction,SMDPad,CuDef*%
G04:AMPARAMS|DCode=52|XSize=1mm|YSize=1.8mm|CornerRadius=0.05mm|HoleSize=0mm|Usage=FLASHONLY|Rotation=90.000|XOffset=0mm|YOffset=0mm|HoleType=Round|Shape=RoundedRectangle|*
%AMROUNDEDRECTD52*
21,1,1.00000,1.70000,0,0,90.0*
21,1,0.90000,1.80000,0,0,90.0*
1,1,0.10000,0.85000,0.45000*
1,1,0.10000,0.85000,-0.45000*
1,1,0.10000,-0.85000,-0.45000*
1,1,0.10000,-0.85000,0.45000*
%
%ADD52ROUNDEDRECTD52*%
%ADD53R,2.79400X0.73660*%
%ADD54R,0.90000X0.40000*%
%TA.AperFunction,Conductor*%
%ADD55C,0.80000*%
%ADD56C,0.20320*%
%ADD57C,0.20000*%
%ADD58C,0.50000*%
%ADD59C,0.30000*%
%ADD60C,0.20302*%
%ADD61C,0.34849*%
%ADD62C,1.00000*%
%TA.AperFunction,NonConductor*%
%ADD63R,0.80000X1.00000*%
%TA.AperFunction,Conductor*%
%ADD64R,0.40000X1.50000*%
%ADD65R,2.90000X0.40000*%
%ADD66R,0.40000X1.60000*%
%ADD67R,9.30000X0.40000*%
%ADD68R,9.30000X0.40000*%
%ADD69R,6.60000X0.40000*%
%ADD70R,0.40000X0.50000*%
%TA.AperFunction,ComponentPad*%
%ADD71C,1.50000*%
%ADD72C,3.20000*%
%ADD73C,2.03200*%
%ADD74R,2.03200X2.03200*%
%ADD75R,1.40000X1.40000*%
%ADD76C,1.40000*%
%ADD77C,0.60000*%
%ADD78O,2.20000X1.00000*%
%ADD79O,1.90000X1.00000*%
%ADD80R,2.03200X2.03200*%
%TA.AperFunction,ViaPad*%
%ADD81C,0.60000*%
%ADD82C,0.40000*%
%ADD83C,0.50000*%
%ADD84C,0.50800*%
%ADD85C,0.45720*%
G36*
X2164912Y5430372D02*
Y5190372D01*
X2054912D01*
Y5430372D01*
X2014912Y5470372D01*
X1964912D01*
X1924912Y5430372D01*
Y5190372D01*
X1684912D01*
Y5570372D01*
X1734912Y5620372D01*
X2164912D01*
Y5430372D01*
D02*
G37*
G36*
X4571100Y5160425D02*
X4390000D01*
Y5460000D01*
X4571100D01*
Y5160425D01*
D02*
G37*
G36*
X984912Y5620372D02*
X984912Y5220371D01*
X924912Y5160371D01*
X594912D01*
Y5240372D01*
X734912D01*
X754912Y5260371D01*
Y5340371D01*
X674912Y5420371D01*
X100000D01*
Y6023744D01*
X100000D01*
Y6041103D01*
X106773Y6075156D01*
X120060Y6107232D01*
X139349Y6136100D01*
X163900Y6160651D01*
X192768Y6179940D01*
X224844Y6193226D01*
X258896Y6200000D01*
X276256D01*
X984912Y6200000D01*
Y5620372D01*
D02*
G37*
G36*
X8655328Y5238223D02*
Y5162023D01*
X8617228Y5123923D01*
X8528328D01*
Y5276323D01*
X8617228D01*
X8655328Y5238223D01*
D02*
G37*
G36*
X6345328D02*
Y5162023D01*
X6307228Y5123923D01*
X6218328D01*
Y5276323D01*
X6307228D01*
X6345328Y5238223D01*
D02*
G37*
G36*
X2034912Y5690372D02*
X2014912Y5670371D01*
X1684912D01*
X1634912Y5620372D01*
Y4670371D01*
X1564912Y4600372D01*
X594912D01*
Y4660371D01*
X794912D01*
Y4740372D01*
Y4820372D01*
Y5080372D01*
X696620D01*
X690625Y5096372D01*
X693461Y5100617D01*
X695402Y5110372D01*
X693461Y5120126D01*
X690625Y5124372D01*
X695693Y5137898D01*
X697712Y5140371D01*
X954912D01*
X1034912Y5220372D01*
Y6200000D01*
X2034912D01*
Y5690372D01*
D02*
G37*
G36*
X8950000Y5647440D02*
X8950540D01*
Y4575000D01*
X8851370D01*
Y5035994D01*
X8726940Y5160425D01*
Y5488449D01*
X6640540D01*
Y4575000D01*
X6541370D01*
Y5035994D01*
X6416940Y5160425D01*
Y5488449D01*
X4364912D01*
Y4828371D01*
X4324912D01*
Y4898371D01*
X4234912Y4988371D01*
Y5358371D01*
X4214912Y5378371D01*
X4064912D01*
X4034912Y5348371D01*
X3654912D01*
X3604913Y5298371D01*
X3354912D01*
Y5488449D01*
X2200994D01*
Y5641790D01*
X2172412Y5670371D01*
X2082481D01*
X2066481Y5686371D01*
Y6200000D01*
X8950000D01*
Y5647440D01*
D02*
G37*
G36*
X10316237Y4367440D02*
X8950540D01*
Y3497440D01*
X8851370D01*
Y4367440D01*
X8316940D01*
Y5293400D01*
X8478917D01*
Y4600463D01*
X8526940Y4552440D01*
X9213678D01*
X9236237Y4575000D01*
Y4945000D01*
X9172683Y5008554D01*
X9071445Y5008554D01*
X9021237Y5058763D01*
Y5700000D01*
X10316237D01*
Y4367440D01*
D02*
G37*
G36*
X8006237D02*
X6640540D01*
Y3497440D01*
X6541370D01*
Y4367440D01*
X6006940D01*
Y5293400D01*
X6168917D01*
Y4600463D01*
X6216940Y4552440D01*
X6903678D01*
X6926237Y4575000D01*
Y4945000D01*
X6862683Y5008554D01*
X6761445Y5008554D01*
X6711237Y5058763D01*
Y5448470D01*
X8006237D01*
Y4367440D01*
D02*
G37*
G36*
X3344088Y4368371D02*
X3347258Y4360717D01*
X3347258Y4346025D01*
X3344088Y4338371D01*
Y3830371D01*
X3347258Y3822718D01*
X3354912Y3819547D01*
X3960000D01*
X3969176Y3801700D01*
Y3640824D01*
X3934992D01*
X3927339Y3637654D01*
X3924168Y3630000D01*
Y3530000D01*
X3927339Y3522347D01*
X3934992Y3519176D01*
X3969176D01*
Y3170000D01*
X3972346Y3162346D01*
X3980000Y3159176D01*
X4049658D01*
Y2884811D01*
X4031888Y2867042D01*
X4026363Y2858773D01*
X4024422Y2849018D01*
Y2395354D01*
X4026363Y2385599D01*
X4031888Y2377330D01*
X4049658Y2359560D01*
Y2088483D01*
X5838692D01*
Y1809628D01*
X5386060D01*
X5370000Y1819139D01*
X5369999Y1834139D01*
Y1879138D01*
X5214999D01*
X5214999Y1819139D01*
X5214999Y1799138D01*
Y1754139D01*
X5214999D01*
Y1749138D01*
X5214999D01*
Y1689139D01*
X5214999D01*
Y1684138D01*
X5214999D01*
Y1624139D01*
X5214999D01*
Y1619137D01*
X5214999D01*
Y1559139D01*
X5214999D01*
Y1554137D01*
X5214999D01*
Y1494138D01*
X5214999D01*
Y1489137D01*
X5214999D01*
Y1429138D01*
X5214999D01*
Y1424137D01*
X5214999D01*
X5214999Y1364138D01*
X5199910Y1352282D01*
X5049137D01*
X5040280Y1350521D01*
X5032772Y1345503D01*
X4913634Y1226366D01*
X4908617Y1218857D01*
X4906855Y1210000D01*
Y370000D01*
X4908617Y361143D01*
X4913634Y353634D01*
X5076855Y190413D01*
Y-120000D01*
X5078617Y-128857D01*
X5083634Y-136365D01*
X5413635Y-466366D01*
X5421143Y-471383D01*
X5430000Y-473145D01*
X5499608D01*
Y-490000D01*
X5501160Y-497804D01*
X5505581Y-504419D01*
X5512196Y-508840D01*
X5520000Y-510392D01*
X5580000D01*
X5587804Y-508840D01*
X5594419Y-504419D01*
X5598840Y-497804D01*
X5600392Y-490000D01*
Y-410000D01*
X5598840Y-402197D01*
X5594419Y-395581D01*
X5587804Y-391161D01*
X5580000Y-389608D01*
X5520000D01*
X5512196Y-391161D01*
X5505581Y-395581D01*
X5501160Y-402197D01*
X5499608Y-410000D01*
Y-426855D01*
X5439587D01*
X5123145Y-110413D01*
Y200000D01*
X5121383Y208857D01*
X5116366Y216366D01*
X4953145Y379587D01*
Y1200413D01*
X5058724Y1305993D01*
X5106996D01*
X5113213Y1287703D01*
X5113261Y1285993D01*
X4993634Y1166366D01*
X4988617Y1158857D01*
X4986855Y1150000D01*
Y440000D01*
X4988617Y431143D01*
X4993634Y423635D01*
X5156855Y260413D01*
Y-20000D01*
X5158617Y-28857D01*
X5163634Y-36366D01*
X5403634Y-276366D01*
X5411143Y-281383D01*
X5420000Y-283145D01*
X5499608D01*
Y-300000D01*
X5501160Y-307804D01*
X5505581Y-314419D01*
X5512196Y-318840D01*
X5520000Y-320392D01*
X5580000D01*
X5587804Y-318840D01*
X5594419Y-314419D01*
X5598840Y-307804D01*
X5600392Y-300000D01*
Y-220000D01*
X5598840Y-212196D01*
X5594419Y-205581D01*
X5587804Y-201160D01*
X5580000Y-199608D01*
X5520000D01*
X5512196Y-201160D01*
X5505581Y-205581D01*
X5501160Y-212196D01*
X5499608Y-220000D01*
Y-236855D01*
X5429587D01*
X5203145Y-10413D01*
Y270000D01*
X5201383Y278857D01*
X5196366Y286366D01*
X5033145Y449587D01*
Y524160D01*
X5048171Y530397D01*
X5053145Y530808D01*
X5264510Y319442D01*
Y80000D01*
X5266451Y70245D01*
X5271976Y61976D01*
X5421976Y-88024D01*
X5430246Y-93549D01*
X5440000Y-95490D01*
X5499608D01*
Y-110000D01*
X5501160Y-117804D01*
X5505581Y-124419D01*
X5512196Y-128840D01*
X5520000Y-130392D01*
X5580000D01*
X5587804Y-128840D01*
X5594419Y-124419D01*
X5598840Y-117804D01*
X5600392Y-110000D01*
Y-30000D01*
X5598840Y-22197D01*
X5594419Y-15581D01*
X5587804Y-11161D01*
X5580000Y-9608D01*
X5520000D01*
X5512196Y-11161D01*
X5505581Y-15581D01*
X5501160Y-22197D01*
X5499608Y-30000D01*
Y-44510D01*
X5450559D01*
X5315490Y90558D01*
Y330000D01*
X5313549Y339754D01*
X5308024Y348024D01*
X5095490Y560558D01*
Y1105581D01*
X5161162Y1171253D01*
X5174118Y1169589D01*
X5177276Y1165016D01*
X5181748Y1149569D01*
X5133634Y1101455D01*
X5128617Y1093947D01*
X5126855Y1085090D01*
Y650000D01*
X5128617Y641143D01*
X5133634Y633634D01*
X5366855Y400413D01*
Y170000D01*
X5368617Y161143D01*
X5373634Y153634D01*
X5413634Y113634D01*
X5421143Y108617D01*
X5430000Y106855D01*
X5499608D01*
Y80000D01*
X5501160Y72196D01*
X5505581Y65581D01*
X5512196Y61160D01*
X5520000Y59608D01*
X5580000D01*
X5587804Y61160D01*
X5594419Y65581D01*
X5598840Y72196D01*
X5600392Y80000D01*
Y160000D01*
X5598840Y167804D01*
X5594419Y174419D01*
X5587804Y178840D01*
X5580000Y180392D01*
X5520000D01*
X5512196Y178840D01*
X5505581Y174419D01*
X5501160Y167804D01*
X5499608Y160000D01*
Y153145D01*
X5439587D01*
X5413145Y179587D01*
Y410000D01*
X5411383Y418857D01*
X5406366Y426366D01*
X5173145Y659587D01*
Y1075503D01*
X5195000Y1097357D01*
X5214999Y1089073D01*
X5214999Y1084137D01*
Y1019137D01*
X5267010D01*
Y677501D01*
X5268950Y667746D01*
X5274476Y659477D01*
X5524510Y409442D01*
Y370392D01*
X5520000D01*
X5512196Y368839D01*
X5505581Y364419D01*
X5501160Y357803D01*
X5499608Y350000D01*
Y270000D01*
X5501160Y262196D01*
X5505581Y255581D01*
X5512196Y251160D01*
X5520000Y249608D01*
X5580000D01*
X5587804Y251160D01*
X5594419Y255581D01*
X5598840Y262196D01*
X5600392Y270000D01*
Y350000D01*
X5598840Y357803D01*
X5594419Y364419D01*
X5587804Y368839D01*
X5580000Y370392D01*
X5575490D01*
Y420000D01*
X5573549Y429755D01*
X5568024Y438024D01*
X5317989Y688059D01*
Y1019137D01*
X5369999D01*
Y1084137D01*
X5370000Y1099137D01*
X5369999Y1119137D01*
X5370000Y1164137D01*
X5369999Y1184137D01*
X5370000Y1229137D01*
X5369999Y1249137D01*
X5370000Y1294137D01*
X5369999Y1314138D01*
X5370000Y1359137D01*
X5386060Y1368648D01*
X5404371D01*
X5443615Y1329404D01*
Y681772D01*
X5445555Y672017D01*
X5451081Y663748D01*
X5707852Y406976D01*
X5716122Y401451D01*
X5725876Y399510D01*
X5838692D01*
Y-782331D01*
X5824547Y-796470D01*
X2873478Y-795209D01*
Y-794950D01*
X2870615Y-788040D01*
Y-670398D01*
X2872654D01*
X2880457Y-668846D01*
X2887073Y-664425D01*
X2891493Y-657810D01*
X2893046Y-650006D01*
Y-570006D01*
X2891493Y-562203D01*
X2887073Y-555587D01*
X2880457Y-551167D01*
X2872654Y-549614D01*
X2870615D01*
Y-479007D01*
X2882656D01*
X2890459Y-477455D01*
X2897075Y-473034D01*
X2901495Y-466419D01*
X2903048Y-458615D01*
Y-398615D01*
X2901495Y-390812D01*
X2897075Y-384196D01*
X2890459Y-379775D01*
X2882656Y-378223D01*
X2802656D01*
X2794852Y-379775D01*
X2788236Y-384196D01*
X2783816Y-390812D01*
X2782264Y-398615D01*
Y-458615D01*
X2783816Y-466419D01*
X2788236Y-473034D01*
X2794852Y-477455D01*
X2802656Y-479007D01*
X2814692D01*
Y-549614D01*
X2812654D01*
X2804850Y-551167D01*
X2798234Y-555587D01*
X2793814Y-562203D01*
X2792262Y-570006D01*
Y-650006D01*
X2793814Y-657810D01*
X2798234Y-664425D01*
X2804850Y-668846D01*
X2812654Y-670398D01*
X2814692D01*
Y-776366D01*
X2797648Y-795177D01*
X454557Y-794175D01*
X371144Y-795261D01*
X346127D01*
X297055Y-785500D01*
X250830Y-766353D01*
X209228Y-738555D01*
X173849Y-703176D01*
X146052Y-661575D01*
X126905Y-615350D01*
X117144Y-566278D01*
Y-541261D01*
Y383020D01*
X117413Y402909D01*
X242413D01*
Y424854D01*
X532412D01*
Y402909D01*
X657412D01*
Y487909D01*
X532412D01*
Y465964D01*
X242413D01*
Y487909D01*
X200467D01*
Y546130D01*
X283175Y628838D01*
X319581D01*
X326556Y630225D01*
X332468Y634176D01*
X336419Y640088D01*
X337806Y647063D01*
Y714313D01*
X336419Y721288D01*
X332468Y727200D01*
X326556Y731151D01*
X323302Y731798D01*
Y824233D01*
X564653Y1065584D01*
X844999D01*
X845000Y1065583D01*
X852866Y1067148D01*
X859535Y1071604D01*
X1390087Y1602157D01*
X1390088Y1602157D01*
X1394544Y1608826D01*
X1396108Y1616692D01*
Y1718483D01*
X1461651Y1718483D01*
X1476359Y1714975D01*
X1486094Y1709879D01*
X1486253Y1709773D01*
X1494057Y1708221D01*
X1513502D01*
Y1637374D01*
X1449057D01*
X1437576Y1632619D01*
X1432821Y1621138D01*
Y1531139D01*
X1437576Y1519658D01*
X1449057Y1514903D01*
X1619056D01*
X1630537Y1519658D01*
X1633509Y1526833D01*
X1653770Y1534856D01*
X1727022Y1461605D01*
X1727022Y1461604D01*
X1733691Y1457148D01*
X1741557Y1455584D01*
X1760694D01*
Y1436139D01*
X1762246Y1428335D01*
X1766667Y1421719D01*
X1773282Y1417299D01*
X1781086Y1415747D01*
X1841086D01*
X1848889Y1417299D01*
X1855505Y1421719D01*
X1859925Y1428335D01*
X1861478Y1436139D01*
Y1516138D01*
X1859925Y1523942D01*
X1855505Y1530558D01*
X1848889Y1534978D01*
X1841086Y1536530D01*
X1781086D01*
X1773282Y1534978D01*
X1766667Y1530558D01*
X1762246Y1523942D01*
X1760694Y1516138D01*
Y1514355D01*
X1740694Y1506071D01*
X1657168Y1589597D01*
X1650500Y1594052D01*
X1642634Y1595617D01*
X1635292Y1612936D01*
Y1621138D01*
X1630537Y1632619D01*
X1619056Y1637374D01*
X1554612D01*
Y1708221D01*
X1574057D01*
X1581860Y1709773D01*
X1588476Y1714194D01*
X1592896Y1720809D01*
X1594448Y1728613D01*
Y1788613D01*
X1592896Y1796417D01*
X1588476Y1803032D01*
X1581860Y1807453D01*
X1574057Y1809005D01*
X1494057D01*
X1489658Y1808130D01*
X1476744Y1814882D01*
X1469658Y1820418D01*
Y2089445D01*
X2079909D01*
X2084787Y2084567D01*
X2095813Y2080000D01*
X2107748D01*
X2118775Y2084567D01*
X2127214Y2093006D01*
X2131781Y2104032D01*
Y2115967D01*
X2127214Y2126993D01*
X2118775Y2135433D01*
X2107748Y2140000D01*
X2095813D01*
X2084787Y2135433D01*
X2079909Y2130555D01*
X1469658D01*
Y2274155D01*
X1566862D01*
X1567667Y2273617D01*
X1576524Y2271855D01*
X1611356D01*
X1615128Y2272606D01*
X1647659D01*
X1656229Y2274310D01*
X1663494Y2279165D01*
X1668349Y2286430D01*
X1670054Y2295000D01*
X1668349Y2303570D01*
X1665293Y2308143D01*
X1663494Y2311351D01*
Y2328648D01*
X1665293Y2331856D01*
X1668349Y2336430D01*
X1670054Y2345000D01*
X1668349Y2353570D01*
X1663494Y2360835D01*
X1656229Y2365690D01*
X1647659Y2367394D01*
X1615128D01*
X1611356Y2368145D01*
X1576524D01*
X1567667Y2366383D01*
X1566862Y2365845D01*
X1469658D01*
Y2380000D01*
X1450000D01*
X1440000Y2390000D01*
Y2520000D01*
X1450000Y2530000D01*
X1469658D01*
Y2789483D01*
X1489637Y2795581D01*
X1496253Y2791160D01*
X1504056Y2789608D01*
X1564056D01*
X1571860Y2791160D01*
X1578476Y2795581D01*
X1582896Y2802196D01*
X1584448Y2810000D01*
Y2890000D01*
X1582896Y2897803D01*
X1581752Y2899516D01*
Y2932464D01*
X1619288Y2970000D01*
X1622524D01*
X1633550Y2974568D01*
X1641989Y2983007D01*
X1646557Y2994033D01*
Y3005968D01*
X1641989Y3016994D01*
X1633550Y3025433D01*
X1622524Y3030000D01*
X1610589D01*
X1599563Y3025433D01*
X1591124Y3016994D01*
X1586557Y3005968D01*
Y3002732D01*
X1542241Y2958416D01*
X1537224Y2950908D01*
X1535462Y2942051D01*
Y2910392D01*
X1504056D01*
X1496253Y2908839D01*
X1489637Y2904419D01*
X1469658Y2910517D01*
Y2975000D01*
X1481537D01*
X1492563Y2979567D01*
X1501002Y2988006D01*
X1505570Y2999032D01*
Y3000277D01*
X1530827Y3025534D01*
X1535844Y3033043D01*
X1537606Y3041900D01*
Y3069608D01*
X1564056D01*
X1571860Y3071160D01*
X1578476Y3075581D01*
X1579575Y3077227D01*
X1670718D01*
X1673006Y3074939D01*
X1684032Y3070372D01*
X1695967D01*
X1706994Y3074939D01*
X1715433Y3083378D01*
X1720000Y3094404D01*
Y3106339D01*
X1715433Y3117365D01*
X1706994Y3125804D01*
X1695967Y3130371D01*
X1684032D01*
X1673006Y3125804D01*
X1670718Y3123516D01*
X1584448D01*
Y3170000D01*
X1582896Y3177804D01*
X1578476Y3184419D01*
X1571860Y3188840D01*
X1564056Y3190392D01*
X1504056D01*
X1496253Y3188840D01*
X1489637Y3184419D01*
X1469658Y3190517D01*
Y3278483D01*
X1492793D01*
X1506138Y3265138D01*
X1517715Y3257402D01*
X1531371Y3254686D01*
X1612412D01*
Y3240372D01*
X1722412D01*
Y3278483D01*
X2109969D01*
X2115603Y3265358D01*
X2117119Y3258483D01*
X2113573Y3253175D01*
X2112020Y3245371D01*
Y3231057D01*
X2026943D01*
X2021632Y3233257D01*
X2007550D01*
X2002239Y3231057D01*
X1922412D01*
Y3245371D01*
X1812412D01*
Y3145372D01*
X1922412D01*
Y3159686D01*
X2142412D01*
X2156069Y3162402D01*
X2159926Y3164980D01*
X2212412D01*
X2220216Y3166532D01*
X2226831Y3170952D01*
X2231252Y3177568D01*
X2232804Y3185372D01*
Y3245371D01*
X2231252Y3253175D01*
X2227705Y3258483D01*
X2229221Y3265358D01*
X2234856Y3278483D01*
X2602823D01*
X2610476Y3260005D01*
X2603778Y3253307D01*
X2599322Y3246638D01*
X2597757Y3238772D01*
X2597758Y3238771D01*
Y3196250D01*
X2563313D01*
Y3186805D01*
X2422731D01*
X2414865Y3185240D01*
X2408196Y3180785D01*
X2408196Y3180784D01*
X2307967Y3080555D01*
X2291981D01*
X2287104Y3085433D01*
X2276077Y3090000D01*
X2264143D01*
X2253116Y3085433D01*
X2244677Y3076994D01*
X2240110Y3065967D01*
Y3054032D01*
X2244677Y3043006D01*
X2253116Y3034567D01*
X2264143Y3030000D01*
X2276077D01*
X2287104Y3034567D01*
X2291981Y3039445D01*
X2316480D01*
X2316481Y3039445D01*
X2324347Y3041010D01*
X2331016Y3045465D01*
X2431245Y3145695D01*
X2563313D01*
Y3136250D01*
X2673312D01*
Y3196250D01*
X2638867D01*
Y3230258D01*
X2687092Y3278483D01*
X2751211D01*
X2755380Y3268419D01*
X2763819Y3259980D01*
X2774845Y3255413D01*
X2786780D01*
X2787917Y3254652D01*
Y3176091D01*
X2787917Y3176090D01*
X2788313Y3174102D01*
Y3136250D01*
X2898312D01*
Y3167180D01*
X2925948Y3194817D01*
X3002012D01*
Y3181420D01*
X3301412D01*
Y3275080D01*
X3028248D01*
X3009658Y3278483D01*
X3009658Y3291913D01*
Y3314817D01*
X3422151D01*
X3434357Y3302611D01*
Y3275080D01*
X3408412D01*
Y3181420D01*
X3707812D01*
Y3275080D01*
X3475467D01*
Y3311125D01*
X3473903Y3318991D01*
X3469447Y3325660D01*
X3469446Y3325660D01*
X3445200Y3349906D01*
X3438532Y3354362D01*
X3430666Y3355927D01*
X3430664Y3355927D01*
X3009658D01*
Y3680897D01*
X3047412D01*
X3055216Y3682449D01*
X3061831Y3686869D01*
X3064130Y3690309D01*
X3154831D01*
X3174340Y3694189D01*
X3190879Y3705240D01*
X3201930Y3721779D01*
X3205811Y3741288D01*
X3201930Y3760797D01*
X3190879Y3777336D01*
X3174340Y3788387D01*
X3154831Y3792268D01*
X3064130D01*
X3061831Y3795708D01*
X3055216Y3800128D01*
X3047412Y3801680D01*
X3009658D01*
Y4103397D01*
X3047412D01*
X3055216Y4104949D01*
X3061832Y4109370D01*
X3064130Y4112809D01*
X3154831D01*
X3174340Y4116690D01*
X3190879Y4127741D01*
X3201930Y4144280D01*
X3205811Y4163789D01*
X3201930Y4183298D01*
X3190879Y4199837D01*
X3174340Y4210888D01*
X3154831Y4214769D01*
X3064130D01*
X3061832Y4218208D01*
X3055216Y4222629D01*
X3047412Y4224181D01*
X3009658D01*
Y4507480D01*
X3049912D01*
X3057716Y4509032D01*
X3064332Y4513452D01*
X3066630Y4516892D01*
X3140039D01*
X3157331Y4513452D01*
X3176840Y4517333D01*
X3193379Y4528384D01*
X3204430Y4544923D01*
X3208311Y4564432D01*
X3204430Y4583941D01*
X3193379Y4600480D01*
X3189940Y4603919D01*
X3173401Y4614970D01*
X3153892Y4618851D01*
X3066630D01*
X3064332Y4622291D01*
X3057716Y4626711D01*
X3049912Y4628263D01*
X3009658D01*
Y4868483D01*
X3344088D01*
Y4368371D01*
D02*
G37*
G36*
X1109912Y4560372D02*
Y4480372D01*
X1067412Y4437871D01*
X829362D01*
X784912Y4482321D01*
Y4500371D01*
X594912D01*
Y4580372D01*
X1089912D01*
X1109912Y4560372D01*
D02*
G37*
G36*
X4174912Y5208371D02*
X3844912D01*
X3824912Y5188371D01*
Y5008371D01*
X3645817D01*
X3644912Y5007467D01*
Y4626405D01*
X3646878Y4628371D01*
X3824912D01*
Y4448371D01*
X3844912Y4428371D01*
X4174912D01*
Y4318371D01*
X3654912D01*
X3604912Y4368371D01*
X3354912D01*
Y5268371D01*
X3604912D01*
X3654912Y5318371D01*
X4174912D01*
Y5208371D01*
D02*
G37*
G36*
X4364912Y4118371D02*
X3960000D01*
Y3830371D01*
X3354912D01*
Y4338371D01*
X3604913D01*
X3654912Y4288371D01*
X4034912D01*
X4064912Y4258371D01*
X4214912D01*
X4234912Y4278371D01*
Y4648371D01*
X4324912Y4738371D01*
Y4808371D01*
X4364912D01*
Y4118371D01*
D02*
G37*
G36*
X4312313Y4038100D02*
Y3961900D01*
X4274213Y3923800D01*
X4185313D01*
Y4076200D01*
X4274213D01*
X4312313Y4038100D01*
D02*
G37*
G36*
X2734912Y3980372D02*
Y3620371D01*
X2714912Y3600372D01*
X2554913Y3600371D01*
X2534912Y3620371D01*
X2534912Y3970371D01*
X2564912Y4000371D01*
X2714912D01*
X2734912Y3980372D01*
D02*
G37*
G36*
X2270110Y3746288D02*
X2285110Y3731289D01*
X2484844D01*
X2512578Y3703554D01*
Y3511989D01*
X2481878Y3481289D01*
X2131878D01*
Y3881289D01*
X2270110D01*
Y3746288D01*
D02*
G37*
G36*
X2062412Y3480371D02*
X1712412D01*
X1681712Y3511071D01*
Y3702637D01*
X1709447Y3730371D01*
X1909181D01*
X1924181Y3745371D01*
Y3880371D01*
X2062412D01*
Y3480371D01*
D02*
G37*
G36*
X4570600Y5033021D02*
X4435950Y4898371D01*
Y4778371D01*
Y4738371D01*
X4613600Y4560721D01*
Y4425970D01*
Y3382440D01*
X4514430D01*
Y3838554D01*
X4390000Y3962984D01*
Y4425970D01*
Y4778371D01*
Y5123923D01*
X4570600D01*
Y5033021D01*
D02*
G37*
G36*
X5960000Y3170000D02*
X4613600D01*
Y2300000D01*
X4514430D01*
Y3170000D01*
X3980000D01*
Y3519176D01*
X4014992D01*
X4022646Y3522347D01*
X4025816Y3530000D01*
Y3630000D01*
X4022646Y3637654D01*
X4014992Y3640824D01*
X3980000D01*
Y4095960D01*
X4141977D01*
Y3403023D01*
X4190000Y3355000D01*
X4857440D01*
X4880000Y3377560D01*
Y3747560D01*
X4848060Y3779500D01*
X4715500Y3779500D01*
X4665000Y3830000D01*
X4665000Y4765000D01*
X4821440Y4921440D01*
X4818534Y5437124D01*
X4829816Y5448470D01*
X5091530D01*
X5093060Y5450000D01*
X5960000D01*
Y3170000D01*
D02*
G37*
G36*
X1063907Y3369277D02*
X1048991Y3354362D01*
X907075D01*
X893907Y3367530D01*
Y3634326D01*
X860000Y3668233D01*
Y3777336D01*
X1063907D01*
Y3369277D01*
D02*
G37*
G36*
X10600000Y2960000D02*
X9980000D01*
Y4340000D01*
X10600000D01*
Y2960000D01*
D02*
G37*
G36*
X9936940D02*
X9263677D01*
X9204297Y3019380D01*
X9204297Y3717643D01*
X9124501Y3797440D01*
X9016940D01*
X8986940Y3827440D01*
Y4347440D01*
X9936940D01*
Y2960000D01*
D02*
G37*
G36*
X8290000D02*
X7670000D01*
Y4340000D01*
X8290000D01*
Y2960000D01*
D02*
G37*
G36*
X7626940D02*
X6953677D01*
X6894297Y3019380D01*
X6894297Y3717643D01*
X6814501Y3797440D01*
X6706940D01*
X6676940Y3827440D01*
Y4347440D01*
X7626940D01*
Y2960000D01*
D02*
G37*
G36*
X880000Y3631366D02*
Y2842588D01*
X807412Y2770000D01*
X595000D01*
Y2830000D01*
X745000D01*
X781412Y2866413D01*
Y2926500D01*
X784912Y2930000D01*
X714912Y3000000D01*
X100000D01*
Y3430883D01*
X219258Y3560000D01*
X696620D01*
Y3567909D01*
X739912Y3611201D01*
Y3655022D01*
X856344D01*
X880000Y3631366D01*
D02*
G37*
G36*
X1034912Y3302611D02*
X1067368Y3270156D01*
X1066912Y3269204D01*
Y2863088D01*
X1130000Y2800000D01*
Y2630000D01*
X877212D01*
X817212Y2690000D01*
X595000D01*
Y2750000D01*
X817212D01*
X893906Y2826694D01*
X893907Y3267935D01*
X928583Y3302611D01*
X1034912Y3302611D01*
D02*
G37*
G36*
X10600000Y-566970D02*
Y-588605D01*
X10592034Y-631135D01*
X10576375Y-671471D01*
X10553557Y-708236D01*
X10524362Y-740171D01*
X10489786Y-766186D01*
X10451012Y-785392D01*
X10409365Y-797130D01*
X10350089Y-802454D01*
X5849516D01*
Y399510D01*
X9526793D01*
X9536548Y401451D01*
X9544817Y406976D01*
X10088510Y950669D01*
X10275662D01*
Y1173869D01*
X10052462D01*
Y986717D01*
X9516235Y450490D01*
X5849516D01*
Y514845D01*
X9096529D01*
X9106283Y516785D01*
X9114553Y522310D01*
X9532911Y940669D01*
X9720063D01*
Y1163869D01*
X9496863D01*
Y976717D01*
X9085971Y565824D01*
X5849516D01*
Y659441D01*
X5861250Y664302D01*
X5907991Y617560D01*
X5916261Y612035D01*
X5926015Y610095D01*
X8150435D01*
X8160190Y612035D01*
X8168459Y617560D01*
X8503660Y952761D01*
X8690812D01*
Y1175961D01*
X8467612D01*
Y988809D01*
X8139877Y661074D01*
X5936573D01*
X5849516Y748131D01*
Y826384D01*
X5861250Y831244D01*
X5974008Y718486D01*
X5982277Y712960D01*
X5992032Y711020D01*
X7684383D01*
X7694138Y712960D01*
X7702407Y718486D01*
X7953351Y969430D01*
X8140504D01*
Y1192630D01*
X7917304D01*
Y1005478D01*
X7673825Y761999D01*
X6002590D01*
X5849516Y915073D01*
Y1467157D01*
X5861250Y1472017D01*
X5874510Y1458756D01*
Y1033413D01*
X5876451Y1023659D01*
X5881976Y1015390D01*
X6065389Y831976D01*
X6073659Y826451D01*
X6083413Y824510D01*
X7236528D01*
X7246282Y826451D01*
X7254552Y831976D01*
X7397005Y974429D01*
X7590504D01*
Y1197629D01*
X7367304D01*
Y1016824D01*
X7225970Y875490D01*
X6093972D01*
X5925490Y1043971D01*
Y1469315D01*
X5923549Y1479069D01*
X5918024Y1487339D01*
X5849516Y1555846D01*
Y1666497D01*
X5861250Y1671357D01*
X5999510Y1533097D01*
Y1131138D01*
X6001451Y1121384D01*
X6006976Y1113115D01*
X6188115Y931976D01*
X6196384Y926451D01*
X6206139Y924510D01*
X6788375D01*
X6798130Y926451D01*
X6806399Y931976D01*
X6864352Y989929D01*
X7051504D01*
Y1213129D01*
X6828304D01*
Y1025977D01*
X6777817Y975490D01*
X6754874D01*
X6748504Y985551D01*
X6748504Y988190D01*
Y1208751D01*
X6525304D01*
Y988190D01*
X6525304Y985551D01*
X6518934Y975490D01*
X6216697D01*
X6050490Y1141696D01*
Y1543655D01*
X6048549Y1553409D01*
X6043024Y1561678D01*
X5867540Y1737162D01*
X5859271Y1742688D01*
X5849516Y1744628D01*
Y1758649D01*
X5972855D01*
X6141407Y1590097D01*
Y1200000D01*
X6143348Y1190245D01*
X6148873Y1181976D01*
X6195450Y1135399D01*
X6203719Y1129874D01*
X6213474Y1127933D01*
X6230900D01*
Y1006573D01*
X6454100D01*
Y1229773D01*
X6230900D01*
Y1190005D01*
X6218200Y1184744D01*
X6192387Y1210558D01*
Y1600655D01*
X6190446Y1610410D01*
X6184921Y1618679D01*
X6001437Y1802162D01*
X5993168Y1807688D01*
X5983413Y1809628D01*
X5849516D01*
Y2139176D01*
X6250000D01*
X6257654Y2142346D01*
X6260824Y2150000D01*
Y2940000D01*
X6359092D01*
Y2880000D01*
X6360644Y2872196D01*
X6365065Y2865581D01*
X6371680Y2861160D01*
X6379484Y2859608D01*
X6389314D01*
Y2700392D01*
X6385000D01*
X6377197Y2698839D01*
X6370581Y2694419D01*
X6366160Y2687803D01*
X6364608Y2680000D01*
Y2620000D01*
X6366160Y2612196D01*
X6370581Y2605581D01*
X6377197Y2601160D01*
X6385000Y2599608D01*
X6465000D01*
X6472804Y2601160D01*
X6479419Y2605581D01*
X6483840Y2612196D01*
X6485392Y2620000D01*
Y2680000D01*
X6483840Y2687803D01*
X6479419Y2694419D01*
X6472804Y2698839D01*
X6465000Y2700392D01*
X6460686D01*
Y2859847D01*
X6467288Y2861160D01*
X6473903Y2865581D01*
X6478324Y2872196D01*
X6479876Y2880000D01*
Y2940000D01*
X10600000D01*
Y-566970D01*
D02*
G37*
G36*
X6250000Y2150000D02*
X5630000D01*
Y3150000D01*
X6250000D01*
Y2150000D01*
D02*
G37*
G36*
X5600000D02*
X4880000D01*
X4810000Y2220000D01*
Y2550000D01*
X4760000Y2600000D01*
X4680000D01*
X4650000Y2630000D01*
Y3150000D01*
X5600000D01*
Y2150000D01*
D02*
G37*
G36*
X1030000Y2225000D02*
Y2047500D01*
X935799D01*
X913907Y2069392D01*
Y2177671D01*
X881578Y2210000D01*
X595000D01*
Y2270000D01*
X985000D01*
X1030000Y2225000D01*
D02*
G37*
G36*
X889912Y2161738D02*
Y2069392D01*
X936188Y2023116D01*
Y2020000D01*
X1030000D01*
Y1920686D01*
X955000D01*
X941344Y1917969D01*
X929766Y1910234D01*
X844766Y1825234D01*
X837031Y1813656D01*
X834314Y1800000D01*
X837031Y1786344D01*
X844766Y1774766D01*
X856344Y1767031D01*
X870000Y1764314D01*
X883656Y1767031D01*
X895234Y1774766D01*
X969782Y1849314D01*
X1030000D01*
Y1748875D01*
X112439D01*
X100000Y1749506D01*
Y1960000D01*
X714912D01*
X784912Y2030000D01*
X781412Y2033500D01*
Y2093588D01*
X745000Y2130000D01*
X595000D01*
Y2190000D01*
X861650D01*
X889912Y2161738D01*
D02*
G37*
G36*
X1266140Y1659653D02*
X1171722Y1565235D01*
X874098D01*
Y1574680D01*
X872546Y1582484D01*
X868126Y1589099D01*
X861510Y1593520D01*
X853706Y1595072D01*
X773706D01*
X765903Y1593520D01*
X759287Y1589099D01*
X754867Y1582484D01*
X753314Y1574680D01*
Y1565235D01*
X657412D01*
Y1583638D01*
X532412D01*
Y1561693D01*
X242413D01*
Y1583638D01*
X117413D01*
X117144Y1603527D01*
Y1718483D01*
X1266140D01*
Y1659653D01*
D02*
G37*
G36*
X1354999Y1625206D02*
X836486Y1106693D01*
X556139D01*
X548272Y1105129D01*
X541604Y1100673D01*
X288213Y847282D01*
X283757Y840613D01*
X282192Y832747D01*
X282192Y832746D01*
Y732538D01*
X272331D01*
X265357Y731151D01*
X259444Y727200D01*
X255494Y721288D01*
X254106Y714313D01*
Y657907D01*
X165378Y569179D01*
X160922Y562510D01*
X159357Y554644D01*
X159358Y554643D01*
Y487909D01*
X117413D01*
X117144Y507798D01*
Y1263750D01*
X117413Y1283638D01*
X137144Y1283639D01*
X242413D01*
Y1290453D01*
X532412D01*
Y1283639D01*
X657412D01*
Y1368639D01*
X532412D01*
Y1361824D01*
X433098D01*
Y1394680D01*
X430382Y1408337D01*
X422646Y1419914D01*
X411069Y1427649D01*
X397412Y1430366D01*
X383756Y1427649D01*
X372179Y1419914D01*
X364443Y1408337D01*
X361727Y1394680D01*
Y1361824D01*
X242413D01*
Y1368639D01*
X117413Y1368639D01*
X117144Y1388527D01*
Y1478750D01*
X117413Y1498638D01*
X242413D01*
Y1520583D01*
X532412D01*
Y1498638D01*
X657412D01*
Y1524125D01*
X753314D01*
Y1514680D01*
X754867Y1506877D01*
X759287Y1500261D01*
X765903Y1495841D01*
X773706Y1494288D01*
X853706D01*
X861510Y1495841D01*
X868126Y1500261D01*
X872546Y1506877D01*
X874098Y1514680D01*
Y1524125D01*
X1180235D01*
X1180236Y1524125D01*
X1188103Y1525690D01*
X1194771Y1530146D01*
X1301229Y1636604D01*
X1301230Y1636604D01*
X1305685Y1643273D01*
X1307250Y1651139D01*
X1307250Y1651140D01*
Y1718483D01*
X1354999D01*
Y1625206D01*
D02*
G37*
G36*
X5839154Y1494112D02*
X5841863Y1474810D01*
X5841039Y1472821D01*
X5839516Y1471299D01*
Y1469145D01*
X5838692Y1467157D01*
Y952028D01*
X5820215Y944375D01*
X5797781Y966808D01*
Y1418847D01*
X5795841Y1428602D01*
X5790316Y1436871D01*
X5620025Y1607162D01*
X5617800Y1608649D01*
X5623867Y1628649D01*
X5704618D01*
X5839154Y1494112D01*
D02*
G37*
G36*
X5746802Y1408289D02*
Y956250D01*
X5748742Y946495D01*
X5754268Y938226D01*
X5838823Y853671D01*
X5839422Y851430D01*
X5841863Y834037D01*
X5841039Y832048D01*
X5839516Y830526D01*
Y828373D01*
X5838692Y826384D01*
Y785086D01*
X5820215Y777432D01*
X5695490Y902157D01*
Y1389138D01*
X5693549Y1398892D01*
X5688024Y1407162D01*
X5553024Y1542162D01*
X5550799Y1543648D01*
X5556866Y1563648D01*
X5591443D01*
X5746802Y1408289D01*
D02*
G37*
G36*
X5644510Y1378580D02*
Y891599D01*
X5646451Y881845D01*
X5651976Y873575D01*
X5839154Y686397D01*
X5841863Y667095D01*
X5841039Y665106D01*
X5839516Y663583D01*
Y661430D01*
X5838692Y659441D01*
Y575989D01*
X5818692Y570034D01*
X5595490Y793237D01*
Y1359137D01*
X5593549Y1368892D01*
X5588024Y1377161D01*
X5488024Y1477162D01*
X5485799Y1478648D01*
X5491866Y1498648D01*
X5524442D01*
X5644510Y1378580D01*
D02*
G37*
G36*
X5544510Y1348579D02*
Y782679D01*
X5546451Y772925D01*
X5551976Y764655D01*
X5794321Y522310D01*
X5802590Y516785D01*
X5812345Y514845D01*
X5838692D01*
Y450490D01*
X5736434D01*
X5494594Y692330D01*
Y1339962D01*
X5492654Y1349716D01*
X5487128Y1357986D01*
X5432953Y1412162D01*
X5430728Y1413648D01*
X5436795Y1433648D01*
X5459442D01*
X5544510Y1348579D01*
D02*
G37*
%LPC*%
G36*
X4415291Y6160156D02*
X4392910D01*
X4371291Y6154363D01*
X4351909Y6143173D01*
X4336083Y6127347D01*
X4324893Y6107964D01*
X4319100Y6086346D01*
Y6063965D01*
X4324893Y6042347D01*
X4336083Y6022965D01*
X4351909Y6007139D01*
X4371291Y5995948D01*
X4392910Y5990156D01*
X4415291D01*
X4436909Y5995948D01*
X4456291Y6007139D01*
X4472117Y6022965D01*
X4483308Y6042347D01*
X4489100Y6063965D01*
Y6086346D01*
X4483308Y6107964D01*
X4472117Y6127347D01*
X4456291Y6143173D01*
X4436909Y6154363D01*
X4415291Y6160156D01*
D02*
G37*
G36*
X4061191D02*
X4038810D01*
X4017192Y6154363D01*
X3997809Y6143173D01*
X3981983Y6127347D01*
X3970793Y6107964D01*
X3965000Y6086346D01*
Y6063965D01*
X3970793Y6042347D01*
X3981983Y6022965D01*
X3997809Y6007139D01*
X4017192Y5995948D01*
X4038810Y5990156D01*
X4061191D01*
X4082809Y5995948D01*
X4102191Y6007139D01*
X4118017Y6022965D01*
X4129208Y6042347D01*
X4135000Y6063965D01*
Y6086346D01*
X4129208Y6107964D01*
X4118017Y6127347D01*
X4102191Y6143173D01*
X4082809Y6154363D01*
X4061191Y6160156D01*
D02*
G37*
G36*
X3726103D02*
X3703722D01*
X3682104Y6154363D01*
X3662721Y6143173D01*
X3646895Y6127347D01*
X3635705Y6107964D01*
X3629912Y6086346D01*
Y6063965D01*
X3635705Y6042347D01*
X3646895Y6022965D01*
X3662721Y6007139D01*
X3682104Y5995948D01*
X3703722Y5990156D01*
X3726103D01*
X3747721Y5995948D01*
X3767103Y6007139D01*
X3782929Y6022965D01*
X3794120Y6042347D01*
X3799912Y6063965D01*
Y6086346D01*
X3794120Y6107964D01*
X3782929Y6127347D01*
X3767103Y6143173D01*
X3747721Y6154363D01*
X3726103Y6160156D01*
D02*
G37*
G36*
X3384413D02*
X3362032D01*
X3340414Y6154363D01*
X3321031Y6143173D01*
X3305206Y6127347D01*
X3294015Y6107964D01*
X3288223Y6086346D01*
Y6063965D01*
X3294015Y6042347D01*
X3305206Y6022965D01*
X3321031Y6007139D01*
X3340414Y5995948D01*
X3362032Y5990156D01*
X3384413D01*
X3406031Y5995948D01*
X3425414Y6007139D01*
X3441239Y6022965D01*
X3452430Y6042347D01*
X3458222Y6063965D01*
Y6086346D01*
X3452430Y6107964D01*
X3441239Y6127347D01*
X3425414Y6143173D01*
X3406031Y6154363D01*
X3384413Y6160156D01*
D02*
G37*
G36*
X3497232Y3726221D02*
X3485297D01*
X3474271Y3721654D01*
X3465832Y3713215D01*
X3461264Y3702189D01*
Y3698953D01*
X3458017Y3695706D01*
X3453000Y3688197D01*
X3451238Y3679340D01*
Y3640392D01*
X3444383D01*
X3436579Y3638840D01*
X3429964Y3634419D01*
X3425543Y3627804D01*
X3423991Y3620000D01*
Y3540000D01*
X3425543Y3532196D01*
X3429964Y3525581D01*
X3436579Y3521160D01*
X3444383Y3519608D01*
X3504383D01*
X3512187Y3521160D01*
X3518802Y3525581D01*
X3523223Y3532196D01*
X3524775Y3540000D01*
Y3620000D01*
X3523223Y3627804D01*
X3518802Y3634419D01*
X3512187Y3638840D01*
X3504383Y3640392D01*
X3497528D01*
Y3666344D01*
X3508258Y3670789D01*
X3516697Y3679228D01*
X3521264Y3690254D01*
Y3702189D01*
X3516697Y3713215D01*
X3508258Y3721654D01*
X3497232Y3726221D01*
D02*
G37*
G36*
X3324383Y3742788D02*
X3310727Y3740071D01*
X3299149Y3732336D01*
X3291414Y3720758D01*
X3288697Y3707102D01*
Y3639261D01*
X3286579Y3638840D01*
X3279964Y3634419D01*
X3275543Y3627804D01*
X3273991Y3620000D01*
Y3540000D01*
X3275543Y3532196D01*
X3279964Y3525581D01*
X3286579Y3521160D01*
X3294383Y3519608D01*
X3354383D01*
X3362187Y3521160D01*
X3368802Y3525581D01*
X3373223Y3532196D01*
X3374775Y3540000D01*
Y3620000D01*
X3373223Y3627804D01*
X3368802Y3634419D01*
X3362187Y3638840D01*
X3360069Y3639261D01*
Y3707102D01*
X3357352Y3720758D01*
X3349617Y3732336D01*
X3338039Y3740071D01*
X3324383Y3742788D01*
D02*
G37*
G36*
X3301412Y3148080D02*
X3002012D01*
Y3121805D01*
X2978602D01*
X2970736Y3120240D01*
X2964068Y3115784D01*
X2964067Y3115784D01*
X2917205Y3068922D01*
X2898312Y3066250D01*
Y3066250D01*
X2788313D01*
Y3028398D01*
X2787917Y3026410D01*
X2787917Y3026409D01*
Y2984614D01*
X2767768Y2964465D01*
X2138352D01*
X2133475Y2969343D01*
X2122448Y2973910D01*
X2110513D01*
X2099487Y2969343D01*
X2091048Y2960904D01*
X2086481Y2949878D01*
Y2937943D01*
X2091048Y2926916D01*
X2099487Y2918477D01*
X2110513Y2913910D01*
X2122448D01*
X2133475Y2918477D01*
X2138352Y2923355D01*
X2462765D01*
X2469020Y2907892D01*
X2469361Y2903355D01*
X2405424Y2839418D01*
X2401003Y2832802D01*
X2399451Y2824999D01*
Y2655134D01*
X2401003Y2647330D01*
X2405424Y2640715D01*
X2467308Y2578831D01*
X2473923Y2574410D01*
X2481727Y2572858D01*
X2563313D01*
Y2567500D01*
X2593670D01*
Y2488647D01*
X2577444Y2472421D01*
X2570315D01*
X2559289Y2467854D01*
X2550850Y2459415D01*
X2546283Y2448389D01*
Y2436454D01*
X2550850Y2425427D01*
X2559289Y2416988D01*
X2570315Y2412421D01*
X2582250D01*
X2593276Y2416988D01*
X2601716Y2425427D01*
X2606283Y2436454D01*
Y2443582D01*
X2628481Y2465781D01*
X2628482Y2465781D01*
X2632902Y2472397D01*
X2634454Y2480201D01*
Y2567500D01*
X2673312D01*
Y2627500D01*
X2563313D01*
Y2613642D01*
X2490174D01*
X2440235Y2663581D01*
Y2752161D01*
X2460235Y2761810D01*
X2461172Y2761065D01*
Y2750843D01*
X2461172Y2750842D01*
X2462737Y2742975D01*
X2467192Y2736307D01*
X2490533Y2712966D01*
X2490534Y2712965D01*
X2497203Y2708509D01*
X2505069Y2706945D01*
X2505070Y2706945D01*
X2563313D01*
Y2697500D01*
X2673312D01*
Y2757500D01*
X2638867D01*
Y2777529D01*
X2688033Y2826695D01*
X3002012D01*
Y2800420D01*
X3301412D01*
Y2894080D01*
X3002012D01*
Y2867805D01*
X2904840D01*
X2896555Y2887805D01*
X2962608Y2953858D01*
X3002012D01*
Y2927420D01*
X3301412D01*
Y3021080D01*
X3002012D01*
Y2994642D01*
X2954163D01*
X2954161Y2994642D01*
X2946358Y2993090D01*
X2939742Y2988669D01*
X2939742Y2988668D01*
X2861465Y2910392D01*
X2798405D01*
X2792146Y2926053D01*
X2791834Y2930392D01*
X2823006Y2961565D01*
X2823007Y2961565D01*
X2827463Y2968234D01*
X2829028Y2976100D01*
X2829027Y2976101D01*
Y3006250D01*
X2898312D01*
Y3006250D01*
X2914340Y3015841D01*
X2921469Y3017260D01*
X2928137Y3021715D01*
X2982012Y3075590D01*
X3002012Y3068372D01*
Y3054420D01*
X3301412D01*
Y3148080D01*
D02*
G37*
G36*
X3707812D02*
X3408412D01*
Y3054420D01*
X3707812D01*
Y3065564D01*
X3854520D01*
Y3045000D01*
X3856073Y3037196D01*
X3860493Y3030581D01*
X3867109Y3026160D01*
X3874912Y3024608D01*
X3954912D01*
X3962716Y3026160D01*
X3969331Y3030581D01*
X3973752Y3037196D01*
X3975304Y3045000D01*
Y3105000D01*
X3973752Y3112804D01*
X3969331Y3119419D01*
X3962716Y3123840D01*
X3954912Y3125392D01*
X3904988D01*
X3903896Y3126483D01*
X3892319Y3134219D01*
X3878662Y3136936D01*
X3707812D01*
Y3148080D01*
D02*
G37*
G36*
X2673312Y3066250D02*
X2563313D01*
Y3006250D01*
X2673312D01*
Y3066250D01*
D02*
G37*
G36*
X3707812Y3021080D02*
X3408412D01*
Y2927420D01*
X3707812D01*
Y3021080D01*
D02*
G37*
G36*
X1865000Y2986892D02*
X1805000D01*
X1797197Y2985340D01*
X1790581Y2980920D01*
X1786161Y2974304D01*
X1784608Y2966500D01*
Y2886500D01*
X1786161Y2878697D01*
X1790581Y2872081D01*
X1797197Y2867661D01*
X1805000Y2866109D01*
X1816723D01*
Y2829576D01*
X1814122Y2826975D01*
X1809555Y2815949D01*
Y2804014D01*
X1814122Y2792988D01*
X1822562Y2784549D01*
X1833588Y2779982D01*
X1845523D01*
X1856549Y2784549D01*
X1864988Y2792988D01*
X1869555Y2804014D01*
Y2815949D01*
X1864988Y2826975D01*
X1857833Y2834130D01*
Y2866109D01*
X1865000D01*
X1872804Y2867661D01*
X1879419Y2872081D01*
X1883840Y2878697D01*
X1885392Y2886500D01*
Y2966500D01*
X1883840Y2974304D01*
X1879419Y2980920D01*
X1872804Y2985340D01*
X1865000Y2986892D01*
D02*
G37*
G36*
X3301412Y2767080D02*
X3002012D01*
Y2747892D01*
X2898312D01*
Y2757500D01*
X2788313D01*
Y2747892D01*
X2765814D01*
X2765812Y2747892D01*
X2758009Y2746340D01*
X2751393Y2741919D01*
X2751393Y2741919D01*
X2716393Y2706919D01*
X2711973Y2700304D01*
X2710421Y2692500D01*
Y2493446D01*
X2701974Y2485000D01*
X2690315D01*
X2679289Y2480433D01*
X2670850Y2471994D01*
X2666283Y2460967D01*
Y2449032D01*
X2670850Y2438006D01*
X2679289Y2429567D01*
X2690315Y2425000D01*
X2702250D01*
X2713277Y2429567D01*
X2721716Y2438006D01*
X2726283Y2449032D01*
Y2451632D01*
X2745231Y2470580D01*
X2745232Y2470581D01*
X2749652Y2477196D01*
X2751205Y2485000D01*
X2751204Y2485001D01*
Y2684053D01*
X2768313Y2701162D01*
X2788313Y2697500D01*
Y2697500D01*
X2898312D01*
Y2707108D01*
X3002012D01*
Y2673420D01*
X3301412D01*
Y2767080D01*
D02*
G37*
G36*
Y2640080D02*
X3002012D01*
Y2617892D01*
X2898312D01*
Y2627500D01*
X2788313D01*
Y2567500D01*
X2822921D01*
Y2488182D01*
X2819738Y2485000D01*
X2815315D01*
X2804289Y2480433D01*
X2795850Y2471994D01*
X2791283Y2460967D01*
Y2449032D01*
X2795850Y2438006D01*
X2804289Y2429567D01*
X2815315Y2425000D01*
X2827250D01*
X2838277Y2429567D01*
X2846716Y2438006D01*
X2851283Y2449032D01*
Y2458867D01*
X2857732Y2465316D01*
X2862152Y2471932D01*
X2863704Y2479736D01*
Y2567500D01*
X2898312D01*
Y2577108D01*
X3002012D01*
Y2546420D01*
X3301412D01*
Y2640080D01*
D02*
G37*
G36*
X2015000Y2986892D02*
X1955000D01*
X1947197Y2985340D01*
X1940581Y2980920D01*
X1936160Y2974304D01*
X1934608Y2966500D01*
Y2886500D01*
X1936160Y2878697D01*
X1940581Y2872081D01*
X1947197Y2867661D01*
X1949314Y2867240D01*
Y2788250D01*
Y2721761D01*
X1947197Y2721339D01*
X1940581Y2716919D01*
X1936160Y2710303D01*
X1934608Y2702500D01*
Y2622500D01*
X1935168Y2619685D01*
X1918095Y2608474D01*
X1889375Y2637194D01*
X1885392Y2639856D01*
Y2702500D01*
X1883840Y2710303D01*
X1879419Y2716919D01*
X1872804Y2721339D01*
X1865000Y2722892D01*
X1805000D01*
X1797197Y2721339D01*
X1790581Y2716919D01*
X1786161Y2710303D01*
X1784608Y2702500D01*
X1764608Y2694373D01*
X1719985Y2738997D01*
X1720000Y2739032D01*
Y2750967D01*
X1715433Y2761993D01*
X1706994Y2770433D01*
X1695967Y2775000D01*
X1684032D01*
X1673006Y2770433D01*
X1664567Y2761993D01*
X1660000Y2750967D01*
Y2739032D01*
X1664567Y2728006D01*
X1673006Y2719567D01*
X1684032Y2715000D01*
X1685843D01*
X1752877Y2647966D01*
X1752878Y2647965D01*
X1759546Y2643510D01*
X1767412Y2641945D01*
X1784608Y2633674D01*
Y2622500D01*
X1786161Y2614696D01*
X1790581Y2608081D01*
X1797197Y2603660D01*
X1805000Y2602108D01*
X1864824D01*
X1864840Y2602105D01*
X1866326D01*
X1963586Y2504845D01*
X1963587Y2504844D01*
X1970255Y2500388D01*
X1978121Y2498824D01*
X1978123Y2498824D01*
X2269838D01*
X2301481Y2467181D01*
Y2460282D01*
X2306048Y2449256D01*
X2314487Y2440817D01*
X2325514Y2436250D01*
X2337448D01*
X2348475Y2440817D01*
X2356914Y2449256D01*
X2361481Y2460282D01*
Y2472217D01*
X2356914Y2483243D01*
X2348475Y2491683D01*
X2337448Y2496250D01*
X2330550D01*
X2292887Y2533913D01*
X2286218Y2538369D01*
X2278352Y2539934D01*
X2278351Y2539934D01*
X1986635D01*
X1940974Y2585595D01*
X1952186Y2602668D01*
X1955000Y2602108D01*
X2015000D01*
X2022804Y2603660D01*
X2029419Y2608081D01*
X2033840Y2614696D01*
X2035392Y2622500D01*
Y2702500D01*
X2033840Y2710303D01*
X2029419Y2716919D01*
X2022804Y2721339D01*
X2020686Y2721761D01*
Y2752564D01*
X2032231D01*
X2045887Y2755281D01*
X2057465Y2763017D01*
X2065200Y2774594D01*
X2067917Y2788250D01*
X2065200Y2801907D01*
X2057465Y2813484D01*
X2045887Y2821219D01*
X2032231Y2823936D01*
X2020686D01*
Y2867240D01*
X2022804Y2867661D01*
X2029419Y2872081D01*
X2033840Y2878697D01*
X2035392Y2886500D01*
Y2966500D01*
X2033840Y2974304D01*
X2029419Y2980920D01*
X2022804Y2985340D01*
X2015000Y2986892D01*
D02*
G37*
G36*
X3707812Y2640080D02*
X3408412D01*
Y2546420D01*
X3707812D01*
Y2557564D01*
X3846881D01*
X3866688Y2537757D01*
X3871002Y2527342D01*
X3882254Y2516090D01*
X3896956Y2510000D01*
X3912869D01*
X3927570Y2516090D01*
X3938822Y2527342D01*
X3944912Y2542043D01*
Y2557957D01*
X3938822Y2572658D01*
X3927570Y2583910D01*
X3917155Y2588224D01*
X3886896Y2618483D01*
X3875319Y2626219D01*
X3861662Y2628936D01*
X3707812D01*
Y2640080D01*
D02*
G37*
G36*
Y2513080D02*
X3408412D01*
Y2419420D01*
X3707812D01*
Y2513080D01*
D02*
G37*
G36*
X3301412D02*
X3002012D01*
Y2419420D01*
X3301412D01*
Y2513080D01*
D02*
G37*
G36*
X3393414Y2382796D02*
X3381479D01*
X3370453Y2378229D01*
X3362014Y2369790D01*
X3357447Y2358763D01*
Y2355527D01*
X3255199Y2253280D01*
X3250182Y2245772D01*
X3248420Y2236914D01*
Y1708617D01*
X3134087Y1594283D01*
X3043783D01*
X3034926Y1592522D01*
X3033442Y1591530D01*
X3015653D01*
X3001846Y1596702D01*
X2996675Y1610509D01*
Y1637865D01*
X2996829Y1638639D01*
Y1704754D01*
X3038462Y1746387D01*
X3042916Y1753053D01*
X3044480Y1760915D01*
Y1775537D01*
X3044782Y1777056D01*
Y2210293D01*
X3043218Y2218155D01*
X3038765Y2224821D01*
X2913755Y2349830D01*
X2907089Y2354284D01*
X2899227Y2355848D01*
X2324198D01*
X2319282Y2359133D01*
X2311419Y2360697D01*
X1804299D01*
X1804207Y2360835D01*
X1796942Y2365690D01*
X1788372Y2367394D01*
X1715765D01*
X1707195Y2365690D01*
X1699930Y2360835D01*
X1695076Y2353570D01*
X1693371Y2345000D01*
X1694969Y2336964D01*
X1695070Y2336346D01*
X1693801Y2316964D01*
X1693801Y2316964D01*
Y2273036D01*
X1810336D01*
Y2279303D01*
X2286796D01*
X2291712Y2276018D01*
X2299574Y2274454D01*
X2874023D01*
X2963389Y2185089D01*
Y1817308D01*
X2943389Y1813330D01*
X2942734Y1814910D01*
X2934295Y1823349D01*
X2923268Y1827917D01*
X2914760D01*
X2909830Y1829457D01*
X2896282Y1843330D01*
Y1849601D01*
X2904086Y1867805D01*
X2910702Y1872225D01*
X2915122Y1878841D01*
X2916674Y1886645D01*
Y1946645D01*
X2915122Y1954448D01*
X2910702Y1961064D01*
X2904086Y1965484D01*
X2896282Y1967036D01*
X2816283D01*
X2808479Y1965484D01*
X2801863Y1961064D01*
X2797443Y1954448D01*
X2795891Y1946645D01*
Y1886645D01*
X2797443Y1878841D01*
X2801863Y1872225D01*
X2808479Y1867805D01*
X2809355Y1865761D01*
X2805890Y1857196D01*
X2804917Y1856057D01*
X2782250Y1846988D01*
X2770315D01*
X2759289Y1842421D01*
X2750850Y1833982D01*
X2746283Y1822955D01*
Y1814463D01*
X2741828Y1809549D01*
X2738334Y1806941D01*
X2728430Y1801858D01*
X2722076Y1804490D01*
X2710141D01*
X2699115Y1799922D01*
X2690676Y1791483D01*
X2686109Y1780457D01*
Y1768522D01*
X2690676Y1757496D01*
X2699115Y1749057D01*
X2710141Y1744490D01*
X2717270D01*
X2743841Y1717919D01*
X2738523Y1704628D01*
X2734750Y1698726D01*
X2728479Y1697478D01*
X2721863Y1693058D01*
X2710702D01*
X2704087Y1697478D01*
X2696283Y1699030D01*
X2688479Y1697478D01*
X2681864Y1693058D01*
X2670702D01*
X2664087Y1697478D01*
X2656283Y1699030D01*
X2648479Y1697478D01*
X2641864Y1693058D01*
X2630702D01*
X2624086Y1697478D01*
X2616283Y1699030D01*
X2608479Y1697478D01*
X2601863Y1693058D01*
X2590702D01*
X2584087Y1697478D01*
X2576283Y1699030D01*
X2570620Y1703944D01*
X2569453Y1729333D01*
X2588769Y1748649D01*
X2592005D01*
X2603031Y1753216D01*
X2611470Y1761655D01*
X2616037Y1772681D01*
Y1784616D01*
X2611470Y1795642D01*
X2603031Y1804081D01*
X2592005Y1808649D01*
X2580070D01*
X2569044Y1804081D01*
X2560605Y1795643D01*
X2556902Y1794771D01*
X2536902Y1810608D01*
Y1810993D01*
X2541780Y1815871D01*
X2546347Y1826897D01*
Y1838832D01*
X2541780Y1849858D01*
X2533341Y1858297D01*
X2522315Y1862864D01*
X2510380D01*
X2499354Y1858297D01*
X2490914Y1849858D01*
X2486347Y1838832D01*
Y1826897D01*
X2490914Y1815871D01*
X2495628Y1811157D01*
Y1791061D01*
X2456838Y1752271D01*
X2436838Y1760556D01*
Y1816784D01*
X2442550Y1822496D01*
X2447117Y1833522D01*
Y1845457D01*
X2442550Y1856483D01*
X2434111Y1864922D01*
X2423085Y1869490D01*
X2411150D01*
X2400124Y1864922D01*
X2391685Y1856483D01*
X2387117Y1845457D01*
Y1833522D01*
X2391685Y1822496D01*
X2395728Y1818453D01*
Y1785655D01*
X2375728Y1777393D01*
X2373131Y1779991D01*
X2362104Y1784558D01*
X2350170D01*
X2339143Y1779991D01*
X2324370Y1784813D01*
X2318716Y1787847D01*
X2275175Y1831388D01*
X2270861Y1841804D01*
X2259608Y1853056D01*
X2249193Y1857370D01*
X2237191Y1869372D01*
X2225614Y1877107D01*
X2211957Y1879824D01*
X2099087D01*
Y1884138D01*
X2097535Y1891942D01*
X2093114Y1898558D01*
X2086498Y1902978D01*
X2078695Y1904530D01*
X2018695D01*
X2010891Y1902978D01*
X2004276Y1898558D01*
X1999855Y1891942D01*
X1998303Y1884138D01*
Y1804138D01*
X1999855Y1796335D01*
X2004276Y1789719D01*
X2010891Y1785299D01*
X2018695Y1783746D01*
X2078695D01*
X2086498Y1785299D01*
X2093114Y1789719D01*
X2097535Y1796335D01*
X2099087Y1804138D01*
Y1808453D01*
X2197176D01*
X2198726Y1806903D01*
X2203040Y1796487D01*
X2214292Y1785235D01*
X2224708Y1780921D01*
X2270014Y1735614D01*
X2274693Y1732488D01*
Y1719355D01*
X2274693Y1719354D01*
X2276258Y1711488D01*
X2280713Y1704819D01*
X2315891Y1669642D01*
Y1610509D01*
X2310720Y1596702D01*
X2296913Y1591530D01*
X2270248D01*
X2268623Y1591854D01*
X2268622Y1591854D01*
X2194065D01*
X2187116Y1602254D01*
X2175539Y1609989D01*
X2161883Y1612706D01*
X2161510Y1612632D01*
X2142067D01*
X2131652Y1616946D01*
X2130855D01*
X2099087Y1648714D01*
Y1698638D01*
X2097535Y1706442D01*
X2093114Y1713058D01*
X2086498Y1717478D01*
X2078695Y1719030D01*
X2018695D01*
X2010891Y1717478D01*
X2004276Y1713058D01*
X1999855Y1706442D01*
X1998303Y1698638D01*
Y1618639D01*
X1999855Y1610835D01*
X2004276Y1604219D01*
X2010891Y1599799D01*
X2018695Y1598247D01*
X2048619D01*
X2087809Y1559057D01*
X2089785Y1554288D01*
X2101037Y1543036D01*
X2115738Y1536946D01*
X2131651D01*
X2151553Y1527757D01*
X2137758Y1511693D01*
X2011478D01*
Y1516138D01*
X2009925Y1523942D01*
X2005505Y1530558D01*
X1998889Y1534978D01*
X1991086Y1536530D01*
X1931086D01*
X1923282Y1534978D01*
X1916666Y1530558D01*
X1912246Y1523942D01*
X1910694Y1516138D01*
Y1436139D01*
X1912246Y1428335D01*
X1916666Y1421719D01*
X1923282Y1417299D01*
X1931086Y1415747D01*
X1991086D01*
X1998889Y1417299D01*
X2005505Y1421719D01*
X2009925Y1428335D01*
X2011478Y1436139D01*
Y1470584D01*
X2095677D01*
X2103961Y1450584D01*
X2018071Y1364693D01*
X1635292D01*
Y1371138D01*
X1630537Y1382619D01*
X1619056Y1387374D01*
X1449057D01*
X1437576Y1382619D01*
X1432821Y1371138D01*
Y1281139D01*
X1437576Y1269658D01*
X1449057Y1264903D01*
X1506990D01*
Y1181530D01*
X1487545D01*
X1479741Y1179978D01*
X1473125Y1175557D01*
X1468705Y1168942D01*
X1467153Y1161138D01*
Y1101138D01*
X1468705Y1093335D01*
X1473125Y1086719D01*
X1479741Y1082299D01*
X1487545Y1080746D01*
X1567544D01*
X1575348Y1082299D01*
X1581964Y1086719D01*
X1586384Y1093335D01*
X1587936Y1101138D01*
Y1161138D01*
X1586384Y1168942D01*
X1581964Y1175557D01*
X1575348Y1179978D01*
X1567544Y1181530D01*
X1548100D01*
Y1264903D01*
X1619056D01*
X1630537Y1269658D01*
X1635292Y1281139D01*
Y1323583D01*
X2026584D01*
X2026585Y1323583D01*
X2034451Y1325148D01*
X2041120Y1329603D01*
X2082764Y1371248D01*
X2102764Y1365011D01*
X2107331Y1353985D01*
X2115770Y1345546D01*
X2126797Y1340979D01*
X2138732D01*
X2145305Y1343702D01*
X2150764Y1341753D01*
X2158198Y1337006D01*
X2163783Y1331355D01*
X2163783Y1325171D01*
X2160887Y1309969D01*
X2154219Y1305513D01*
X2154218Y1305513D01*
X2134285Y1285579D01*
X2126797D01*
X2115770Y1281012D01*
X2107331Y1272573D01*
X2102764Y1261546D01*
Y1249611D01*
X2107331Y1238585D01*
X2115770Y1230146D01*
X2126797Y1225579D01*
X2138732D01*
X2149758Y1230146D01*
X2158197Y1238585D01*
X2162764Y1249611D01*
Y1255920D01*
X2177268Y1270424D01*
X2193561D01*
X2197031Y1267991D01*
X2208391Y1251138D01*
X2209943Y1243335D01*
X2214364Y1236719D01*
Y1225558D01*
X2209943Y1218942D01*
X2209903Y1218741D01*
X2204165Y1208883D01*
X2189957Y1201299D01*
X2187815D01*
X2176789Y1196731D01*
X2168350Y1188292D01*
X2163783Y1177266D01*
Y1165331D01*
X2147784Y1151694D01*
X2087228D01*
X2079406Y1159516D01*
X2068380Y1164083D01*
X2056445D01*
X2045419Y1159516D01*
X2036980Y1151077D01*
X2032412Y1140051D01*
Y1128116D01*
X2036980Y1117089D01*
X2045419Y1108650D01*
X2049827Y1106824D01*
X2045849Y1086824D01*
X2003772D01*
X2000232Y1091139D01*
Y1171138D01*
X1998680Y1178942D01*
X1994259Y1185557D01*
X1987644Y1189978D01*
X1979840Y1191530D01*
X1919840D01*
X1912037Y1189978D01*
X1905421Y1185557D01*
X1901001Y1178942D01*
X1899448Y1171138D01*
Y1091138D01*
X1901001Y1083335D01*
X1905421Y1076719D01*
X1912037Y1072299D01*
X1914154Y1071877D01*
Y976530D01*
X1912412D01*
X1904609Y974978D01*
X1897993Y970558D01*
X1893573Y963942D01*
X1892021Y956138D01*
Y876138D01*
X1893573Y868335D01*
X1897993Y861719D01*
X1904609Y857299D01*
X1912412Y855747D01*
X1972412D01*
X1980216Y857299D01*
X1986832Y861719D01*
X1991252Y868335D01*
X1992804Y876138D01*
Y956138D01*
X1991252Y963942D01*
X1986832Y970558D01*
X1985526Y971430D01*
Y1015453D01*
X2068586D01*
X2082242Y1018169D01*
X2093819Y1025905D01*
X2096946Y1030584D01*
X2108584D01*
X2108586Y1030583D01*
X2108587Y1030584D01*
X2193668D01*
X2197150Y1028093D01*
X2208391Y1011138D01*
X2209943Y1003335D01*
X2214364Y996719D01*
Y985558D01*
X2209943Y978942D01*
X2208391Y971139D01*
X2209943Y963335D01*
X2214364Y956719D01*
Y945558D01*
X2209943Y938942D01*
X2208391Y931139D01*
X2209943Y923335D01*
X2214364Y916719D01*
X2220979Y912299D01*
X2228783Y910747D01*
X2296913D01*
X2310720Y905575D01*
X2315891Y891769D01*
Y823639D01*
X2317443Y815835D01*
X2321864Y809219D01*
X2328479Y804799D01*
X2336283Y803247D01*
X2344086Y804799D01*
X2350702Y809219D01*
X2361864D01*
X2368479Y804799D01*
X2376283Y803247D01*
X2378613Y801702D01*
X2379158Y784831D01*
X2377444Y778481D01*
X2370864Y771901D01*
X2366297Y760875D01*
Y748940D01*
X2370864Y737913D01*
X2379303Y729474D01*
X2390329Y724907D01*
X2402264D01*
X2413290Y729474D01*
X2428128Y716027D01*
X2430850Y710178D01*
X2426283Y699152D01*
Y687217D01*
X2430850Y676191D01*
X2439289Y667752D01*
X2450315Y663185D01*
X2462250D01*
X2473276Y667752D01*
X2481716Y676191D01*
X2486283Y687217D01*
Y699152D01*
X2482553Y708156D01*
X2486011Y714460D01*
X2494382Y722803D01*
X2496838Y723887D01*
X2497437Y723639D01*
X2509372D01*
X2520853Y722238D01*
X2525420Y711212D01*
X2533860Y702773D01*
X2544886Y698206D01*
X2556820D01*
X2571283Y683868D01*
Y671934D01*
X2575850Y660907D01*
X2584289Y652468D01*
X2595315Y647901D01*
X2607250D01*
X2625606Y635159D01*
X2628219Y628772D01*
X2626283Y624098D01*
Y612163D01*
X2630850Y601137D01*
X2639289Y592698D01*
X2650316Y588131D01*
X2662250D01*
X2673277Y592698D01*
X2681716Y601137D01*
X2686283Y612163D01*
Y624098D01*
X2682960Y632122D01*
X2689291Y640035D01*
X2692349Y642823D01*
X2697102Y646264D01*
X2706005Y642576D01*
X2717940D01*
X2728966Y647143D01*
X2737405Y655582D01*
X2740336Y662658D01*
X2760450D01*
X2763381Y655582D01*
X2771820Y647143D01*
X2782846Y642576D01*
X2794781D01*
X2805807Y647143D01*
X2808321Y649657D01*
X2828321Y641372D01*
Y519138D01*
X2830450Y508438D01*
X2831283Y507191D01*
Y494138D01*
X2844335D01*
X2845582Y493305D01*
X2856283Y491177D01*
X2866983Y493305D01*
X2868230Y494138D01*
X2881283D01*
Y507191D01*
X2882116Y508438D01*
X2884244Y519138D01*
Y863639D01*
X2882116Y874339D01*
X2876675Y882483D01*
Y903639D01*
X2875123Y911442D01*
X2870702Y918058D01*
X2864086Y922478D01*
X2856283Y924030D01*
X2848479Y922478D01*
X2841864Y918058D01*
X2830702D01*
X2824087Y922478D01*
X2816283Y924030D01*
X2808479Y922478D01*
X2801864Y918058D01*
X2790702D01*
X2784086Y922478D01*
X2776283Y924030D01*
X2768479Y922478D01*
X2761863Y918058D01*
X2750702D01*
X2744086Y922478D01*
X2736283Y924030D01*
X2728479Y922478D01*
X2721863Y918058D01*
X2710702D01*
X2704087Y922478D01*
X2696283Y924030D01*
X2688479Y922478D01*
X2681864Y918058D01*
X2670702D01*
X2664087Y922478D01*
X2656283Y924030D01*
X2648479Y922478D01*
X2641864Y918058D01*
X2630702D01*
X2624086Y922478D01*
X2616283Y924030D01*
X2608479Y922478D01*
X2601863Y918058D01*
X2590702D01*
X2584087Y922478D01*
X2576283Y924030D01*
X2568479Y922478D01*
X2561864Y918058D01*
X2550702D01*
X2544087Y922478D01*
X2536283Y924030D01*
X2528479Y922478D01*
X2521864Y918058D01*
X2510702D01*
X2504086Y922478D01*
X2496283Y924030D01*
X2488479Y922478D01*
X2481863Y918058D01*
X2470702D01*
X2464087Y922478D01*
X2456283Y924030D01*
X2448479Y922478D01*
X2441864Y918058D01*
X2430702D01*
X2424087Y922478D01*
X2416283Y924030D01*
X2408479Y922478D01*
X2401864Y918058D01*
X2390702D01*
X2384086Y922478D01*
X2376283Y924030D01*
X2368479Y922478D01*
X2361863Y918058D01*
X2350702D01*
X2344086Y922478D01*
X2336283Y924030D01*
X2329175Y931139D01*
X2327622Y938942D01*
X2323202Y945558D01*
Y956719D01*
X2327622Y963335D01*
X2329175Y971139D01*
X2327622Y978942D01*
X2323202Y985558D01*
Y996720D01*
X2327622Y1003335D01*
X2329175Y1011139D01*
X2327622Y1018942D01*
X2323202Y1025558D01*
Y1036720D01*
X2327622Y1043335D01*
X2329175Y1051139D01*
X2327622Y1058942D01*
X2323202Y1065558D01*
Y1076719D01*
X2327622Y1083335D01*
X2329175Y1091139D01*
X2327622Y1098942D01*
X2323202Y1105558D01*
Y1116720D01*
X2327622Y1123335D01*
X2329175Y1131139D01*
X2327622Y1138942D01*
X2323202Y1145558D01*
Y1156720D01*
X2327622Y1163335D01*
X2329175Y1171139D01*
X2327622Y1178942D01*
X2323202Y1185558D01*
Y1196719D01*
X2327622Y1203335D01*
X2329175Y1211139D01*
X2327622Y1218942D01*
X2323202Y1225558D01*
Y1236719D01*
X2327622Y1243335D01*
X2329175Y1251138D01*
X2327622Y1258942D01*
X2323202Y1265558D01*
Y1276720D01*
X2327622Y1283335D01*
X2329175Y1291139D01*
X2327622Y1298942D01*
X2323202Y1305558D01*
Y1316719D01*
X2327622Y1323335D01*
X2329175Y1331139D01*
X2327622Y1338942D01*
X2323202Y1345558D01*
Y1356719D01*
X2327622Y1363335D01*
X2329175Y1371138D01*
X2327622Y1378942D01*
X2323202Y1385558D01*
Y1396720D01*
X2327622Y1403335D01*
X2329175Y1411139D01*
X2327622Y1418942D01*
X2323202Y1425558D01*
Y1436720D01*
X2327622Y1443335D01*
X2329175Y1451139D01*
X2327622Y1458942D01*
X2323202Y1465558D01*
Y1476719D01*
X2327622Y1483335D01*
X2329175Y1491138D01*
X2327622Y1498942D01*
X2323202Y1505558D01*
Y1516720D01*
X2327622Y1523335D01*
X2329175Y1531139D01*
X2327622Y1538942D01*
X2323202Y1545558D01*
Y1556720D01*
X2327622Y1563335D01*
X2329175Y1571138D01*
X2336283Y1578247D01*
X2344086Y1579799D01*
X2350702Y1584219D01*
X2361864D01*
X2368479Y1579799D01*
X2376283Y1578247D01*
X2384086Y1579799D01*
X2390702Y1584219D01*
X2401864D01*
X2408479Y1579799D01*
X2416283Y1578247D01*
X2424087Y1579799D01*
X2430702Y1584219D01*
X2441864D01*
X2448479Y1579799D01*
X2456283Y1578247D01*
X2464087Y1579799D01*
X2470702Y1584219D01*
X2481864D01*
X2488479Y1579799D01*
X2496283Y1578247D01*
X2504086Y1579799D01*
X2510702Y1584219D01*
X2521864D01*
X2528479Y1579799D01*
X2536283Y1578247D01*
X2544087Y1579799D01*
X2550702Y1584219D01*
X2561864D01*
X2568479Y1579799D01*
X2576283Y1578247D01*
X2584087Y1579799D01*
X2590702Y1584219D01*
X2601864D01*
X2608479Y1579799D01*
X2616283Y1578247D01*
X2624086Y1579799D01*
X2630702Y1584219D01*
X2641864D01*
X2648479Y1579799D01*
X2656283Y1578247D01*
X2664087Y1579799D01*
X2670702Y1584219D01*
X2681864D01*
X2688479Y1579799D01*
X2696283Y1578247D01*
X2704087Y1579799D01*
X2710702Y1584219D01*
X2721864D01*
X2728479Y1579799D01*
X2736283Y1578247D01*
X2744086Y1579799D01*
X2750702Y1584219D01*
X2761864D01*
X2768479Y1579799D01*
X2776283Y1578247D01*
X2784086Y1579799D01*
X2790702Y1584219D01*
X2801864D01*
X2808479Y1579799D01*
X2816283Y1578247D01*
X2824087Y1579799D01*
X2830702Y1584219D01*
X2841864D01*
X2848479Y1579799D01*
X2856283Y1578247D01*
X2864086Y1579799D01*
X2870702Y1584219D01*
X2881864D01*
X2888479Y1579799D01*
X2896283Y1578247D01*
X2904086Y1579799D01*
X2910702Y1584219D01*
X2921864D01*
X2928479Y1579799D01*
X2936283Y1578247D01*
X2944087Y1579799D01*
X2950702Y1584219D01*
X2961864D01*
X2968479Y1579799D01*
X2976283Y1578247D01*
X2983391Y1571138D01*
X2984943Y1563335D01*
X2989364Y1556719D01*
Y1545558D01*
X2984943Y1538942D01*
X2983391Y1531139D01*
X2984943Y1523335D01*
X2989364Y1516719D01*
Y1505558D01*
X2984943Y1498942D01*
X2983391Y1491138D01*
X2984943Y1483335D01*
X2989364Y1476719D01*
Y1465558D01*
X2984943Y1458942D01*
X2983391Y1451139D01*
X2984943Y1443335D01*
X2989364Y1436719D01*
Y1425558D01*
X2984943Y1418942D01*
X2983391Y1411139D01*
X2984943Y1403335D01*
X2989364Y1396719D01*
Y1385558D01*
X2984943Y1378942D01*
X2983391Y1371138D01*
X2984943Y1363335D01*
X2989364Y1356719D01*
Y1345558D01*
X2984943Y1338942D01*
X2983391Y1331139D01*
X2984943Y1323335D01*
X2989364Y1316719D01*
Y1305558D01*
X2984943Y1298942D01*
X2983391Y1291139D01*
X2984943Y1283335D01*
X2989364Y1276719D01*
Y1265558D01*
X2984943Y1258942D01*
X2983391Y1251138D01*
X2984943Y1243335D01*
X2989364Y1236719D01*
X2995979Y1232299D01*
X3003783Y1230747D01*
X3042963D01*
X3043783Y1230584D01*
X3145379D01*
X3145380Y1230583D01*
X3153246Y1232148D01*
X3159914Y1236604D01*
X3175531Y1252220D01*
X3175531Y1252221D01*
X3179987Y1258890D01*
X3181552Y1266755D01*
X3181552Y1266757D01*
Y1287339D01*
X3184464Y1290250D01*
X3184464Y1290251D01*
X3187940Y1295453D01*
X3286991D01*
Y1291139D01*
X3288543Y1283335D01*
X3292963Y1276719D01*
X3299579Y1272299D01*
X3307383Y1270747D01*
X3367382D01*
X3375186Y1272299D01*
X3381802Y1276719D01*
X3386222Y1283335D01*
X3387774Y1291139D01*
Y1371138D01*
X3386222Y1378942D01*
X3381802Y1385558D01*
X3375186Y1389978D01*
X3367382Y1391530D01*
X3307383D01*
X3299579Y1389978D01*
X3292963Y1385558D01*
X3288543Y1378942D01*
X3286991Y1371138D01*
Y1366824D01*
X3181147D01*
X3172274Y1386235D01*
X3174216Y1388178D01*
X3178783Y1399204D01*
Y1411138D01*
X3191765Y1430747D01*
X3398566D01*
X3404290Y1429608D01*
X3404291Y1429608D01*
X3445710D01*
X3451434Y1430747D01*
X3575781D01*
Y1371138D01*
X3577333Y1363335D01*
X3581754Y1356719D01*
X3621753Y1316720D01*
X3621754Y1316719D01*
X3628369Y1312299D01*
X3636173Y1310747D01*
X3678271D01*
Y1291139D01*
X3679823Y1283335D01*
X3684243Y1276719D01*
X3690859Y1272299D01*
X3698662Y1270747D01*
X3708270D01*
Y1119851D01*
X3709823Y1112048D01*
X3714243Y1105432D01*
X3730882Y1088793D01*
X3724455Y1077660D01*
X3718662Y1056042D01*
Y1033661D01*
X3724455Y1012043D01*
X3735645Y992660D01*
X3751471Y976834D01*
X3770854Y965644D01*
X3792472Y959852D01*
X3814853D01*
X3836471Y965644D01*
X3855853Y976834D01*
X3871679Y992660D01*
X3882870Y1012043D01*
X3888662Y1033661D01*
Y1056042D01*
X3882870Y1077660D01*
X3871679Y1097043D01*
X3855853Y1112868D01*
X3836471Y1124059D01*
X3814853Y1129851D01*
X3792472D01*
X3770854Y1124059D01*
X3766181Y1121361D01*
X3749054Y1134083D01*
Y1270747D01*
X3758662D01*
X3766466Y1272299D01*
X3773082Y1276719D01*
X3777502Y1283335D01*
X3779054Y1291139D01*
Y1371138D01*
X3777502Y1378942D01*
X3773082Y1385558D01*
X3766466Y1389978D01*
X3758662Y1391530D01*
X3698662D01*
X3690859Y1389978D01*
X3684243Y1385558D01*
X3679823Y1378942D01*
X3678271Y1371138D01*
Y1351530D01*
X3644620D01*
X3616565Y1379585D01*
Y1430747D01*
X4037807D01*
X4348836Y1119718D01*
X4355451Y1115297D01*
X4363255Y1113745D01*
X4363256Y1113745D01*
X4581152D01*
X4583122Y1093745D01*
X4574884Y1092107D01*
X4563306Y1084371D01*
X4527621Y1048685D01*
X4519885Y1037108D01*
X4517169Y1023452D01*
Y908821D01*
X4510581Y904419D01*
X4506160Y897804D01*
X4504608Y890000D01*
Y810000D01*
X4506160Y802197D01*
X4510581Y795581D01*
X4517169Y791179D01*
Y704158D01*
X4439544D01*
X4417830Y699839D01*
X4399422Y687539D01*
X4387122Y669132D01*
X4382803Y647418D01*
Y608289D01*
X4387122Y586575D01*
X4399422Y568168D01*
X4417830Y555868D01*
X4439544Y551549D01*
X4670456D01*
X4692170Y555868D01*
X4710578Y568168D01*
X4722878Y586575D01*
X4727197Y608289D01*
Y647418D01*
X4722878Y669132D01*
X4710578Y687539D01*
X4692170Y699839D01*
X4670456Y704158D01*
X4588540D01*
Y790312D01*
X4592803Y791160D01*
X4599419Y795581D01*
X4603839Y802197D01*
X4605392Y810000D01*
Y890000D01*
X4603839Y897804D01*
X4599419Y904419D01*
X4592803Y908840D01*
X4588540Y909688D01*
Y1008670D01*
X4603322Y1023452D01*
X4629999D01*
Y1019137D01*
X4784999D01*
Y1084137D01*
X4785000Y1099137D01*
X4784999Y1119137D01*
X4785000Y1164137D01*
X4784999Y1184137D01*
X4785000Y1229137D01*
X4784999Y1249137D01*
X4785000Y1286006D01*
X4804891Y1294399D01*
X4818695Y1280594D01*
Y258160D01*
X4820457Y249303D01*
X4825474Y241794D01*
X4976855Y90413D01*
Y-320000D01*
X4978617Y-328857D01*
X4983634Y-336366D01*
X5293634Y-646366D01*
X5301143Y-651383D01*
X5310000Y-653145D01*
X5499608D01*
Y-680000D01*
X5501160Y-687804D01*
X5505581Y-694419D01*
X5512196Y-698840D01*
X5520000Y-700392D01*
X5580000D01*
X5587804Y-698840D01*
X5594419Y-694419D01*
X5598840Y-687804D01*
X5600392Y-680000D01*
Y-600000D01*
X5598840Y-592196D01*
X5594419Y-585581D01*
X5587804Y-581160D01*
X5580000Y-579608D01*
X5520000D01*
X5512196Y-581160D01*
X5505581Y-585581D01*
X5501160Y-592196D01*
X5499608Y-600000D01*
Y-606855D01*
X5319587D01*
X5023145Y-310413D01*
Y100000D01*
X5021383Y108857D01*
X5016366Y116366D01*
X4864985Y267746D01*
Y1290181D01*
X4863223Y1299038D01*
X4858206Y1306547D01*
X4819249Y1345503D01*
X4811741Y1350521D01*
X4802884Y1352282D01*
X4800089D01*
X4785000Y1364138D01*
X4784999Y1379138D01*
X4785000Y1424138D01*
X4784999Y1444138D01*
X4785000Y1489138D01*
X4784999Y1509138D01*
X4785000Y1554138D01*
X4784999Y1574138D01*
X4785000Y1619138D01*
X4784999Y1639138D01*
X4785000Y1684138D01*
X4784999Y1704138D01*
X4785000Y1749138D01*
X4784999Y1769138D01*
X4785000Y1814138D01*
X4784999Y1834139D01*
X4785000Y1879138D01*
X4784999Y1899139D01*
Y1964138D01*
X4629999D01*
Y1899139D01*
X4629999Y1884138D01*
X4629999Y1864138D01*
X4629999Y1819139D01*
X4629999Y1799138D01*
X4629999Y1754138D01*
X4629999Y1734138D01*
X4629999Y1689138D01*
X4629999Y1669138D01*
X4629999Y1624138D01*
X4629999Y1604138D01*
X4629999Y1559138D01*
X4629999Y1539138D01*
X4629999Y1494138D01*
X4629999Y1474138D01*
X4629999Y1429138D01*
X4616983Y1414530D01*
X4405448D01*
X4131509Y1688468D01*
Y1779911D01*
X4148648Y1797049D01*
X4156952Y1794824D01*
X4179333D01*
X4200951Y1800617D01*
X4220334Y1811807D01*
X4236160Y1827633D01*
X4247350Y1847015D01*
X4253143Y1868634D01*
Y1891015D01*
X4247350Y1912633D01*
X4236160Y1932015D01*
X4220334Y1947841D01*
X4200951Y1959031D01*
X4179333Y1964824D01*
X4156952D01*
X4135334Y1959031D01*
X4115952Y1947841D01*
X4100126Y1932015D01*
X4088935Y1912633D01*
X4083143Y1891015D01*
Y1868634D01*
X4088935Y1847015D01*
X4100126Y1827633D01*
X4110840Y1816919D01*
X4096698Y1802777D01*
X4092278Y1796161D01*
X4090725Y1788357D01*
Y1755383D01*
X4072248Y1747730D01*
X3947204Y1872773D01*
X3940589Y1877194D01*
X3932785Y1878746D01*
X3374359D01*
X3374358Y1878746D01*
X3366554Y1877194D01*
X3359938Y1872773D01*
X3359938Y1872772D01*
X3318101Y1830935D01*
X3297886Y1835996D01*
X3294710Y1838122D01*
Y2227328D01*
X3390178Y2322796D01*
X3393414D01*
X3404440Y2327363D01*
X3406728Y2329651D01*
X3447588D01*
X3491900Y2285339D01*
Y2258095D01*
X3491264Y2257925D01*
X3471882Y2246734D01*
X3456056Y2230908D01*
X3444866Y2211526D01*
X3439073Y2189908D01*
Y2167527D01*
X3444866Y2145909D01*
X3456056Y2126526D01*
X3471882Y2110700D01*
X3491264Y2099510D01*
X3512882Y2093717D01*
X3535263D01*
X3556882Y2099510D01*
X3576264Y2110700D01*
X3592090Y2126526D01*
X3603280Y2145909D01*
X3609073Y2167527D01*
Y2189908D01*
X3603280Y2211526D01*
X3592090Y2230908D01*
X3576264Y2246734D01*
X3556882Y2257925D01*
X3538190Y2262933D01*
Y2294926D01*
X3536428Y2303783D01*
X3531411Y2311292D01*
X3473541Y2369162D01*
X3466032Y2374179D01*
X3457175Y2375941D01*
X3406728D01*
X3404440Y2378229D01*
X3393414Y2382796D01*
D02*
G37*
G36*
X4011499Y1392334D02*
X3999565D01*
X3988538Y1387767D01*
X3980099Y1379327D01*
X3975532Y1368301D01*
Y1362588D01*
X3967228Y1354283D01*
X3929054D01*
Y1371138D01*
X3927502Y1378942D01*
X3923082Y1385558D01*
X3916466Y1389978D01*
X3908662Y1391530D01*
X3848662D01*
X3840859Y1389978D01*
X3834243Y1385558D01*
X3829823Y1378942D01*
X3828270Y1371138D01*
Y1291139D01*
X3829823Y1283335D01*
X3834243Y1276719D01*
X3840859Y1272299D01*
X3848662Y1270747D01*
X3908662D01*
X3916466Y1272299D01*
X3923082Y1276719D01*
X3927502Y1283335D01*
X3929054Y1291139D01*
Y1307994D01*
X3976815D01*
X3985672Y1309756D01*
X3993180Y1314773D01*
X4010742Y1332334D01*
X4011499D01*
X4022526Y1336901D01*
X4030965Y1345340D01*
X4035532Y1356366D01*
Y1368301D01*
X4030965Y1379327D01*
X4022526Y1387767D01*
X4011499Y1392334D01*
D02*
G37*
G36*
X3371975Y1210010D02*
X3358318Y1207293D01*
X3347124Y1199814D01*
X3238030D01*
X3227141Y1204324D01*
X3215206D01*
X3204180Y1199757D01*
X3196277Y1191854D01*
X3114703D01*
X3114701Y1191854D01*
X3113896Y1191694D01*
X3043783D01*
X3042963Y1191531D01*
X3003783D01*
X2995979Y1189978D01*
X2989364Y1185558D01*
X2984943Y1178942D01*
X2983391Y1171139D01*
X2984943Y1163335D01*
X2989364Y1156719D01*
Y1145558D01*
X2984943Y1138942D01*
X2983391Y1131139D01*
X2984943Y1123335D01*
X2989364Y1116719D01*
Y1105558D01*
X2984943Y1098942D01*
X2983391Y1091139D01*
X2984943Y1083335D01*
X2989364Y1076719D01*
Y1065558D01*
X2984943Y1058942D01*
X2983391Y1051139D01*
X2984943Y1043335D01*
X2989364Y1036719D01*
Y1025558D01*
X2984943Y1018942D01*
X2983391Y1011139D01*
X2984943Y1003335D01*
X2989364Y996719D01*
Y985558D01*
X2984943Y978942D01*
X2983391Y971139D01*
X2984943Y963335D01*
X2989364Y956719D01*
Y945558D01*
X2984943Y938942D01*
X2983391Y931139D01*
X2976283Y924030D01*
X2968479Y922478D01*
X2961864Y918058D01*
X2950702D01*
X2944087Y922478D01*
X2936283Y924030D01*
X2928479Y922478D01*
X2921864Y918058D01*
X2917443Y911442D01*
X2915891Y903639D01*
Y864460D01*
X2915728Y863639D01*
X2915888Y862833D01*
Y785133D01*
X2913278Y782522D01*
X2908710Y771496D01*
Y759561D01*
X2913278Y748535D01*
X2921717Y740096D01*
X2932743Y735529D01*
X2944678D01*
X2955704Y740096D01*
X2964143Y748535D01*
X2986970Y751382D01*
X3069345Y669008D01*
X3069345Y669007D01*
X3076014Y664551D01*
X3083880Y662986D01*
X3147520D01*
Y647542D01*
X3151958Y636827D01*
X3162673Y632388D01*
X3200618D01*
Y564580D01*
X3191173D01*
X3183370Y563028D01*
X3176754Y558607D01*
X3172334Y551992D01*
X3170782Y544188D01*
Y464188D01*
X3172334Y456385D01*
X3176754Y449769D01*
X3183370Y445349D01*
X3191173Y443796D01*
X3251173D01*
X3258977Y445349D01*
X3265593Y449769D01*
X3270013Y456385D01*
X3271565Y464188D01*
Y544188D01*
X3270013Y551992D01*
X3265593Y558607D01*
X3258977Y563028D01*
X3251173Y564580D01*
X3241728D01*
Y632388D01*
X3244673D01*
X3255388Y636827D01*
X3259827Y647542D01*
Y719541D01*
X3255388Y730256D01*
X3244673Y734695D01*
X3162673D01*
X3151958Y730256D01*
X3147520Y719541D01*
Y704096D01*
X3092394D01*
X2996838Y799653D01*
Y863639D01*
X2996675Y864459D01*
Y891769D01*
X3001846Y905575D01*
X3015653Y910747D01*
X3042963D01*
X3043783Y910584D01*
X3272659D01*
X3281443Y901800D01*
X3281639Y901507D01*
X3332520Y850626D01*
Y792541D01*
X3336958Y781826D01*
X3347673Y777388D01*
X3429673D01*
X3440388Y781826D01*
X3444826Y792541D01*
Y803582D01*
X3535781D01*
Y794137D01*
X3537334Y786333D01*
X3541754Y779718D01*
X3548370Y775297D01*
X3556173Y773745D01*
X3636173D01*
X3643977Y775297D01*
X3650592Y779718D01*
X3655013Y786333D01*
X3656565Y794137D01*
Y854137D01*
X3655013Y861941D01*
X3650592Y868556D01*
X3643977Y872977D01*
X3636173Y874529D01*
X3556173D01*
X3548370Y872977D01*
X3541754Y868556D01*
X3537334Y861941D01*
X3535781Y854137D01*
Y844692D01*
X3444826D01*
Y864541D01*
X3440388Y875256D01*
X3429673Y879695D01*
X3361589D01*
X3310903Y930381D01*
X3310708Y930673D01*
X3310707Y930674D01*
X3295708Y945673D01*
X3289039Y950129D01*
X3281173Y951694D01*
X3281172Y951694D01*
X3118898D01*
X3115415Y954185D01*
X3104175Y971139D01*
X3102622Y978942D01*
X3098202Y985558D01*
Y996720D01*
X3102622Y1003335D01*
X3104175Y1011138D01*
X3116200Y1024769D01*
X3137236Y1025528D01*
X3162161Y1000604D01*
Y997368D01*
X3166728Y986341D01*
X3175167Y977902D01*
X3186193Y973335D01*
X3198128D01*
X3209154Y977902D01*
X3217594Y986341D01*
X3221977Y996924D01*
X3222632Y997586D01*
X3242161Y1006661D01*
X3247785Y1003622D01*
X3250926Y996038D01*
X3259366Y987599D01*
X3270392Y983032D01*
X3282327D01*
X3293353Y987599D01*
X3301792Y996038D01*
X3306359Y1007064D01*
Y1018999D01*
X3301792Y1030025D01*
X3293353Y1038465D01*
X3288637Y1040418D01*
X3283615Y1048682D01*
X3283465Y1050958D01*
X3290687Y1071611D01*
X3293353Y1072715D01*
X3301792Y1081154D01*
X3306359Y1092180D01*
Y1104115D01*
X3301792Y1115142D01*
X3293353Y1123581D01*
X3289542Y1125159D01*
X3287358Y1128834D01*
X3298738Y1148834D01*
X3346997D01*
X3347933Y1147898D01*
X3359510Y1140163D01*
X3365873Y1138897D01*
Y1108132D01*
X3367425Y1100328D01*
X3371845Y1093713D01*
X3378461Y1089292D01*
X3386265Y1087740D01*
X3446264D01*
X3454068Y1089292D01*
X3460684Y1093713D01*
X3465104Y1100328D01*
X3466656Y1108132D01*
Y1188132D01*
X3465104Y1195935D01*
X3460684Y1202551D01*
X3454068Y1206971D01*
X3446264Y1208524D01*
X3402743D01*
X3401264Y1208818D01*
X3377967D01*
X3371975Y1210010D01*
D02*
G37*
G36*
X952205Y1086139D02*
X940270D01*
X929244Y1081571D01*
X924366Y1076694D01*
X919252D01*
X919251Y1076694D01*
X911385Y1075129D01*
X904716Y1070673D01*
X904715Y1070672D01*
X799172Y965129D01*
X794716Y958460D01*
X793151Y950594D01*
X793151Y950593D01*
Y889653D01*
X604741Y701243D01*
X560806D01*
Y714313D01*
X559419Y721288D01*
X555468Y727200D01*
X549555Y731151D01*
X542581Y732538D01*
X495331D01*
X488357Y731151D01*
X482444Y727200D01*
X478493Y721288D01*
X477106Y714313D01*
Y647063D01*
X478493Y640088D01*
X482444Y634176D01*
X488357Y630225D01*
X495331Y628838D01*
X542581D01*
X549555Y630225D01*
X555468Y634176D01*
X559419Y640088D01*
X560806Y647063D01*
Y660133D01*
X613254D01*
X613256Y660133D01*
X621122Y661698D01*
X627790Y666153D01*
X774674Y813037D01*
X793151Y805383D01*
Y464580D01*
X777212D01*
X769409Y463028D01*
X762793Y458608D01*
X758373Y451992D01*
X756820Y444188D01*
Y384188D01*
X758373Y376385D01*
X762793Y369769D01*
X769409Y365349D01*
X777212Y363797D01*
X857212D01*
X865016Y365349D01*
X871631Y369769D01*
X876052Y376385D01*
X877604Y384188D01*
Y444188D01*
X876052Y451992D01*
X871631Y458608D01*
X865016Y463028D01*
X857212Y464580D01*
X834261D01*
Y881139D01*
Y942080D01*
X926065Y1033884D01*
X929244Y1030706D01*
X940270Y1026139D01*
X952205D01*
X963231Y1030706D01*
X971670Y1039145D01*
X976237Y1050171D01*
Y1062106D01*
X971670Y1073132D01*
X963231Y1081571D01*
X952205Y1086139D01*
D02*
G37*
G36*
X1822412Y976530D02*
X1762413D01*
X1754609Y974978D01*
X1747993Y970558D01*
X1743573Y963942D01*
X1742021Y956138D01*
Y951727D01*
X1693371D01*
X1679715Y949011D01*
X1668137Y941275D01*
X1660402Y929698D01*
X1657685Y916041D01*
X1660402Y902385D01*
X1668137Y890808D01*
X1679715Y883072D01*
X1693371Y880356D01*
X1742021D01*
Y876138D01*
X1743573Y868335D01*
X1747993Y861719D01*
X1754609Y857299D01*
X1762413Y855747D01*
X1822412D01*
X1830216Y857299D01*
X1836832Y861719D01*
X1841252Y868335D01*
X1842804Y876138D01*
Y956138D01*
X1841252Y963942D01*
X1836832Y970558D01*
X1830216Y974978D01*
X1822412Y976530D01*
D02*
G37*
G36*
X1577749Y792288D02*
X1548364D01*
X1519981Y784682D01*
X1494533Y769990D01*
X1473754Y749212D01*
X1459062Y723764D01*
X1451457Y695380D01*
Y665996D01*
X1459062Y637612D01*
X1473754Y612164D01*
X1494533Y591386D01*
X1519981Y576694D01*
X1548364Y569088D01*
X1577749D01*
X1606132Y576694D01*
X1631580Y591386D01*
X1652359Y612164D01*
X1667051Y637612D01*
X1674657Y665996D01*
Y695380D01*
X1667051Y723764D01*
X1652359Y749212D01*
X1631580Y769990D01*
X1606132Y784682D01*
X1577749Y792288D01*
D02*
G37*
G36*
X1323749D02*
X1294364D01*
X1265981Y784682D01*
X1240533Y769990D01*
X1219754Y749212D01*
X1205062Y723764D01*
X1197457Y695380D01*
Y665996D01*
X1205062Y637612D01*
X1219754Y612164D01*
X1240533Y591386D01*
X1265981Y576694D01*
X1294364Y569088D01*
X1323749D01*
X1352132Y576694D01*
X1377580Y591386D01*
X1398359Y612164D01*
X1413051Y637612D01*
X1420657Y665996D01*
Y695380D01*
X1413051Y723764D01*
X1398359Y749212D01*
X1377580Y769990D01*
X1352132Y784682D01*
X1323749Y792288D01*
D02*
G37*
G36*
X1958295Y785737D02*
X1735095D01*
Y562537D01*
X1958295D01*
Y785737D01*
D02*
G37*
G36*
X1166657Y792288D02*
X943457D01*
Y569088D01*
X1034502D01*
Y504945D01*
X1034501Y504944D01*
X1036066Y497078D01*
X1040522Y490409D01*
X1105465Y425466D01*
X1105466Y425465D01*
X1112134Y421010D01*
X1120001Y419445D01*
X2398129D01*
X2403006Y414567D01*
X2414033Y410000D01*
X2425967D01*
X2436994Y414567D01*
X2445433Y423006D01*
X2450000Y434032D01*
Y445967D01*
X2445433Y456993D01*
X2436994Y465433D01*
X2425967Y470000D01*
X2414033D01*
X2403006Y465433D01*
X2398129Y460555D01*
X1128515D01*
X1075612Y513458D01*
Y569088D01*
X1166657D01*
Y792288D01*
D02*
G37*
G36*
X3979124Y350901D02*
X3967189D01*
X3956163Y346334D01*
X3947724Y337895D01*
X3943156Y326869D01*
Y314934D01*
X3947724Y303908D01*
X3952601Y299030D01*
Y215229D01*
X3933156D01*
X3925353Y213677D01*
X3918737Y209257D01*
X3914317Y202641D01*
X3912765Y194837D01*
Y134837D01*
X3914317Y127034D01*
X3918737Y120418D01*
X3925353Y115998D01*
X3933156Y114446D01*
X3973139D01*
X3973156Y114442D01*
X3973174Y114446D01*
X4013156D01*
X4020960Y115998D01*
X4027576Y120418D01*
X4031996Y127034D01*
X4033548Y134837D01*
Y194837D01*
X4031996Y202641D01*
X4027576Y209257D01*
X4020960Y213677D01*
X4013156Y215229D01*
X3993711D01*
Y299030D01*
X3998589Y303908D01*
X4003156Y314934D01*
Y326869D01*
X3998589Y337895D01*
X3990150Y346334D01*
X3979124Y350901D01*
D02*
G37*
G36*
X3602141Y328036D02*
X3590206D01*
X3579180Y323469D01*
X3570740Y315030D01*
X3566173Y304003D01*
Y292069D01*
X3570740Y281042D01*
X3575618Y276165D01*
Y198975D01*
X3556173D01*
X3548370Y197423D01*
X3541754Y193002D01*
X3537334Y186387D01*
X3535781Y178583D01*
Y118583D01*
X3537334Y110780D01*
X3541754Y104164D01*
X3548370Y99744D01*
X3556173Y98191D01*
X3636173D01*
X3643977Y99744D01*
X3650592Y104164D01*
X3655013Y110780D01*
X3656565Y118583D01*
Y178583D01*
X3655013Y186387D01*
X3650592Y193002D01*
X3643977Y197423D01*
X3636173Y198975D01*
X3616728D01*
Y276165D01*
X3621606Y281042D01*
X3626173Y292069D01*
Y304003D01*
X3621606Y315030D01*
X3613167Y323469D01*
X3602141Y328036D01*
D02*
G37*
G36*
X3205814Y317386D02*
X3193879D01*
X3182853Y312819D01*
X3174414Y304380D01*
X3169847Y293353D01*
Y281419D01*
X3174414Y270392D01*
X3176702Y268104D01*
Y195229D01*
X3164251D01*
X3156447Y193677D01*
X3149832Y189257D01*
X3145411Y182641D01*
X3143859Y174837D01*
Y114837D01*
X3145411Y107034D01*
X3149832Y100418D01*
X3156447Y95998D01*
X3164251Y94446D01*
X3244251D01*
X3252054Y95998D01*
X3258670Y100418D01*
X3263091Y107034D01*
X3264643Y114837D01*
Y174837D01*
X3263091Y182641D01*
X3258670Y189257D01*
X3252054Y193677D01*
X3244251Y195229D01*
X3222991D01*
Y268104D01*
X3225279Y270392D01*
X3229846Y281419D01*
Y293353D01*
X3225279Y304380D01*
X3216840Y312819D01*
X3205814Y317386D01*
D02*
G37*
G36*
X1966186Y137854D02*
X1742986D01*
Y-85346D01*
X1966186D01*
Y137854D01*
D02*
G37*
G36*
X1569082D02*
X1539698D01*
X1511314Y130249D01*
X1485866Y115556D01*
X1465088Y94778D01*
X1450396Y69330D01*
X1442790Y40947D01*
Y11562D01*
X1450396Y-16822D01*
X1465088Y-42270D01*
X1485866Y-63048D01*
X1511314Y-77740D01*
X1539698Y-85346D01*
X1569082D01*
X1597466Y-77740D01*
X1622914Y-63048D01*
X1643692Y-42270D01*
X1658385Y-16822D01*
X1665990Y11562D01*
Y40947D01*
X1658385Y69330D01*
X1643692Y94778D01*
X1622914Y115556D01*
X1597466Y130249D01*
X1569082Y137854D01*
D02*
G37*
G36*
X1315082D02*
X1285698D01*
X1257314Y130249D01*
X1231866Y115556D01*
X1211088Y94778D01*
X1196396Y69330D01*
X1188790Y40947D01*
Y11562D01*
X1196396Y-16822D01*
X1211088Y-42270D01*
X1231866Y-63048D01*
X1257314Y-77740D01*
X1285698Y-85346D01*
X1315082D01*
X1343466Y-77740D01*
X1368914Y-63048D01*
X1389692Y-42270D01*
X1404385Y-16822D01*
X1411990Y11562D01*
Y40947D01*
X1404385Y69330D01*
X1389692Y94778D01*
X1368914Y115556D01*
X1343466Y130249D01*
X1315082Y137854D01*
D02*
G37*
G36*
X1157990D02*
X934790D01*
Y-85346D01*
X1157990D01*
Y137854D01*
D02*
G37*
G36*
X4555000Y35158D02*
X4533303Y30842D01*
X4514910Y18552D01*
X4502620Y158D01*
X4498304Y-21538D01*
Y-60755D01*
X4502620Y-82451D01*
X4514910Y-100845D01*
X4533303Y-113135D01*
X4555000Y-117451D01*
X4576697Y-113135D01*
X4595090Y-100845D01*
X4607380Y-82451D01*
X4611696Y-60755D01*
Y-21538D01*
X4607380Y158D01*
X4595090Y18552D01*
X4576697Y30842D01*
X4555000Y35158D01*
D02*
G37*
G36*
X4013156Y65229D02*
X3933156D01*
X3925353Y63677D01*
X3918737Y59257D01*
X3914317Y52641D01*
X3912765Y44837D01*
Y-15163D01*
X3914317Y-22966D01*
X3918737Y-29582D01*
X3925353Y-34002D01*
X3933156Y-35554D01*
X3937471D01*
Y-133354D01*
X3933156D01*
X3925353Y-134906D01*
X3918737Y-139327D01*
X3914317Y-145942D01*
X3912765Y-153746D01*
Y-213746D01*
X3914317Y-221549D01*
X3918737Y-228165D01*
X3925353Y-232586D01*
X3933156Y-234138D01*
X4013156D01*
X4020960Y-232586D01*
X4027576Y-228165D01*
X4031996Y-221549D01*
X4033548Y-213746D01*
Y-153746D01*
X4031996Y-145942D01*
X4027576Y-139327D01*
X4020960Y-134906D01*
X4013156Y-133354D01*
X4008842D01*
Y-35554D01*
X4013156D01*
X4020960Y-34002D01*
X4027576Y-29582D01*
X4031996Y-22966D01*
X4033548Y-15163D01*
Y44837D01*
X4031996Y52641D01*
X4027576Y59257D01*
X4020960Y63677D01*
X4013156Y65229D01*
D02*
G37*
G36*
X3636173Y48975D02*
X3556173D01*
X3548370Y47423D01*
X3541754Y43002D01*
X3537334Y36387D01*
X3535781Y28583D01*
Y-31417D01*
X3537334Y-39220D01*
X3541754Y-45836D01*
X3548370Y-50256D01*
X3556173Y-51809D01*
X3560487D01*
Y-144917D01*
X3556173D01*
X3548370Y-146469D01*
X3541754Y-150889D01*
X3537334Y-157505D01*
X3535781Y-165309D01*
Y-225308D01*
X3537334Y-233112D01*
X3541754Y-239728D01*
X3548370Y-244148D01*
X3556173Y-245700D01*
X3636173D01*
X3643977Y-244148D01*
X3650592Y-239728D01*
X3655013Y-233112D01*
X3656565Y-225308D01*
Y-165309D01*
X3655013Y-157505D01*
X3650592Y-150889D01*
X3643977Y-146469D01*
X3636173Y-144917D01*
X3631859D01*
Y-51809D01*
X3636173D01*
X3643977Y-50256D01*
X3650592Y-45836D01*
X3655013Y-39220D01*
X3656565Y-31417D01*
Y28583D01*
X3655013Y36387D01*
X3650592Y43002D01*
X3643977Y47423D01*
X3636173Y48975D01*
D02*
G37*
G36*
X3244251Y45229D02*
X3164251D01*
X3156447Y43677D01*
X3149832Y39257D01*
X3145411Y32641D01*
X3143859Y24837D01*
Y-35162D01*
X3145411Y-42966D01*
X3149832Y-49582D01*
X3156447Y-54002D01*
X3164251Y-55554D01*
X3166363D01*
Y-148662D01*
X3159847D01*
X3152043Y-150215D01*
X3145427Y-154635D01*
X3141007Y-161251D01*
X3139455Y-169054D01*
Y-229054D01*
X3141007Y-236858D01*
X3145427Y-243473D01*
X3152043Y-247894D01*
X3159847Y-249446D01*
X3239846D01*
X3247650Y-247894D01*
X3254266Y-243473D01*
X3258686Y-236858D01*
X3260238Y-229054D01*
Y-169054D01*
X3258686Y-161251D01*
X3254266Y-154635D01*
X3247650Y-150215D01*
X3239846Y-148662D01*
X3237734D01*
Y-55554D01*
X3244251D01*
X3252054Y-54002D01*
X3258670Y-49582D01*
X3263091Y-42966D01*
X3264643Y-35162D01*
Y24837D01*
X3263091Y32641D01*
X3258670Y39257D01*
X3252054Y43677D01*
X3244251Y45229D01*
D02*
G37*
G36*
X2856283Y429700D02*
X2845582Y427572D01*
X2844335Y426739D01*
X2831283D01*
Y413686D01*
X2830450Y412439D01*
X2828321Y401739D01*
Y-33244D01*
X2807654D01*
X2799850Y-34796D01*
X2793234Y-39217D01*
X2788814Y-45833D01*
X2787262Y-53636D01*
Y-133636D01*
X2788814Y-141440D01*
X2793234Y-148055D01*
X2799850Y-152476D01*
X2807654Y-154028D01*
X2814694D01*
Y-228223D01*
X2802656D01*
X2794852Y-229776D01*
X2788236Y-234196D01*
X2783816Y-240812D01*
X2782264Y-248615D01*
Y-308615D01*
X2783816Y-316419D01*
X2788236Y-323034D01*
X2794852Y-327455D01*
X2802656Y-329007D01*
X2882656D01*
X2890459Y-327455D01*
X2897075Y-323034D01*
X2901495Y-316419D01*
X2903048Y-308615D01*
Y-248615D01*
X2901495Y-240812D01*
X2897075Y-234196D01*
X2890459Y-229776D01*
X2882656Y-228223D01*
X2870617D01*
Y-153438D01*
X2875457Y-152476D01*
X2882073Y-148055D01*
X2886493Y-141440D01*
X2888045Y-133636D01*
Y-53636D01*
X2886493Y-45833D01*
X2884244Y-42467D01*
Y401739D01*
X2882116Y412439D01*
X2881283Y413686D01*
Y426739D01*
X2868230D01*
X2866983Y427572D01*
X2856283Y429700D01*
D02*
G37*
G36*
X4677957Y280000D02*
X4662044D01*
X4647342Y273910D01*
X4636090Y262658D01*
X4630000Y247957D01*
Y232043D01*
X4636090Y217342D01*
X4647342Y206090D01*
X4657757Y201776D01*
X4748314Y111218D01*
Y21495D01*
X4743910Y18552D01*
X4731620Y158D01*
X4727304Y-21538D01*
Y-60755D01*
X4731620Y-82451D01*
X4743910Y-100845D01*
X4756200Y-109057D01*
Y-111886D01*
X4758917Y-125542D01*
X4766652Y-137120D01*
X4814314Y-184781D01*
Y-209608D01*
X4805000D01*
X4797196Y-211160D01*
X4790580Y-215581D01*
X4786160Y-222196D01*
X4784608Y-230000D01*
Y-310000D01*
X4786160Y-317804D01*
X4790580Y-324419D01*
X4797196Y-328840D01*
X4805000Y-330392D01*
X4865000D01*
X4872803Y-328840D01*
X4879419Y-324419D01*
X4883839Y-317804D01*
X4885392Y-310000D01*
Y-256478D01*
X4885686Y-255000D01*
Y-170000D01*
X4882969Y-156344D01*
X4875234Y-144766D01*
X4827572Y-97104D01*
Y-95634D01*
X4836380Y-82451D01*
X4840696Y-60755D01*
Y-21538D01*
X4836380Y158D01*
X4824090Y18552D01*
X4819686Y21495D01*
Y126000D01*
X4816969Y139656D01*
X4809234Y151234D01*
X4708225Y252243D01*
X4703910Y262658D01*
X4692658Y273910D01*
X4677957Y280000D01*
D02*
G37*
G36*
X2063387Y-498406D02*
X2034003D01*
X2005619Y-506012D01*
X1980171Y-520704D01*
X1959393Y-541482D01*
X1944700Y-566930D01*
X1937095Y-595314D01*
Y-624699D01*
X1944700Y-653082D01*
X1959393Y-678530D01*
X1980171Y-699308D01*
X2005619Y-714001D01*
X2034003Y-721606D01*
X2063387D01*
X2091771Y-714001D01*
X2117219Y-699308D01*
X2137997Y-678530D01*
X2152689Y-653082D01*
X2160295Y-624699D01*
Y-595314D01*
X2152689Y-566930D01*
X2137997Y-541482D01*
X2117219Y-520704D01*
X2091771Y-506012D01*
X2063387Y-498406D01*
D02*
G37*
G36*
X1809387D02*
X1780003D01*
X1751619Y-506012D01*
X1726171Y-520704D01*
X1705393Y-541482D01*
X1690700Y-566930D01*
X1683095Y-595314D01*
Y-624699D01*
X1690700Y-653082D01*
X1705393Y-678530D01*
X1726171Y-699308D01*
X1751619Y-714001D01*
X1780003Y-721606D01*
X1809387D01*
X1837771Y-714001D01*
X1863219Y-699308D01*
X1883997Y-678530D01*
X1898689Y-653082D01*
X1906295Y-624699D01*
Y-595314D01*
X1898689Y-566930D01*
X1883997Y-541482D01*
X1863219Y-520704D01*
X1837771Y-506012D01*
X1809387Y-498406D01*
D02*
G37*
G36*
X1555387D02*
X1526003D01*
X1497619Y-506012D01*
X1472171Y-520704D01*
X1451393Y-541482D01*
X1436700Y-566930D01*
X1429095Y-595314D01*
Y-624699D01*
X1436700Y-653082D01*
X1451393Y-678530D01*
X1472171Y-699308D01*
X1497619Y-714001D01*
X1526003Y-721606D01*
X1555387D01*
X1583771Y-714001D01*
X1609219Y-699308D01*
X1629997Y-678530D01*
X1644689Y-653082D01*
X1652295Y-624699D01*
Y-595314D01*
X1644689Y-566930D01*
X1629997Y-541482D01*
X1609219Y-520704D01*
X1583771Y-506012D01*
X1555387Y-498406D01*
D02*
G37*
G36*
X1301387D02*
X1272003D01*
X1243619Y-506012D01*
X1218171Y-520704D01*
X1197393Y-541482D01*
X1182700Y-566930D01*
X1175095Y-595314D01*
Y-624699D01*
X1182700Y-653082D01*
X1197393Y-678530D01*
X1218171Y-699308D01*
X1243619Y-714001D01*
X1272003Y-721606D01*
X1301387D01*
X1329771Y-714001D01*
X1355219Y-699308D01*
X1375997Y-678530D01*
X1390689Y-653082D01*
X1398295Y-624699D01*
Y-595314D01*
X1390689Y-566930D01*
X1375997Y-541482D01*
X1355219Y-520704D01*
X1329771Y-506012D01*
X1301387Y-498406D01*
D02*
G37*
G36*
X1144295D02*
X921095D01*
Y-721606D01*
X1144295D01*
Y-498406D01*
D02*
G37*
%LPD*%
G36*
X4096697Y1665603D02*
X4096698Y1665602D01*
X4382581Y1379719D01*
X4382582Y1379718D01*
X4389197Y1375298D01*
X4397001Y1373746D01*
X4397002Y1373746D01*
X4616983D01*
X4629999Y1359137D01*
X4629999Y1344138D01*
X4629999Y1299138D01*
X4629999Y1279137D01*
X4629999Y1234137D01*
X4616983Y1219529D01*
X4419960D01*
X4093932Y1545558D01*
X4087316Y1549978D01*
X4079513Y1551531D01*
X3628432D01*
X3621480Y1571531D01*
X3658196Y1608246D01*
X3677890D01*
X3680581Y1604219D01*
X3687197Y1599799D01*
X3695000Y1598247D01*
X3755000D01*
X3762804Y1599799D01*
X3769419Y1604219D01*
X3773840Y1610835D01*
X3775392Y1618639D01*
Y1698638D01*
X3773840Y1706442D01*
X3769419Y1713058D01*
X3762804Y1717478D01*
X3755000Y1719030D01*
X3695000D01*
X3687197Y1717478D01*
X3680581Y1713058D01*
X3676161Y1706442D01*
X3674608Y1698638D01*
Y1649030D01*
X3649750D01*
X3641946Y1647478D01*
X3635330Y1643058D01*
X3635330Y1643057D01*
X3581754Y1589481D01*
X3577333Y1582866D01*
X3575781Y1575062D01*
Y1551531D01*
X3435676D01*
X3428023Y1570008D01*
X3469031Y1611017D01*
X3480074Y1608058D01*
X3502455D01*
X3524073Y1613850D01*
X3543455Y1625041D01*
X3559281Y1640867D01*
X3570472Y1660249D01*
X3576264Y1681867D01*
Y1704248D01*
X3570472Y1725867D01*
X3559281Y1745249D01*
X3543455Y1761075D01*
X3524073Y1772265D01*
X3502455Y1778058D01*
X3480074D01*
X3458456Y1772265D01*
X3439073Y1761075D01*
X3423247Y1745249D01*
X3412057Y1725867D01*
X3406264Y1704248D01*
Y1681867D01*
X3412057Y1660249D01*
X3423247Y1640867D01*
X3432226Y1631889D01*
X3360337Y1560000D01*
X3352043D01*
X3337342Y1553910D01*
X3326090Y1542658D01*
X3320000Y1527957D01*
Y1512043D01*
X3326090Y1497342D01*
X3331901Y1491530D01*
X3324207Y1471530D01*
X3200445D01*
X3192161Y1491530D01*
X3346938Y1646308D01*
X3346939Y1646309D01*
X3351360Y1652925D01*
X3352912Y1660728D01*
Y1808069D01*
X3382804Y1837962D01*
X3924338D01*
X4096697Y1665603D01*
D02*
G37*
G36*
X4397094Y1184719D02*
X4397095Y1184718D01*
X4403710Y1180298D01*
X4411514Y1178745D01*
X4604562D01*
X4611672Y1166637D01*
X4604562Y1154529D01*
X4371702D01*
X4060673Y1465558D01*
X4054057Y1469978D01*
X4046254Y1471530D01*
X3446850D01*
X3446849Y1471531D01*
X3441125Y1470392D01*
X3408875D01*
X3403151Y1471530D01*
X3395793D01*
X3388099Y1491530D01*
X3393910Y1497342D01*
X3399463Y1510747D01*
X4071066D01*
X4397094Y1184719D01*
D02*
G37*
%LPC*%
G36*
X3905000Y1719030D02*
X3845000D01*
X3837197Y1717478D01*
X3830581Y1713058D01*
X3826160Y1706442D01*
X3824608Y1698638D01*
Y1618639D01*
X3826160Y1610835D01*
X3830581Y1604219D01*
X3837197Y1599799D01*
X3845000Y1598247D01*
X3905000D01*
X3912804Y1599799D01*
X3919419Y1604219D01*
X3923840Y1610835D01*
X3925392Y1618639D01*
Y1635494D01*
X3981014D01*
Y1634898D01*
X3985582Y1623872D01*
X3994021Y1615432D01*
X4005047Y1610865D01*
X4016982D01*
X4028008Y1615432D01*
X4036447Y1623872D01*
X4041014Y1634898D01*
Y1646833D01*
X4036447Y1657859D01*
X4028008Y1666298D01*
X4016982Y1670865D01*
X4013746D01*
X4009607Y1675004D01*
X4002098Y1680022D01*
X3993241Y1681783D01*
X3925392D01*
Y1698638D01*
X3923840Y1706442D01*
X3919419Y1713058D01*
X3912804Y1717478D01*
X3905000Y1719030D01*
D02*
G37*
G36*
X4949480Y5028371D02*
X4927099D01*
X4905481Y5022578D01*
X4886099Y5011388D01*
X4870273Y4995562D01*
X4859082Y4976180D01*
X4853290Y4954562D01*
Y4932181D01*
X4859082Y4910562D01*
X4870273Y4891180D01*
X4886099Y4875354D01*
X4905481Y4864164D01*
X4927099Y4858371D01*
X4949480D01*
X4971099Y4864164D01*
X4990481Y4875354D01*
X5006307Y4891180D01*
X5017497Y4910562D01*
X5023290Y4932181D01*
Y4954562D01*
X5017497Y4976180D01*
X5006307Y4995562D01*
X4990481Y5011388D01*
X4971099Y5022578D01*
X4949480Y5028371D01*
D02*
G37*
G36*
X9315967Y3080000D02*
X9304032D01*
X9293006Y3075433D01*
X9284567Y3066994D01*
X9280000Y3055967D01*
Y3044033D01*
X9284567Y3033006D01*
X9293006Y3024567D01*
X9304032Y3020000D01*
X9315967D01*
X9326994Y3024567D01*
X9335433Y3033006D01*
X9340000Y3044033D01*
Y3055967D01*
X9335433Y3066994D01*
X9326994Y3075433D01*
X9315967Y3080000D01*
D02*
G37*
G36*
X6951095Y2870000D02*
X6928714D01*
X6907095Y2864207D01*
X6887713Y2853017D01*
X6871887Y2837191D01*
X6860697Y2817808D01*
X6854904Y2796190D01*
Y2773809D01*
X6860697Y2752191D01*
X6871887Y2732809D01*
X6887713Y2716983D01*
X6907095Y2705792D01*
X6928714Y2700000D01*
X6951095D01*
X6972713Y2705792D01*
X6992095Y2716983D01*
X7007921Y2732809D01*
X7019111Y2752191D01*
X7024904Y2773809D01*
Y2796190D01*
X7019111Y2817808D01*
X7007921Y2837191D01*
X6992095Y2853017D01*
X6972713Y2864207D01*
X6951095Y2870000D01*
D02*
G37*
G36*
X10310000Y2429992D02*
X10150000D01*
Y2269992D01*
X10310000D01*
Y2429992D01*
D02*
G37*
G36*
X7988000D02*
X7828001D01*
Y2269992D01*
X7988000D01*
Y2429992D01*
D02*
G37*
G36*
X6425000Y2535686D02*
X6411344Y2532969D01*
X6399766Y2525233D01*
X6392031Y2513656D01*
X6389314Y2500000D01*
Y2270000D01*
X6392031Y2256344D01*
X6399766Y2244766D01*
X6411344Y2237031D01*
X6425000Y2234314D01*
X6438656Y2237031D01*
X6450234Y2244766D01*
X6457969Y2256344D01*
X6460686Y2270000D01*
Y2500000D01*
X6457969Y2513656D01*
X6450234Y2525233D01*
X6438656Y2532969D01*
X6425000Y2535686D01*
D02*
G37*
G36*
X6954596Y1467129D02*
X6925212D01*
X6896828Y1459523D01*
X6871380Y1444831D01*
X6850602Y1424053D01*
X6835910Y1398605D01*
X6828304Y1370221D01*
Y1340837D01*
X6835910Y1312453D01*
X6850602Y1287005D01*
X6871380Y1266227D01*
X6896828Y1251534D01*
X6925212Y1243929D01*
X6954596D01*
X6982980Y1251534D01*
X7008428Y1266227D01*
X7029206Y1287005D01*
X7043899Y1312453D01*
X7044113Y1313254D01*
X7108365D01*
Y1289852D01*
X7110500Y1279122D01*
X7116578Y1270025D01*
X7125674Y1263947D01*
X7136404Y1261813D01*
X7271404D01*
X7282134Y1263947D01*
X7291230Y1270025D01*
X7297308Y1279122D01*
X7299442Y1289852D01*
Y1394851D01*
X7297308Y1405581D01*
X7291230Y1414678D01*
X7282134Y1420756D01*
X7271404Y1422890D01*
X7136404D01*
X7125674Y1420756D01*
X7116578Y1414678D01*
X7110500Y1405581D01*
X7108365Y1394851D01*
Y1384626D01*
X7047644D01*
X7043899Y1398605D01*
X7029206Y1424053D01*
X7008428Y1444831D01*
X6982980Y1459523D01*
X6954596Y1467129D01*
D02*
G37*
G36*
X8043596Y1446630D02*
X8014211D01*
X7985828Y1439025D01*
X7960380Y1424332D01*
X7939602Y1403554D01*
X7924909Y1378106D01*
X7917304Y1349723D01*
Y1320338D01*
X7924909Y1291954D01*
X7939602Y1266506D01*
X7960380Y1245728D01*
X7985828Y1231036D01*
X8014211Y1223430D01*
X8043596D01*
X8071980Y1231036D01*
X8097428Y1245728D01*
X8118206Y1266506D01*
X8132898Y1291954D01*
X8135691Y1302377D01*
X8206048D01*
Y1288596D01*
X8208182Y1277866D01*
X8214260Y1268770D01*
X8223357Y1262692D01*
X8234087Y1260557D01*
X8369086D01*
X8379816Y1262692D01*
X8388913Y1268770D01*
X8394991Y1277866D01*
X8397125Y1288596D01*
Y1393596D01*
X8394991Y1404326D01*
X8388913Y1413422D01*
X8379816Y1419500D01*
X8369086Y1421634D01*
X8234087D01*
X8223357Y1419500D01*
X8214260Y1413422D01*
X8208182Y1404326D01*
X8206048Y1393596D01*
Y1373749D01*
X8134066D01*
X8132898Y1378106D01*
X8118206Y1403554D01*
X8097428Y1424332D01*
X8071980Y1439025D01*
X8043596Y1446630D01*
D02*
G37*
G36*
X8593905Y1429961D02*
X8564520D01*
X8536136Y1422356D01*
X8510688Y1407663D01*
X8489910Y1386885D01*
X8475218Y1361437D01*
X8467612Y1333054D01*
Y1303669D01*
X8475218Y1275285D01*
X8489910Y1249837D01*
X8510688Y1229059D01*
X8536136Y1214367D01*
X8564520Y1206761D01*
X8593905D01*
X8622288Y1214367D01*
X8647736Y1229059D01*
X8668514Y1249837D01*
X8683207Y1275285D01*
X8687731Y1292171D01*
X8758365D01*
Y1284852D01*
X8760500Y1274122D01*
X8766578Y1265025D01*
X8775674Y1258947D01*
X8786404Y1256813D01*
X8921404D01*
X8932134Y1258947D01*
X8941230Y1265025D01*
X8947308Y1274122D01*
X8949442Y1284852D01*
Y1389851D01*
X8947308Y1400581D01*
X8941230Y1409678D01*
X8932134Y1415756D01*
X8921404Y1417890D01*
X8786404D01*
X8775674Y1415756D01*
X8766578Y1409678D01*
X8760500Y1400581D01*
X8758365Y1389851D01*
Y1363542D01*
X8681991D01*
X8668514Y1386885D01*
X8647736Y1407663D01*
X8622288Y1422356D01*
X8593905Y1429961D01*
D02*
G37*
G36*
X7493596Y1451629D02*
X7464211D01*
X7435828Y1444023D01*
X7410380Y1429331D01*
X7389602Y1408553D01*
X7374909Y1383105D01*
X7367304Y1354721D01*
Y1325336D01*
X7374909Y1296953D01*
X7389602Y1271505D01*
X7410380Y1250727D01*
X7435828Y1236034D01*
X7464211Y1228429D01*
X7493596D01*
X7521980Y1236034D01*
X7547428Y1250727D01*
X7568206Y1271505D01*
X7582898Y1296953D01*
X7584520Y1303005D01*
X7658365D01*
Y1284852D01*
X7660500Y1274122D01*
X7666578Y1265025D01*
X7675674Y1258947D01*
X7686404Y1256813D01*
X7821403D01*
X7832133Y1258947D01*
X7841230Y1265025D01*
X7847308Y1274122D01*
X7849442Y1284852D01*
Y1389851D01*
X7847308Y1400581D01*
X7841230Y1409678D01*
X7832133Y1415756D01*
X7821403Y1417890D01*
X7686404D01*
X7675674Y1415756D01*
X7666578Y1409678D01*
X7660500Y1400581D01*
X7658365Y1389851D01*
Y1374376D01*
X7585237D01*
X7582898Y1383105D01*
X7568206Y1408553D01*
X7547428Y1429331D01*
X7521980Y1444023D01*
X7493596Y1451629D01*
D02*
G37*
G36*
X10178754Y1427869D02*
X10149370D01*
X10120986Y1420263D01*
X10095538Y1405571D01*
X10074760Y1384793D01*
X10060068Y1359345D01*
X10052462Y1330961D01*
Y1301577D01*
X10060068Y1273193D01*
X10074760Y1247745D01*
X10095538Y1226967D01*
X10120986Y1212274D01*
X10149370Y1204669D01*
X10178754D01*
X10207138Y1212274D01*
X10232586Y1226967D01*
X10253364Y1247745D01*
X10268056Y1273193D01*
X10272408Y1289433D01*
X10339645D01*
Y1281469D01*
X10341779Y1270739D01*
X10347857Y1261643D01*
X10356953Y1255565D01*
X10367683Y1253430D01*
X10502683D01*
X10513413Y1255565D01*
X10522509Y1261643D01*
X10528587Y1270739D01*
X10530722Y1281469D01*
Y1386469D01*
X10528587Y1397199D01*
X10522509Y1406295D01*
X10513413Y1412373D01*
X10502683Y1414507D01*
X10367683D01*
X10356953Y1412373D01*
X10347857Y1406295D01*
X10341779Y1397199D01*
X10339645Y1386469D01*
Y1360805D01*
X10267213D01*
X10253364Y1384793D01*
X10232586Y1405571D01*
X10207138Y1420263D01*
X10178754Y1427869D01*
D02*
G37*
G36*
X9623156Y1417869D02*
X9593771D01*
X9565388Y1410263D01*
X9539940Y1395571D01*
X9519161Y1374793D01*
X9504469Y1349345D01*
X9496863Y1320961D01*
Y1291577D01*
X9504469Y1263193D01*
X9519161Y1237745D01*
X9539940Y1216967D01*
X9565388Y1202274D01*
X9593771Y1194669D01*
X9623156D01*
X9651539Y1202274D01*
X9676987Y1216967D01*
X9697765Y1237745D01*
X9712458Y1263193D01*
X9718149Y1284433D01*
X9789645D01*
Y1281469D01*
X9791779Y1270739D01*
X9797857Y1261643D01*
X9806953Y1255565D01*
X9817683Y1253430D01*
X9952683D01*
X9963413Y1255565D01*
X9972509Y1261643D01*
X9978587Y1270739D01*
X9980722Y1281469D01*
Y1386469D01*
X9978587Y1397199D01*
X9972509Y1406295D01*
X9963413Y1412373D01*
X9952683Y1414507D01*
X9817683D01*
X9806953Y1412373D01*
X9797857Y1406295D01*
X9791779Y1397199D01*
X9789645Y1386469D01*
Y1355805D01*
X9708728D01*
X9697765Y1374793D01*
X9676987Y1395571D01*
X9651539Y1410263D01*
X9623156Y1417869D01*
D02*
G37*
G36*
X6357193Y1483773D02*
X6327808D01*
X6299424Y1476167D01*
X6273976Y1461475D01*
X6253198Y1440697D01*
X6238506Y1415249D01*
X6230900Y1386865D01*
Y1357480D01*
X6238506Y1329097D01*
X6253198Y1303649D01*
X6273976Y1282871D01*
X6299424Y1268178D01*
X6327808Y1260573D01*
X6357193D01*
X6385576Y1268178D01*
X6411024Y1282871D01*
X6428640Y1300487D01*
X6537291D01*
X6547602Y1282627D01*
X6568380Y1261849D01*
X6593828Y1247157D01*
X6622212Y1239551D01*
X6651597D01*
X6679980Y1247157D01*
X6705428Y1261849D01*
X6726206Y1282627D01*
X6740899Y1308075D01*
X6748504Y1336459D01*
Y1365843D01*
X6740899Y1394227D01*
X6726206Y1419675D01*
X6705428Y1440453D01*
X6679980Y1455145D01*
X6651597Y1462751D01*
X6622212D01*
X6593828Y1455145D01*
X6568380Y1440453D01*
X6550765Y1422837D01*
X6442113D01*
X6431802Y1440697D01*
X6411024Y1461475D01*
X6385576Y1476167D01*
X6357193Y1483773D01*
D02*
G37*
G36*
X9017236Y-325000D02*
X8982764D01*
X8948954Y-331725D01*
X8917106Y-344917D01*
X8888444Y-364069D01*
X8864069Y-388444D01*
X8844917Y-417107D01*
X8831725Y-448955D01*
X8825000Y-482764D01*
Y-517236D01*
X8831725Y-551046D01*
X8844917Y-582894D01*
X8864069Y-611556D01*
X8888444Y-635931D01*
X8917106Y-655083D01*
X8948954Y-668275D01*
X8982764Y-675000D01*
X9017236D01*
X9051045Y-668275D01*
X9082893Y-655083D01*
X9111556Y-635931D01*
X9135931Y-611556D01*
X9155083Y-582894D01*
X9168275Y-551046D01*
X9175000Y-517236D01*
Y-482764D01*
X9168275Y-448955D01*
X9155083Y-417107D01*
X9135931Y-388444D01*
X9111556Y-364069D01*
X9082893Y-344917D01*
X9051045Y-331725D01*
X9017236Y-325000D01*
D02*
G37*
%LPD*%
D10*
X4556500Y5219173D02*
G03*
X4408458Y5244573I-76200J0D01*
G01*
D02*
G03*
X4404100Y5219173I71842J-25400D01*
G01*
X8426728Y5276323D02*
G03*
X8426728Y5123923I0J-76200D01*
G01*
X6116728Y5276323D02*
G03*
X6116728Y5123923I0J-76200D01*
G01*
X4083713Y4076200D02*
G03*
X4083713Y3923800I0J-76200D01*
G01*
X8644192Y5160460D02*
G03*
X8579128Y5276323I-65063J39663D01*
G01*
Y5123923D02*
G03*
X8644192Y5160460I0J76200D01*
G01*
X6334192D02*
G03*
X6269128Y5276323I-65063J39663D01*
G01*
Y5123923D02*
G03*
X6334192Y5160460I0J76200D01*
G01*
X4236113Y3923800D02*
G03*
X4301176Y3960337I0J76200D01*
G01*
D02*
G03*
X4236113Y4076200I-65063J39663D01*
G01*
X4404100Y5066773D02*
G03*
X4556500Y5066773I76200J0D01*
G01*
X3271565Y1699030D02*
Y2236914D01*
X3387447Y2352796D01*
X3457175D01*
X3515045Y2294926D01*
Y2187745D02*
Y2294926D01*
X4930000Y1210000D02*
X5049137Y1329138D01*
X4930000Y370000D02*
Y1210000D01*
X5049137Y1329138D02*
X5292499D01*
X5130025Y1270025D02*
X5286612D01*
X5010000Y1150000D02*
X5130025Y1270025D01*
X5010000Y440000D02*
Y1150000D01*
X5150000Y650000D02*
X5390000Y410000D01*
X5150000Y650000D02*
Y1085090D01*
X5390000Y170000D02*
Y410000D01*
Y170000D02*
X5430000Y130000D01*
X5010000Y440000D02*
X5180000Y270000D01*
Y-20000D02*
Y270000D01*
X4930000Y370000D02*
X5100000Y200000D01*
Y-120000D02*
Y200000D01*
X5000000Y-320000D02*
Y100000D01*
X4841840Y258160D02*
Y1290181D01*
Y258160D02*
X5000000Y100000D01*
X5540000Y-630000D02*
X5550000Y-640000D01*
X5310000Y-630000D02*
X5540000D01*
X5000000Y-320000D02*
X5310000Y-630000D01*
X5430000Y-450000D02*
X5550000D01*
X5100000Y-120000D02*
X5430000Y-450000D01*
X5180000Y-20000D02*
X5420000Y-260000D01*
X5550000D01*
X5430000Y130000D02*
X5540000D01*
X5550000Y120000D01*
X3875000Y1658639D02*
X3993241D01*
X4011014Y1640865D01*
X3976815Y1331139D02*
X4005532Y1359856D01*
Y1362334D01*
X3878662Y1331139D02*
X3976815D01*
X4707499Y1329138D02*
X4802884D01*
X4841840Y1290181D01*
X5201779Y1136868D02*
X5289769D01*
X5292499Y1134137D01*
X5150000Y1085090D02*
X5201779Y1136868D01*
X5286612Y1270025D02*
X5292499Y1264137D01*
X2536283Y1638639D02*
Y1728894D01*
X2586037Y1778649D01*
X3144517Y1050979D02*
X3192161Y1003335D01*
X3043943Y1050979D02*
X3144517D01*
X3043783Y1051139D02*
X3043943Y1050979D01*
X4404100Y5168373D02*
Y5219173D01*
X4556500Y5168373D02*
Y5219173D01*
X3515045Y2187745D02*
X3524073Y2178717D01*
X3143673Y1571139D02*
X3271565Y1699030D01*
X8732560Y3572440D02*
X8745000Y3560000D01*
X8560000Y3572440D02*
X8732560D01*
X8560000Y3422440D02*
X8690812D01*
X3199847Y149242D02*
Y287386D01*
Y149242D02*
X3204251Y144837D01*
X3474383Y3679340D02*
X3491264Y3696221D01*
X3474383Y3580000D02*
Y3679340D01*
X3043783Y1571139D02*
X3143673D01*
X2041481Y4626405D02*
X2091281Y4576605D01*
Y4485571D02*
Y4576605D01*
Y4485571D02*
X2091481Y4485372D01*
X1809772Y4543231D02*
X1827732D01*
X1832373Y4547872D01*
X1804912Y4538371D02*
X1809772Y4543231D01*
X1832373Y4547872D02*
X1953581D01*
X1991481Y4485372D02*
Y4509972D01*
X1953581Y4547872D02*
X1991481Y4509972D01*
X2141481Y4485372D02*
Y4550372D01*
X2191481Y4600372D02*
Y4613451D01*
X2141481Y4550372D02*
X2191481Y4600372D01*
X1680000Y4500284D02*
Y4500371D01*
Y4500284D02*
X1764912Y4415372D01*
X1475570Y3005000D02*
X1477561D01*
X1514461Y3041900D01*
Y3110404D01*
X1534056Y3130000D01*
X1561357Y3100371D02*
X1690000D01*
X1534056Y3127672D02*
Y3130000D01*
Y3127672D02*
X1561357Y3100371D01*
X1558607Y2942051D02*
X1616557Y3000000D01*
X1534056Y2850000D02*
X1558607Y2874551D01*
Y2942051D01*
X8426728Y5276323D02*
X8477528D01*
X8426728Y5123923D02*
X8477528D01*
X6116728Y5276323D02*
X6167528D01*
X6116728Y5123923D02*
X6167528D01*
X4083713Y4076200D02*
X4134513D01*
X4083713Y3923800D02*
X4134513D01*
X2141481Y4095372D02*
Y4265371D01*
X1991681Y4165572D02*
X2116481Y4290372D01*
X6390393Y2910000D02*
X6392184D01*
X1349484Y2400400D02*
X1407184Y2342700D01*
X1574224D01*
X1576524Y2345000D01*
X1611356D01*
X1330679Y2355000D02*
X1388379Y2297300D01*
X1056207Y2355000D02*
X1330679D01*
X1576524Y2295000D02*
X1611356D01*
X1388379Y2297300D02*
X1574224D01*
X1576524Y2295000D01*
X1075012Y2400400D02*
X1349484D01*
X953907Y2457300D02*
X1056207Y2355000D01*
X782492Y2457300D02*
X953907D01*
X972712Y2502700D02*
X1075012Y2400400D01*
X782492Y2502700D02*
X972712D01*
X742213Y2542700D02*
X754315D01*
X767613Y2529403D01*
Y2517579D02*
Y2529403D01*
Y2517579D02*
X782492Y2502700D01*
X729913Y2555000D02*
X742213Y2542700D01*
Y2417300D02*
X754315D01*
X669913Y2405000D02*
X729913D01*
X669913Y2555000D02*
X729913D01*
X767613Y2442421D02*
X782492Y2457300D01*
X767613Y2430598D02*
Y2442421D01*
X754315Y2417300D02*
X767613Y2430598D01*
X729913Y2405000D02*
X742213Y2417300D01*
X1764912Y4415372D02*
X1921481D01*
X9030500Y4894901D02*
X9101240Y4965641D01*
X9030500Y4701607D02*
Y4894901D01*
X9085000Y3710000D02*
X9097683Y3697317D01*
Y3560000D02*
Y3697317D01*
X8401328Y4134600D02*
X8466728Y4200000D01*
X8401328Y3625400D02*
Y4134600D01*
X8466728Y4200000D02*
X8632495D01*
X8454289Y3572440D02*
X8560000D01*
X8401328Y3625400D02*
X8454289Y3572440D01*
X8649500Y4217005D02*
Y4218393D01*
X8632495Y4200000D02*
X8649500Y4217005D01*
X8759454Y3954454D02*
Y4028100D01*
X8776500Y4045146D02*
Y4218393D01*
X8745000Y3940000D02*
X8759454Y3954454D01*
Y4028100D02*
X8776500Y4045146D01*
X8720000Y3775000D02*
X8745000Y3750000D01*
X8560000Y3775000D02*
X8720000D01*
X8560000Y3925000D02*
X8730000D01*
X8745000Y3940000D01*
X8560000Y4991953D02*
X8629016D01*
X8655328Y4707435D02*
Y4965641D01*
X8629016Y4991953D02*
X8655328Y4965641D01*
X8649500Y4701607D02*
X8655328Y4707435D01*
X8528328Y5123923D02*
X8579128D01*
X8644192Y5160460D02*
X8776500Y5028151D01*
X8604528Y5200123D02*
X8644192Y5160460D01*
X8776500Y4701607D02*
Y5028151D01*
X6178393Y4218393D02*
X6339500D01*
X6093917Y3632980D02*
Y4133917D01*
X6178393Y4218393D01*
X6166897Y3560000D02*
X6260000D01*
X6093917Y3632980D02*
X6166897Y3560000D01*
X6260000D02*
X6445000D01*
X6415000Y3775000D02*
X6440000Y3750000D01*
X6260000Y3775000D02*
X6415000D01*
X6425000Y3925000D02*
X6440000Y3940000D01*
X6260000Y3925000D02*
X6425000D01*
X6459456Y4211350D02*
X6466500Y4218393D01*
X6459456Y3959456D02*
Y4211350D01*
X6440000Y3940000D02*
X6459456Y3959456D01*
X6218328Y5123923D02*
X6269128D01*
X6334192Y5160460D02*
X6466500Y5028151D01*
X6294528Y5200123D02*
X6334192Y5160460D01*
X6466500Y4701607D02*
Y5028151D01*
X6307228Y4991953D02*
X6339500Y4959681D01*
Y4701607D02*
Y4959681D01*
X6251964Y4991953D02*
X6307228D01*
X6243917Y5000000D02*
X6251964Y4991953D01*
X6774937Y3723630D02*
X6795000Y3703567D01*
X6774937Y3723630D02*
Y3730503D01*
X6795000Y3560000D02*
Y3703567D01*
X6771797Y4928670D02*
X6788127Y4945000D01*
X6795000D01*
X6755861Y4928670D02*
X6771797D01*
X6720500Y4893310D02*
X6755861Y4928670D01*
X6720500Y4701607D02*
Y4893310D01*
X6260000Y3410000D02*
X6392003D01*
X6394091Y3412088D01*
X4218127Y2195000D02*
X4220627Y2192500D01*
X4367500D01*
X4370000Y2190000D01*
X4570600Y4743371D02*
X4613600Y4700372D01*
X4730000Y4909771D02*
Y5170000D01*
X4613600Y4793371D02*
X4730000Y4909771D01*
X4220000Y2575000D02*
X4380000D01*
X4405000Y2550000D01*
X4224912Y3794750D02*
Y3804750D01*
Y3794750D02*
X4312560Y3707102D01*
Y3504166D02*
Y3707102D01*
X4185313Y3923800D02*
X4236113D01*
X4301176Y3960337D02*
X4439560Y3821953D01*
X4261513Y4000000D02*
X4301176Y3960337D01*
X4439560Y3504166D02*
Y3821953D01*
X4134513Y3923800D02*
Y4076200D01*
X4185313Y3923800D02*
Y4076200D01*
Y3923800D02*
Y4050800D01*
Y4076200D02*
X4236113D01*
X2292744Y4613451D02*
X2297981D01*
X2241481Y4562187D02*
X2292744Y4613451D01*
X2241481Y4485372D02*
Y4562187D01*
X2023781Y3930372D02*
Y3972672D01*
X2041481Y3990371D02*
X2111878D01*
X2172412Y3930372D02*
Y3990371D01*
X2023781Y3972672D02*
X2041481Y3990371D01*
X2111878D02*
X2141281Y4019774D01*
X2241481Y4001301D02*
X2270110Y3972672D01*
X2241481Y4001301D02*
Y4095372D01*
X2172412Y3990371D02*
X2191481Y4009440D01*
Y4095372D01*
X2141281Y4019774D02*
Y4095172D01*
X2141481Y4095372D01*
X2564913Y4340372D02*
X2634912D01*
X2489912Y4265371D02*
X2564913Y4340372D01*
X2311481Y4265371D02*
X2489912D01*
X3929912Y5068371D02*
X4129912D01*
X3729912Y4918371D02*
X3929912D01*
X3729912Y4718371D02*
X3929912D01*
X4129912Y4568371D02*
X4129912Y4568371D01*
X3929912Y4568371D02*
X4129912D01*
X4129912Y4933371D02*
Y5068371D01*
Y4933371D02*
X4169913Y4893371D01*
X4129912Y4568371D02*
Y4688371D01*
X4184881Y4743340D01*
X4084912Y4718371D02*
X4159912Y4793371D01*
X3929912Y4718371D02*
X4084912D01*
X1991681Y4095571D02*
Y4165572D01*
X1991481Y4095372D02*
X1991681Y4095571D01*
X2116481Y4290372D02*
X2141481Y4265371D01*
X4556500Y5066773D02*
Y5117573D01*
X4404100Y5066773D02*
Y5117573D01*
X4531100D01*
X4404100D02*
X4556500D01*
X4404100Y5168373D02*
X4556500D01*
X6218328Y5276323D02*
X6269128D01*
X6218328Y5123923D02*
Y5250923D01*
Y5123923D02*
Y5276323D01*
X6167528Y5123923D02*
Y5276323D01*
X8528328D02*
X8579128D01*
X8528328Y5123923D02*
Y5250923D01*
Y5123923D02*
Y5276323D01*
X8477528Y5123923D02*
Y5276323D01*
D11*
X4555000Y850000D02*
D03*
X4405000D02*
D03*
X4835000Y-270000D02*
D03*
X4685000D02*
D03*
X3878662Y1331139D02*
D03*
X3728662D02*
D03*
X3875000Y1658639D02*
D03*
X3725000D02*
D03*
X4555000Y2550000D02*
D03*
X4405000D02*
D03*
X4555000Y2360000D02*
D03*
X4405000D02*
D03*
X4555000Y2740000D02*
D03*
X4405000D02*
D03*
X4074912Y3804750D02*
D03*
X4224912D02*
D03*
X4875000Y2360000D02*
D03*
X4725000D02*
D03*
X4717500Y3857500D02*
D03*
X4567500D02*
D03*
X4129912Y5268371D02*
D03*
X4279912D02*
D03*
X4129912Y5068371D02*
D03*
X4279912D02*
D03*
X1734912Y5020371D02*
D03*
X1584912D02*
D03*
X1979912Y4950371D02*
D03*
X2129912D02*
D03*
X2172412Y3830371D02*
D03*
X2022412D02*
D03*
X1985000Y2926500D02*
D03*
X1835000D02*
D03*
X1985000Y2662500D02*
D03*
X1835000D02*
D03*
X1384056Y2850000D02*
D03*
X1534056D02*
D03*
X1384056Y3130000D02*
D03*
X1534056D02*
D03*
X1519577Y4505371D02*
D03*
X1369577D02*
D03*
X1525968Y4131589D02*
D03*
X1375968D02*
D03*
X3014912Y4972871D02*
D03*
X2864912D02*
D03*
X3017413Y4163789D02*
D03*
X2867413D02*
D03*
X2864912Y4765371D02*
D03*
X3014912D02*
D03*
X2867412Y3951289D02*
D03*
X3017412D02*
D03*
X3019912Y4567871D02*
D03*
X2869912D02*
D03*
X3017412Y3741288D02*
D03*
X2867412D02*
D03*
X2869912Y4362872D02*
D03*
X3019912D02*
D03*
X2867412Y3526289D02*
D03*
X3017412D02*
D03*
X5550000Y-640000D02*
D03*
X5700000D02*
D03*
X5550000Y-450000D02*
D03*
X5700000D02*
D03*
X5550000Y-260000D02*
D03*
X5700000D02*
D03*
X5550000Y-70000D02*
D03*
X5700000D02*
D03*
X5550000Y120000D02*
D03*
X5700000D02*
D03*
X5550000Y310000D02*
D03*
X5700000D02*
D03*
X2842654Y-610006D02*
D03*
X2692654D02*
D03*
X2837653Y-93636D02*
D03*
X2687654D02*
D03*
X4129912Y4568371D02*
D03*
X4279912D02*
D03*
Y4368371D02*
D03*
X4129912D02*
D03*
X3324383Y3580000D02*
D03*
X3474383D02*
D03*
X3729912Y4718371D02*
D03*
X3579912D02*
D03*
X4730000Y5170000D02*
D03*
X4880000D02*
D03*
X4730000Y5360000D02*
D03*
X4880000D02*
D03*
X3729912Y4918371D02*
D03*
X3579912D02*
D03*
X6795000Y3560000D02*
D03*
X6945000D02*
D03*
X9097683D02*
D03*
X9247683D02*
D03*
X6445000D02*
D03*
X6595000D02*
D03*
X8745000D02*
D03*
X8895000D02*
D03*
X6243917Y5000000D02*
D03*
X6093917D02*
D03*
X6440000Y3750000D02*
D03*
X6590000D02*
D03*
X6440000Y3940000D02*
D03*
X6590000D02*
D03*
X8560000Y4991953D02*
D03*
X8410000D02*
D03*
X8745000Y3750000D02*
D03*
X8895000D02*
D03*
X8745000Y3940000D02*
D03*
X8895000D02*
D03*
X3337382Y1331139D02*
D03*
X3487382D02*
D03*
X2048695Y1658639D02*
D03*
X1898695D02*
D03*
X2048695Y1844138D02*
D03*
X1898695D02*
D03*
X3416264Y1148132D02*
D03*
X3566264D02*
D03*
X1942412Y916138D02*
D03*
X1792412D02*
D03*
X1949840Y1131138D02*
D03*
X1799840D02*
D03*
X3221173Y504188D02*
D03*
X3371173D02*
D03*
X1961086Y1476139D02*
D03*
X1811086D02*
D03*
X964911Y3572522D02*
D03*
X814912D02*
D03*
X964911Y3066250D02*
D03*
X814912D02*
D03*
X1167263Y2525000D02*
D03*
X1317263D02*
D03*
D12*
X4555000Y627853D02*
D03*
D13*
X4784000Y-41146D02*
D03*
X4555000D02*
D03*
D14*
X4326000D02*
D03*
D15*
X10450000Y4632435D02*
D03*
Y4782435D02*
D03*
X8130000Y4628393D02*
D03*
Y4778393D02*
D03*
X6425000Y2650000D02*
D03*
Y2500000D02*
D03*
X3204251Y-5163D02*
D03*
Y144837D02*
D03*
X3973156Y164837D02*
D03*
Y14837D02*
D03*
X3596173Y148583D02*
D03*
Y-1417D02*
D03*
X3973156Y-183746D02*
D03*
Y-333746D02*
D03*
X3199847Y-199054D02*
D03*
Y-349054D02*
D03*
X3596173Y-195308D02*
D03*
Y-345308D02*
D03*
X813706Y1544680D02*
D03*
Y1394680D02*
D03*
X4218127Y2345000D02*
D03*
Y2195000D02*
D03*
X4220000Y2575000D02*
D03*
Y2725000D02*
D03*
X1494912Y3485372D02*
D03*
Y3335372D02*
D03*
Y3821289D02*
D03*
Y3671289D02*
D03*
X3924912Y5268371D02*
D03*
Y5418371D02*
D03*
X3934912Y4373371D02*
D03*
Y4223371D02*
D03*
X2634912Y4340372D02*
D03*
Y4490372D02*
D03*
X3714912Y5268371D02*
D03*
Y5418371D02*
D03*
X2384912Y4770372D02*
D03*
Y4920372D02*
D03*
X2172412Y3215372D02*
D03*
Y3365371D02*
D03*
X2842656Y-428615D02*
D03*
Y-278615D02*
D03*
X3734912Y4223371D02*
D03*
Y4373371D02*
D03*
X3929912Y4568371D02*
D03*
Y4718371D02*
D03*
Y5068371D02*
D03*
Y4918371D02*
D03*
X6260000Y3410000D02*
D03*
Y3560000D02*
D03*
X8560000Y3422440D02*
D03*
Y3572440D02*
D03*
X6260000Y3925000D02*
D03*
Y3775000D02*
D03*
X8560000Y3925000D02*
D03*
Y3775000D02*
D03*
X2856283Y1916645D02*
D03*
Y2066645D02*
D03*
X10450000Y4280000D02*
D03*
Y4430000D02*
D03*
X8130000Y4272440D02*
D03*
Y4422440D02*
D03*
X6419484Y3060000D02*
D03*
Y2910000D02*
D03*
X817212Y414188D02*
D03*
Y264188D02*
D03*
X3596173Y824137D02*
D03*
Y674137D02*
D03*
X1534057Y1758613D02*
D03*
Y1908613D02*
D03*
X1527545Y1131138D02*
D03*
Y981138D02*
D03*
X972712Y3400660D02*
D03*
Y3250660D02*
D03*
X1160000Y2035000D02*
D03*
Y1885000D02*
D03*
X3914912Y3075000D02*
D03*
Y2925000D02*
D03*
D16*
X2656283Y1251138D02*
D03*
D17*
X2336283Y1638639D02*
D03*
X2376283D02*
D03*
X2416283D02*
D03*
X2456283D02*
D03*
X2496283D02*
D03*
X2536283D02*
D03*
X2576283D02*
D03*
X2616283D02*
D03*
X2656283D02*
D03*
X2696283D02*
D03*
X2736283D02*
D03*
X2776283D02*
D03*
X2816283D02*
D03*
X2856283D02*
D03*
X2896283D02*
D03*
X2936283D02*
D03*
X2976283D02*
D03*
Y863639D02*
D03*
X2936283D02*
D03*
X2896283D02*
D03*
X2856283D02*
D03*
X2816283D02*
D03*
X2776283D02*
D03*
X2736283D02*
D03*
X2696283D02*
D03*
X2656283D02*
D03*
X2616283D02*
D03*
X2576283D02*
D03*
X2536283D02*
D03*
X2496283D02*
D03*
X2456283D02*
D03*
X2416283D02*
D03*
X2376283D02*
D03*
X2336283D02*
D03*
D18*
X3043783Y1571139D02*
D03*
Y1531139D02*
D03*
Y1491138D02*
D03*
Y1451139D02*
D03*
Y1411139D02*
D03*
Y1371138D02*
D03*
Y1331139D02*
D03*
Y1291139D02*
D03*
Y1251138D02*
D03*
Y1211139D02*
D03*
Y1171139D02*
D03*
Y1131139D02*
D03*
Y1091139D02*
D03*
Y1051139D02*
D03*
Y1011139D02*
D03*
Y971139D02*
D03*
Y931139D02*
D03*
X2268783D02*
D03*
Y971139D02*
D03*
Y1011139D02*
D03*
Y1051139D02*
D03*
Y1091139D02*
D03*
Y1131139D02*
D03*
Y1171139D02*
D03*
Y1211139D02*
D03*
Y1251138D02*
D03*
Y1291139D02*
D03*
Y1331139D02*
D03*
Y1371138D02*
D03*
Y1411139D02*
D03*
Y1451139D02*
D03*
Y1491138D02*
D03*
Y1531139D02*
D03*
Y1571139D02*
D03*
D19*
X4414912Y4885871D02*
D03*
X4344912D02*
D03*
Y4750871D02*
D03*
X4414912D02*
D03*
D20*
X4264912Y4893371D02*
D03*
Y4843371D02*
D03*
Y4793371D02*
D03*
Y4743371D02*
D03*
X4494912Y4893371D02*
D03*
Y4843371D02*
D03*
Y4793371D02*
D03*
Y4743371D02*
D03*
D21*
X9000000Y-500000D02*
D03*
X9500000Y6000000D02*
D03*
X267414Y3795371D02*
D03*
D22*
X4050000Y3580000D02*
D03*
X3900000D02*
D03*
D23*
X179913Y1541138D02*
D03*
X594912D02*
D03*
X179913Y1326139D02*
D03*
X594912D02*
D03*
X179913Y445409D02*
D03*
X594912D02*
D03*
X179913Y230409D02*
D03*
X594912D02*
D03*
D24*
X2842654Y-815006D02*
D03*
D25*
X1611356Y2295000D02*
D03*
Y2345000D02*
D03*
Y2395000D02*
D03*
X1752069D02*
D03*
Y2345000D02*
D03*
D26*
Y2295000D02*
D03*
D27*
X4693560Y3504166D02*
D03*
X6720500Y4701607D02*
D03*
X9030500D02*
D03*
D28*
X4566560Y3504166D02*
D03*
X4439560D02*
D03*
X4312560D02*
D03*
Y3020953D02*
D03*
X4439560D02*
D03*
X4566560D02*
D03*
X4693560D02*
D03*
X6593500Y4701607D02*
D03*
X6466500D02*
D03*
X6339500D02*
D03*
Y4218393D02*
D03*
X6466500D02*
D03*
X6593500D02*
D03*
X6720500D02*
D03*
X8903500Y4701607D02*
D03*
X8776500D02*
D03*
X8649500D02*
D03*
Y4218393D02*
D03*
X8776500D02*
D03*
X8903500D02*
D03*
X9030500D02*
D03*
D29*
X4503060Y3262560D02*
D03*
X6530000Y4460000D02*
D03*
X8840000D02*
D03*
D30*
X4058313Y4000000D02*
D03*
X4261513D02*
D03*
X4480300Y5041373D02*
D03*
Y5244573D02*
D03*
X6294528Y5200123D02*
D03*
X6091328D02*
D03*
X8604528D02*
D03*
X8401328D02*
D03*
D31*
X5822000Y2520000D02*
D03*
X5418000D02*
D03*
X7456000Y3320000D02*
D03*
X7860000D02*
D03*
X9744280D02*
D03*
X10148280D02*
D03*
D32*
X5790000Y3010000D02*
D03*
Y3290000D02*
D03*
X7840000Y4480000D02*
D03*
Y4200000D02*
D03*
X10148280Y4498393D02*
D03*
Y4218393D02*
D03*
D33*
X4528200Y4148371D02*
D03*
X4756800D02*
D03*
X8872640Y5276323D02*
D03*
X9101240D02*
D03*
X6562640Y5252500D02*
D03*
X6791240D02*
D03*
X1520612Y4785371D02*
D03*
X1749212D02*
D03*
X1983112Y3605371D02*
D03*
X2211712D02*
D03*
X2629212Y3880371D02*
D03*
X2400612D02*
D03*
D34*
X5220000Y3020000D02*
D03*
Y3660000D02*
D03*
D35*
X669912Y5110372D02*
D03*
Y5190372D02*
D03*
Y4550371D02*
D03*
Y4630371D02*
D03*
X669913Y2720000D02*
D03*
Y2800000D02*
D03*
Y2160000D02*
D03*
Y2240000D02*
D03*
D36*
X669912Y5045371D02*
D03*
Y4995372D02*
D03*
Y4945372D02*
D03*
Y4695372D02*
D03*
Y4745372D02*
D03*
Y4795371D02*
D03*
Y4845372D02*
D03*
Y4895371D02*
D03*
X669913Y2655000D02*
D03*
Y2605000D02*
D03*
Y2555000D02*
D03*
Y2305000D02*
D03*
Y2355000D02*
D03*
Y2405000D02*
D03*
Y2455000D02*
D03*
Y2505000D02*
D03*
D37*
X2530000Y5594300D02*
D03*
Y5365700D02*
D03*
X3484912Y5396971D02*
D03*
Y5168371D02*
D03*
X10435183Y1562569D02*
D03*
Y1333969D02*
D03*
X9885183Y1562569D02*
D03*
Y1333969D02*
D03*
X8853904Y1565952D02*
D03*
Y1337352D02*
D03*
X8301587Y1569696D02*
D03*
Y1341096D02*
D03*
X7753904Y1565952D02*
D03*
Y1337352D02*
D03*
X7203904Y1570951D02*
D03*
Y1342351D02*
D03*
X3504912Y4468371D02*
D03*
Y4239771D02*
D03*
D38*
X2116481Y4290372D02*
D03*
D39*
X2241481Y4095372D02*
D03*
X2191481D02*
D03*
X2141481D02*
D03*
X2091481D02*
D03*
X2041481D02*
D03*
X1991481D02*
D03*
Y4485372D02*
D03*
X2041481D02*
D03*
X2091481D02*
D03*
X2141481D02*
D03*
X2191481D02*
D03*
X2241481D02*
D03*
D40*
X1921481Y4165372D02*
D03*
Y4215372D02*
D03*
Y4265371D02*
D03*
Y4315372D02*
D03*
Y4365372D02*
D03*
Y4415372D02*
D03*
X2311481D02*
D03*
Y4365372D02*
D03*
Y4315372D02*
D03*
Y4265371D02*
D03*
Y4215372D02*
D03*
Y4165372D02*
D03*
D41*
X1149912Y5795371D02*
D03*
X869912D02*
D03*
X4790000Y4480019D02*
D03*
X4510000D02*
D03*
D42*
X1862481Y5314745D02*
D03*
D43*
X1989481D02*
D03*
X2116481D02*
D03*
X2243481D02*
D03*
Y5797958D02*
D03*
X2116481D02*
D03*
X1989481D02*
D03*
X1862481D02*
D03*
D44*
X2198912Y4750371D02*
D03*
X1975912D02*
D03*
X518956Y680688D02*
D03*
X295956D02*
D03*
D45*
X1867412Y3195372D02*
D03*
Y3385371D02*
D03*
X1667412Y3290372D02*
D03*
D46*
X4707499Y1264137D02*
D03*
Y1199137D02*
D03*
Y1134137D02*
D03*
Y1329138D02*
D03*
Y1394138D02*
D03*
X5292499D02*
D03*
Y1329138D02*
D03*
Y1134137D02*
D03*
Y1199137D02*
D03*
Y1264137D02*
D03*
Y1459138D02*
D03*
Y1524138D02*
D03*
Y1589138D02*
D03*
Y1654138D02*
D03*
Y1849139D02*
D03*
Y1784138D02*
D03*
Y1719138D02*
D03*
X4707499D02*
D03*
Y1784138D02*
D03*
Y1849139D02*
D03*
Y1654138D02*
D03*
Y1589138D02*
D03*
Y1524138D02*
D03*
Y1459138D02*
D03*
D47*
X5292499Y1059137D02*
D03*
Y1924138D02*
D03*
X4707499D02*
D03*
Y1059137D02*
D03*
D48*
X2856283Y401739D02*
D03*
Y460438D02*
D03*
Y519138D02*
D03*
X2806283Y401739D02*
D03*
Y460438D02*
D03*
Y519138D02*
D03*
D49*
X7500000Y4645000D02*
D03*
X7040000D02*
D03*
X9810000Y4670000D02*
D03*
X9350000D02*
D03*
D50*
X7270000Y3960000D02*
D03*
X9580000Y3985000D02*
D03*
D51*
X3203673Y683541D02*
D03*
X3388673D02*
D03*
X3203673Y828541D02*
D03*
X3388673D02*
D03*
D52*
X1534057Y1326139D02*
D03*
Y1576139D02*
D03*
D53*
X3151712Y3228250D02*
D03*
X3558112D02*
D03*
X3151712Y3101250D02*
D03*
X3558112D02*
D03*
X3151712Y2974250D02*
D03*
X3558112D02*
D03*
X3151712Y2847250D02*
D03*
X3558112D02*
D03*
X3151712Y2720250D02*
D03*
X3558112D02*
D03*
X3151712Y2593250D02*
D03*
X3558112D02*
D03*
X3151712Y2466250D02*
D03*
X3558112D02*
D03*
D54*
X2618313Y3166250D02*
D03*
Y3101250D02*
D03*
Y3036250D02*
D03*
X2843313D02*
D03*
Y3166250D02*
D03*
X2618313Y2727500D02*
D03*
Y2662500D02*
D03*
Y2597500D02*
D03*
X2843313D02*
D03*
Y2727500D02*
D03*
D55*
X3017412Y3951289D02*
X3154831D01*
X3017412Y3526289D02*
X3154831D01*
X3017412Y3741288D02*
X3154831D01*
X3425543Y4918371D02*
X3579912D01*
X3434963Y4718371D02*
X3579912D01*
X3429964Y4713371D02*
X3434963Y4718371D01*
X3153892Y4567871D02*
X3157331Y4564432D01*
X3019912Y4567871D02*
X3153892D01*
X1242263Y4131589D02*
X1375968D01*
X1242263Y4505371D02*
X1369577D01*
X3017413Y4163789D02*
X3154831D01*
X3014912Y4972871D02*
X3152331D01*
X3014912Y4765371D02*
X3152331D01*
X3019912Y4362872D02*
X3157331D01*
D56*
X1120001Y440000D02*
X2420000D01*
X1055057Y504944D02*
X1120001Y440000D01*
X1055057Y504944D02*
Y680688D01*
X2618313Y3238772D02*
X2714912Y3335372D01*
X3430666D02*
X3454912Y3311125D01*
X2714912Y3335372D02*
X3430666D01*
X3454912Y3254920D02*
Y3311125D01*
X2376283Y1638639D02*
Y1713639D01*
X2359903Y1730019D02*
X2376283Y1713639D01*
X2356137Y1754558D02*
X2359903Y1750793D01*
Y1730019D02*
Y1750793D01*
X2416283Y1638639D02*
Y1838655D01*
X2856283Y1678479D02*
Y1841645D01*
X2133354Y1255579D02*
X2168754Y1290979D01*
X2132764Y1255579D02*
X2133354D01*
X2168754Y1290979D02*
X2268623D01*
X2268783Y1291139D01*
X2062412Y1134083D02*
X2065357Y1131139D01*
X2268783D01*
X3238043D02*
X3271034Y1098148D01*
X3043783Y1131139D02*
X3238043D01*
X3271034Y1098148D02*
X3276359D01*
X2601283Y677901D02*
X2616283Y692901D01*
Y863639D01*
X2696283Y693591D02*
Y863639D01*
Y693591D02*
X2711973Y677901D01*
Y672576D02*
Y677901D01*
X2736283Y725107D02*
X2788814Y672576D01*
X2736283Y725107D02*
Y863639D01*
X2788814Y760232D02*
X2816123Y787541D01*
Y863479D01*
X2788814Y754907D02*
Y760232D01*
X2816123Y863479D02*
X2816283Y863639D01*
X2656283Y618131D02*
Y863639D01*
X2936443Y767796D02*
X2938710Y765529D01*
X2550853Y733531D02*
X2576283Y758961D01*
Y863639D01*
X2550853Y728206D02*
Y733531D01*
X3114541Y1171139D02*
X3114701Y1171299D01*
X3218148D02*
X3221173Y1174324D01*
X3043783Y1171139D02*
X3114541D01*
X3114701Y1171299D02*
X3218148D01*
X3043783Y1091139D02*
X3198252D01*
X3276359Y1013032D01*
X2416283Y780218D02*
Y863639D01*
X2396297Y760232D02*
X2416283Y780218D01*
X2396297Y754907D02*
Y760232D01*
X2456283Y693185D02*
Y863639D01*
X2503405Y753639D02*
Y758964D01*
X2496283Y766086D02*
X2503405Y758964D01*
X2496283Y766086D02*
Y863639D01*
X2456283Y1638639D02*
Y1722647D01*
X2516347Y1782711D02*
Y1832864D01*
X2456283Y1722647D02*
X2516347Y1782711D01*
X7870000Y4510000D02*
Y4778393D01*
X10148280Y4498393D02*
Y4782435D01*
X4559194Y4909771D02*
Y4946931D01*
X4542954Y4893531D02*
X4559194Y4909771D01*
X4494912Y4893371D02*
X4495072Y4893531D01*
X4542954D01*
X4494912Y4793371D02*
X4613600D01*
X4494912Y4843371D02*
X4571100D01*
X295956Y670688D02*
Y680688D01*
X179913Y554644D02*
X295956Y670688D01*
X3145380Y1251138D02*
X3160997Y1266755D01*
X3043943Y1211299D02*
X3155668D01*
X3043783Y1251138D02*
X3145380D01*
X3155668Y1211299D02*
X3157095Y1212725D01*
X3043783Y1211139D02*
X3043943Y1211299D01*
X3160997Y1266755D02*
Y1295853D01*
X3169930Y1304786D02*
Y1327373D01*
X3160997Y1295853D02*
X3169930Y1304786D01*
Y1327373D02*
X3173695Y1331139D01*
X3043783Y1291139D02*
X3156283D01*
X3951780Y173301D02*
X3973156Y194678D01*
X3946556Y173301D02*
X3951780D01*
X3973156Y194678D02*
Y320901D01*
X3959916Y148237D02*
X3973156Y134997D01*
X3946556Y148237D02*
X3959916D01*
X3946556D02*
Y173301D01*
X3202049Y-7365D02*
X3204251Y-5163D01*
X3199847Y-199054D02*
X3202049Y-196852D01*
X302747Y687479D02*
Y832747D01*
X556139Y1086139D02*
X845000D01*
X302747Y832747D02*
X556139Y1086139D01*
X295956Y680688D02*
X302747Y687479D01*
X179913Y445409D02*
Y554644D01*
Y445409D02*
X594912D01*
X813706Y881139D02*
Y950594D01*
Y417694D02*
Y881139D01*
X518956Y680688D02*
X613256D01*
X813706Y881139D01*
Y417694D02*
X817212Y414188D01*
X3043783Y931139D02*
X3281173D01*
X3296173Y916041D02*
X3383673Y828541D01*
X3281173Y931139D02*
X3296173Y916138D01*
Y916041D02*
Y916138D01*
X3383673Y828541D02*
X3388673D01*
X3596173Y148583D02*
Y298036D01*
X1684913Y2745000D02*
X1767413Y2662500D01*
X1684913Y2745000D02*
X1690000D01*
X1767413Y2662500D02*
X1835000D01*
Y2652500D02*
Y2662500D01*
X1864840Y2622660D02*
X1874840D01*
X1978121Y2519379D02*
X2278352D01*
X1835000Y2652500D02*
X1864840Y2622660D01*
X1874840D02*
X1978121Y2519379D01*
X2278352D02*
X2331481Y2466250D01*
X1837278Y2812259D02*
X1839555Y2809982D01*
X1835000Y2926500D02*
X1837278Y2924223D01*
Y2812259D02*
Y2924223D01*
X813706Y1544680D02*
X1180236D01*
X1286695Y1651139D01*
Y2035412D01*
X1400000Y2148717D01*
X1375554Y2034243D02*
X1451311Y2110000D01*
X845000Y1086139D02*
X1375554Y1616692D01*
Y2034243D01*
X2177148Y1571299D02*
X2268623D01*
X2161883Y1577020D02*
X2167764Y1571139D01*
X2177148Y1490979D02*
X2268623D01*
X2268623Y1571299D02*
X2268783Y1571139D01*
X2268623Y1490979D02*
X2268783Y1491138D01*
X2176988Y1571139D02*
X2177148Y1571299D01*
X2176988Y1491138D02*
X2177148Y1490979D01*
X1976086Y1491138D02*
X2176988D01*
X2167764Y1571139D02*
X2176988D01*
X2193783Y1531139D02*
X2268783D01*
X2268623Y1451299D02*
X2268783Y1451139D01*
X2133586D02*
X2176988D01*
X2177148Y1451299D01*
X2026585Y1344138D02*
X2133586Y1451139D01*
X2177148Y1451299D02*
X2268623D01*
X2193783Y1411139D02*
X2268783D01*
X1451311Y2110000D02*
X2101781D01*
X2116481Y2943910D02*
X2776283D01*
X2808472Y2976100D01*
X179913Y1541138D02*
X594912D01*
X598454Y1544680D01*
X813706D01*
X1552056Y1344138D02*
X2026585D01*
X1527545Y1319627D02*
X1534057Y1326139D01*
X1552056Y1344138D01*
X919251Y1056139D02*
X946237D01*
X813706Y950594D02*
X919251Y1056139D01*
X2179047Y1090978D02*
X2179207Y1091139D01*
X2108586Y1051139D02*
X2148425Y1090978D01*
X2179047D01*
X2179207Y1091139D02*
X2268783D01*
X2268703Y1171219D02*
X2268783Y1171139D01*
X2193863Y1171219D02*
X2268703D01*
X2193783Y1171299D02*
X2193863Y1171219D01*
X2936283Y863639D02*
X2936443Y863479D01*
Y767796D02*
Y863479D01*
X2976283Y791139D02*
Y863639D01*
Y791139D02*
X3083880Y683541D01*
X2295248Y1719354D02*
X2336123Y1678479D01*
X2295248Y1719354D02*
Y1760848D01*
X1167263Y2042263D02*
Y2136549D01*
X998812Y2305000D02*
X1167263Y2136549D01*
X1160000Y2035000D02*
X1167263Y2042263D01*
X669913Y2305000D02*
X998812D01*
X1026237Y2525000D02*
X1167263D01*
X946237Y2605000D02*
X1026237Y2525000D01*
X2270110Y3060000D02*
X2316481D01*
X2422731Y3166250D01*
X2481727Y2750842D02*
Y2802500D01*
Y2750842D02*
X2505069Y2727500D01*
X2818312Y3036250D02*
X2843313D01*
X2808472Y3026410D02*
X2818312Y3036250D01*
X2808472Y2976100D02*
Y3026410D01*
Y3176090D02*
Y3276852D01*
X2780813Y3285413D02*
X2799912D01*
X2808472Y3276852D01*
Y3176090D02*
X2818312Y3166250D01*
X2843313D01*
X2422731D02*
X2618313D01*
X2505069Y2727500D02*
X2618313D01*
X3083880Y683541D02*
X3203673D01*
X2618313Y2727500D02*
Y2786043D01*
X2679519Y2847250D01*
X3151712D01*
X2913603Y3036250D02*
X2978602Y3101250D01*
X2843313Y3036250D02*
X2913603D01*
X2978602Y3101250D02*
X3151712D01*
X2618313Y3166250D02*
Y3238772D01*
X3481582Y3228250D02*
X3558112D01*
X3454912Y3254920D02*
X3481582Y3228250D01*
X3138834Y3215372D02*
X3151712Y3228250D01*
X2868313Y3166250D02*
X2917434Y3215372D01*
X3138834D01*
X2843313Y3166250D02*
X2868313D01*
X7840000Y4480000D02*
X7870000Y4510000D01*
X669913Y2605000D02*
X946237D01*
X1527545Y1131138D02*
Y1319627D01*
X1534057Y1576139D02*
Y1758613D01*
X3203673Y683541D02*
X3221173Y666041D01*
Y504188D02*
Y666041D01*
X3393078Y824137D02*
X3596173D01*
X3388673Y828541D02*
X3393078Y824137D01*
X1642633Y1575062D02*
X1741557Y1476139D01*
X1534057Y1576139D02*
X1535133Y1575062D01*
X1741557Y1476139D02*
X1811086D01*
X1535133Y1575062D02*
X1642633D01*
X1961086Y1476139D02*
X1976086Y1491138D01*
X2108586Y1051139D02*
X2268783D01*
X2068586D02*
X2108586D01*
X3043783Y1331139D02*
X3173695D01*
X4494912Y4743371D02*
X4570600D01*
X4169913Y4893371D02*
X4264912D01*
X4144912Y4843371D02*
X4264912D01*
X4184881Y4743340D02*
X4264881D01*
X4159912Y4793371D02*
X4264912D01*
D57*
X3365727Y1536551D02*
X3491264Y1662088D01*
X3374624Y1527654D02*
X3388230D01*
X3360000Y1520000D02*
X3365412Y1525412D01*
X3371139Y1531139D01*
X3374624Y1527654D01*
X3388230D02*
X3391716Y1531139D01*
X3596173D01*
X3491264Y1662088D02*
Y1693058D01*
X4363255Y1134137D02*
X4707499D01*
X4411514Y1199137D02*
X4707499D01*
X2700812Y2455000D02*
X2730812Y2485000D01*
Y2692500D02*
X2765812Y2727500D01*
X2730812Y2485000D02*
Y2692500D01*
X3147462Y2597500D02*
X3151712Y2593250D01*
X2843313Y2597500D02*
X3147462D01*
X2776283Y1816988D02*
X2816283Y1776988D01*
Y1638639D02*
Y1776988D01*
X2896283Y1638639D02*
Y1771486D01*
X2917301Y1792505D01*
Y1797917D01*
X2716109Y1774490D02*
X2776283Y1714316D01*
Y1638639D02*
Y1714316D01*
X4111117Y1680022D02*
X4397001Y1394138D01*
X3932785Y1858354D02*
X4111117Y1680022D01*
Y1788357D02*
X4168143Y1845383D01*
Y1879824D01*
X4111117Y1680022D02*
Y1788357D01*
X3728662Y1119851D02*
X3803662Y1044851D01*
X3728662Y1119851D02*
Y1331139D01*
X3332520Y1816516D02*
X3374358Y1858354D01*
X3332520Y1660728D02*
Y1816516D01*
X3162930Y1491138D02*
X3332520Y1660728D01*
X3374358Y1858354D02*
X3932785D01*
X3043783Y1491138D02*
X3162930D01*
X2419843Y2655134D02*
Y2824999D01*
Y2655134D02*
X2481727Y2593250D01*
X2614062D01*
X2132764Y1370979D02*
X2132924Y1371138D01*
X2268783D01*
X3043783Y1411139D02*
X3137403D01*
X3143371Y1405171D01*
X3148783D01*
X2419843Y2824999D02*
X2484844Y2890000D01*
X2193783Y1331139D02*
X2268783D01*
X3596173Y1451139D02*
X4046254D01*
X3446849D02*
X3596173D01*
Y1371138D02*
Y1451139D01*
X3636173Y1331139D02*
X3728662D01*
X3596173Y1371138D02*
X3636173Y1331139D01*
X3596173Y1531139D02*
Y1575062D01*
X3649750Y1628638D02*
X3695000D01*
X3596173Y1575062D02*
X3649750Y1628638D01*
X3695000D02*
X3725000Y1658639D01*
X4397001Y1394138D02*
X4707499D01*
X4079513Y1531139D02*
X4411514Y1199137D01*
X3596173Y1531139D02*
X4079513D01*
X3403151Y1451139D02*
X3404290Y1450000D01*
X3445710D02*
X3446849Y1451139D01*
X3043783D02*
X3403151D01*
X3404290Y1450000D02*
X3445710D01*
X4046254Y1451139D02*
X4363255Y1134137D01*
X2576283Y2442421D02*
X2614062Y2480201D01*
Y2593250D01*
X2484844Y2890000D02*
X2869911D01*
X2954161Y2974250D01*
X2696283Y2455000D02*
X2700812D01*
X2765812Y2727500D02*
X2843313D01*
X2821283Y2457706D02*
X2843313Y2479736D01*
Y2597500D01*
X2821283Y2455000D02*
Y2457706D01*
X2843313Y2727500D02*
X3144462D01*
X2954161Y2974250D02*
X3151712D01*
D58*
X4670000Y240000D02*
X4784000Y126000D01*
Y-41146D02*
Y126000D01*
Y-41146D02*
X4791886Y-49032D01*
Y-111886D02*
Y-49032D01*
X4850000Y-255000D02*
Y-170000D01*
X4791886Y-111886D02*
X4850000Y-170000D01*
X4835000Y-270000D02*
X4850000Y-255000D01*
X4552854Y852146D02*
Y1023452D01*
Y852146D02*
X4555000Y850000D01*
X2384912Y4920372D02*
Y5045371D01*
X2335259Y5095025D02*
X2384912Y5045371D01*
X3324383Y3580000D02*
Y3707102D01*
X4552854Y629999D02*
X4555000Y627853D01*
X4552854Y629999D02*
Y850000D01*
Y1023452D02*
X4588540Y1059137D01*
X4707499D01*
X3373167Y1173132D02*
X3401264D01*
X3371975Y1174324D02*
X3373167Y1173132D01*
X3401264D02*
X3422916Y1151481D01*
Y1148132D02*
Y1151481D01*
X1709447Y1879824D02*
X1712153D01*
X1747839Y1844138D01*
X1898695D01*
X1750605Y1658639D02*
X1898695D01*
X1715433Y1626173D02*
X1718139D01*
X1750605Y1658639D01*
X813706Y1259085D02*
X817212Y1255579D01*
X813706Y1259085D02*
Y1394680D01*
X7870000Y4778393D02*
X8130000D01*
Y4422440D02*
Y4628393D01*
X10450000Y4430000D02*
Y4632435D01*
X10148280Y4782435D02*
X10450000D01*
X6425000Y2270000D02*
Y2500000D01*
Y2650000D02*
Y2904484D01*
X6419484Y2910000D02*
X6425000Y2904484D01*
X2530000Y5365700D02*
X2823006D01*
X2490453Y2663040D02*
X2617772D01*
X2618313Y2662500D01*
X2489912Y2663581D02*
X2490453Y2663040D01*
X2507475Y3101250D02*
X2618313D01*
X2494813Y3091294D02*
X2497519D01*
X2507475Y3101250D01*
X10426333Y1325119D02*
X10435183Y1333969D01*
X10172912Y1325119D02*
X10426333D01*
X10164062Y1316269D02*
X10172912Y1325119D01*
X9608463Y1306269D02*
X9622313Y1320119D01*
X9871333D02*
X9885183Y1333969D01*
X9622313Y1320119D02*
X9871333D01*
X8579212Y1318361D02*
X8588707Y1327857D01*
X8798916D02*
X8820000Y1348940D01*
X8588707Y1327857D02*
X8798916D01*
X8831588Y1337352D02*
X8853904D01*
X8820000Y1348940D02*
X8831588Y1337352D01*
X8031936Y1338063D02*
X8298554D01*
X8301587Y1341096D01*
X8028904Y1335030D02*
X8031936Y1338063D01*
X7480242Y1338690D02*
X7752565D01*
X7753904Y1337352D01*
X7478904Y1340029D02*
X7480242Y1338690D01*
X6939904Y1355529D02*
X6946493Y1348940D01*
X7197315D02*
X7203904Y1342351D01*
X6946493Y1348940D02*
X7197315D01*
X2841289Y1916638D02*
X2856283Y1901645D01*
Y1841645D02*
Y1901645D01*
X1693371Y916041D02*
X1792315D01*
X1792412Y916138D01*
X3202049Y-196852D02*
Y-7365D01*
X687412Y-93636D02*
Y137909D01*
X179913Y230409D02*
X614912D01*
X622413Y202909D02*
X687412Y137909D01*
X3904912Y2762500D02*
Y2925000D01*
X614912Y230409D02*
X622413Y222909D01*
Y202909D02*
Y222909D01*
X614912Y230409D02*
X648692Y264188D01*
X817212D01*
X1949840Y923566D02*
Y1051139D01*
X1942412Y916138D02*
X1949840Y923566D01*
Y1051139D02*
Y1131138D01*
Y1051139D02*
X2068586D01*
X3596173Y-195308D02*
Y-1417D01*
X3973156Y-183746D02*
Y14837D01*
X2530000Y4982219D02*
Y5365700D01*
X2456848Y5055371D02*
X2530000Y4982219D01*
Y4835355D02*
Y4982219D01*
X2144913Y4878371D02*
X2198686Y4824598D01*
Y4785490D02*
Y4824598D01*
X1975912Y4946371D02*
X1987568Y4958027D01*
X1975912Y4750371D02*
Y4946371D01*
X1493662Y3822538D02*
X1494912Y3821289D01*
X1330679Y3823788D02*
X1331929Y3822538D01*
X1493662D01*
X1867412Y3195372D02*
X2142412D01*
X1985000Y2788250D02*
Y2926500D01*
Y2650000D02*
Y2788250D01*
X2032231D01*
X1384056Y2990000D02*
Y3130000D01*
Y2850000D02*
Y2990000D01*
X1317263Y2991250D02*
X1318513Y2990000D01*
X1384056D01*
X2048695Y1648639D02*
X2120388Y1576946D01*
X2161809D02*
X2161883Y1577020D01*
Y1577020D01*
X2120388Y1576946D02*
X2161809D01*
X387412Y1326139D02*
X594912D01*
X179913D02*
X387412D01*
X397412Y1336139D01*
Y1394680D01*
X5292499Y1924138D02*
X5469104D01*
X870000Y1800000D02*
X955000Y1885000D01*
X1160000D01*
X2002413Y3830371D02*
X2023781Y3851740D01*
X1318632Y2526368D02*
Y2688632D01*
X1317263Y2525000D02*
X1318632Y2526368D01*
Y2688632D02*
X1320000Y2690000D01*
X825000Y2951250D02*
X828750Y2955000D01*
X791161Y3568772D02*
X794912Y3572522D01*
X3558112Y2593250D02*
X3861662D01*
X3904912Y2550000D01*
X3862662Y2720250D02*
X3904912Y2762500D01*
X3558112Y2720250D02*
X3862662D01*
X3558112Y3101250D02*
X3878662D01*
X3904912Y3075000D01*
X3914912D01*
X2004912Y3385371D02*
X2142412D01*
X1867412D02*
X2004912D01*
X5790000Y3010000D02*
X5840000Y3060000D01*
X6365000D01*
X3827162Y2847250D02*
X3904912Y2925000D01*
X3558112Y2847250D02*
X3827162D01*
X3324383Y1331139D02*
X3337382Y1344138D01*
X3173695Y1331139D02*
X3324383D01*
X1898695Y1658639D02*
Y1844138D01*
X2211957D02*
X2295248Y1760848D01*
X2048695Y1844138D02*
X2211957D01*
X2048695Y1648639D02*
Y1658639D01*
X2384912Y4770372D02*
X2389964Y4775424D01*
X2470069D01*
X2530000Y4835355D01*
X2142412Y3195372D02*
X2162412Y3215372D01*
X2172412D01*
X2142412Y3385371D02*
X2162412Y3365371D01*
X2172412D01*
X1502082Y3319661D02*
X1531371Y3290372D01*
X1667412D01*
X1502082Y3319661D02*
Y3328202D01*
X1494912Y3335372D02*
X1502082Y3328202D01*
X1494912Y3485372D02*
Y3671289D01*
X2023781Y3851740D02*
Y3930372D01*
X2172412Y3830371D02*
Y3930372D01*
X2270110Y3972672D02*
X2306104Y3936677D01*
X2355612D01*
X2400612Y3891677D01*
Y3880371D02*
Y3891677D01*
X2384912Y4667272D02*
Y4770372D01*
Y4667272D02*
X2419843Y4632341D01*
X2634912Y4490372D02*
Y4632341D01*
X2245394Y5095025D02*
X2335259D01*
X2243481Y5096938D02*
X2245394Y5095025D01*
X2243481Y5096938D02*
Y5314745D01*
X2114120Y5092730D02*
X2129912Y5076938D01*
X2114120Y5092730D02*
Y5312384D01*
X2116481Y5314745D01*
X2129912Y4950371D02*
Y5076938D01*
X2144913Y4878371D02*
Y4935371D01*
X2129912Y4950371D02*
X2144913Y4935371D01*
X1987568Y4958027D02*
Y5096938D01*
X1989481Y5098851D01*
Y5314745D01*
D59*
X5070000Y550000D02*
X5290000Y330000D01*
Y80000D02*
Y330000D01*
Y80000D02*
X5440000Y-70000D01*
X5070000Y550000D02*
Y1116139D01*
X5440000Y-70000D02*
X5550000D01*
X5292499Y677501D02*
X5550000Y420000D01*
X5292499Y677501D02*
Y1059137D01*
X5550000Y310000D02*
Y420000D01*
X5152999Y1199137D02*
X5292499D01*
X5070000Y1116139D02*
X5152999Y1199137D01*
X3221173Y1174324D02*
X3371975D01*
X648158Y3725000D02*
X910000D01*
X630584Y3742574D02*
X648158Y3725000D01*
X630584Y3742574D02*
Y3945371D01*
X2311481Y4215372D02*
X2474490D01*
X2605491Y4084371D02*
X2716412D01*
X2474490Y4215372D02*
X2605491Y4084371D01*
X2697964Y4144280D02*
X2699877Y4142367D01*
Y4100906D02*
X2716412Y4084371D01*
X2699877Y4100906D02*
Y4142367D01*
X2716412Y4084371D02*
X2795830Y4163789D01*
X2672433Y4215572D02*
X2754912Y4298052D01*
X2622292Y4215572D02*
X2672433D01*
X2754912Y4298052D02*
Y4340372D01*
X2618313Y4211593D02*
X2622292Y4215572D01*
X2754912Y4340372D02*
X2777412Y4362872D01*
X2696283Y4770372D02*
X2859912D01*
X2584913D02*
X2696283D01*
Y4789001D01*
X2639912Y4845372D02*
X2696283Y4789001D01*
X4571100Y4843371D02*
X4613600Y4885871D01*
X1749212Y4636531D02*
Y4785371D01*
X1731712Y4619031D02*
X1749212Y4636531D01*
X2023907Y4576005D02*
X2041481Y4558431D01*
X1977578Y4619031D02*
X2020605Y4576005D01*
X2023907D01*
X2041481Y4485372D02*
Y4558431D01*
X1903193Y4619031D02*
X1977578D01*
X1901481Y4617319D02*
X1903193Y4619031D01*
X1734912Y4799672D02*
X1749212Y4785371D01*
X5469104Y681772D02*
Y1339962D01*
X5725876Y425000D02*
X9526793D01*
X5469104Y681772D02*
X5725876Y425000D01*
X5570000Y782679D02*
Y1359137D01*
X5812345Y540334D02*
X9096529D01*
X5570000Y782679D02*
X5812345Y540334D01*
X5926015Y635584D02*
X8150435D01*
X5670000Y891599D02*
X5926015Y635584D01*
X5670000Y891599D02*
Y1389138D01*
X5772291Y956250D02*
Y1418847D01*
X5992032Y736510D02*
X7684383D01*
X5772291Y956250D02*
X5992032Y736510D01*
X5470000Y1459138D02*
X5570000Y1359137D01*
X5535000Y1524138D02*
X5670000Y1389138D01*
X5602001Y1589138D02*
X5772291Y1418847D01*
X5292499Y1394138D02*
X5414929D01*
X5469104Y1339962D01*
X5292499Y1459138D02*
X5470000D01*
X5292499Y1524138D02*
X5535000D01*
X5292499Y1589138D02*
X5602001D01*
X9096529Y540334D02*
X9608463Y1052269D01*
X7684383Y736510D02*
X8028904Y1081030D01*
X5900000Y1033413D02*
X6083413Y850000D01*
X5900000Y1033413D02*
Y1469315D01*
X6083413Y850000D02*
X7236528D01*
X5292499Y1654138D02*
X5715176D01*
X5900000Y1469315D01*
X5292499Y1719138D02*
X5849516D01*
X6025000Y1131138D02*
Y1543655D01*
X5849516Y1719138D02*
X6025000Y1543655D01*
Y1131138D02*
X6206139Y950000D01*
X6788375D01*
X5983413Y1784138D02*
X6166897Y1600655D01*
X5292499Y1784138D02*
X5983413D01*
X6166897Y1200000D02*
Y1600655D01*
Y1200000D02*
X6213474Y1153423D01*
X6273962D02*
X6325856Y1101529D01*
X6213474Y1153423D02*
X6273962D01*
X6325856Y1101529D02*
X6342500Y1118173D01*
X9526793Y425000D02*
X10164062Y1062269D01*
X8150435Y635584D02*
X8529281Y1014430D01*
X8579212Y1064361D01*
X7236528Y850000D02*
X7385957Y999429D01*
X7392304D02*
X7478904Y1086029D01*
X7385957Y999429D02*
X7392304D01*
X6788375Y950000D02*
X6939904Y1101529D01*
X4100266Y2345000D02*
X4218127D01*
X4049912Y2395354D02*
Y2849018D01*
Y2395354D02*
X4100266Y2345000D01*
X1714401Y4252826D02*
X1776947Y4315372D01*
X1475570Y4252826D02*
X1714401D01*
X1779912Y4165372D02*
X1921481D01*
X1594912Y3980372D02*
X1779912Y4165372D01*
X1475570Y4315372D02*
X1684913D01*
X1776947D02*
X1921481D01*
X1734912Y4365372D02*
X1921481D01*
X1684913Y4315372D02*
X1734912Y4365372D01*
X4613600Y4885871D02*
Y5321971D01*
X4651629Y5360000D02*
X4730000D01*
X4613600Y5321971D02*
X4651629Y5360000D01*
X4218127Y2345000D02*
X4225627Y2352500D01*
X4397500D01*
X4405000Y2360000D01*
X4221848Y3020953D02*
X4312560D01*
X4049912Y2849018D02*
X4221848Y3020953D01*
X4425542Y2835000D02*
X4439560Y2849018D01*
Y3020953D01*
X4405000Y2740000D02*
X4425542Y2760542D01*
Y2835000D01*
X4397500Y2732500D02*
X4405000Y2740000D01*
X4220000Y2725000D02*
X4227500Y2732500D01*
X4397500D01*
X4727500Y2362500D02*
Y2517500D01*
X4725000Y2360000D02*
X4727500Y2362500D01*
Y2517500D02*
X4730000Y2520000D01*
X4693560Y3663560D02*
X4746020Y3716020D01*
X4766020D02*
X4770000Y3720000D01*
X4746020Y3716020D02*
X4766020D01*
X4693560Y3504166D02*
Y3663560D01*
X1126562Y4033721D02*
X1179912Y3980372D01*
X1594912D01*
X2419912Y4165372D02*
X2494912Y4090372D01*
X2311481Y4165372D02*
X2419912D01*
X2734912Y3526289D02*
X2867412D01*
X2867412Y3741288D02*
X2867412Y3741288D01*
Y3526289D02*
Y3741288D01*
Y3951289D02*
X2867413Y3951289D01*
Y4163789D01*
X2795830D02*
X2867413D01*
X2777412Y4362872D02*
X2869912D01*
X2514912Y4618451D02*
Y4700372D01*
X2584913Y4770372D01*
X2462477Y4566015D02*
X2514912Y4618451D01*
X2462477Y4470372D02*
Y4566015D01*
X2859912Y4770372D02*
X2864912Y4765371D01*
X2407477Y4415372D02*
X2462477Y4470372D01*
X2311481Y4415372D02*
X2407477D01*
X2456848Y4340372D02*
X2462477D01*
X2431848Y4365372D02*
X2456848Y4340372D01*
X2311481Y4365372D02*
X2431848D01*
X2869912Y4362872D02*
Y4567871D01*
X3929912Y4918371D02*
X4069912D01*
X4144912Y4843371D01*
X2864912Y4765371D02*
Y4972871D01*
X2864912Y4765371D02*
X2864912Y4765371D01*
X499913Y4315372D02*
X1475570D01*
X1519577Y4359379D01*
Y4505371D01*
X474152Y4252826D02*
X1475570D01*
X1501807Y4155750D02*
Y4226589D01*
Y4155750D02*
X1525968Y4131589D01*
X1475570Y4252826D02*
X1501807Y4226589D01*
X1126562Y4033721D02*
Y4114922D01*
X1051113Y4190372D02*
X1126562Y4114922D01*
X431129Y4190372D02*
X1051113D01*
X309912Y4311589D02*
X431129Y4190372D01*
X309912Y4311589D02*
Y4855372D01*
X359912Y4367065D02*
X474152Y4252826D01*
X359912Y4367065D02*
Y4810372D01*
X409912Y4405372D02*
X499913Y4315372D01*
X409912Y4405372D02*
Y4560372D01*
X549912Y5095372D02*
X654912D01*
X669912Y5110372D01*
X309912Y4855372D02*
X549912Y5095372D01*
X359912Y4810372D02*
X544912Y4995372D01*
X669912D01*
X544912Y4695372D02*
X669912D01*
X409912Y4560372D02*
X544912Y4695372D01*
X1734912Y4799672D02*
Y5020371D01*
D60*
X2911031Y2323498D02*
X3024237Y2210293D01*
X2588769Y2295000D02*
X2882533D01*
X2588769Y2335302D02*
X2899227D01*
X2911031Y2323498D01*
Y2323498D02*
Y2323498D01*
Y2323498D02*
X2911031D01*
X2882533Y2295000D02*
X2983934Y2193599D01*
X3024237Y1777056D02*
Y2210293D01*
X2489912Y2335302D02*
X2588769D01*
X2489912Y2295000D02*
X2588769D01*
X2459066Y2335302D02*
X2489912D01*
X2459066Y2295000D02*
X2489912D01*
X2983934Y1777484D02*
Y2193599D01*
X3023934Y1760915D02*
Y1776754D01*
X2976283Y1713264D02*
X3023934Y1760915D01*
Y1776754D02*
X3024237Y1777056D01*
X2936283Y1729832D02*
X2983934Y1777484D01*
X2936283Y1638639D02*
Y1729832D01*
X2976283Y1638639D02*
Y1713264D01*
X2180719Y2299849D02*
X2294725D01*
X2180719Y2340151D02*
X2303072D01*
X2299574Y2295000D02*
X2303072D01*
X2294725Y2299849D02*
X2299574Y2295000D01*
X2097412Y2340151D02*
X2180719D01*
X2097412Y2299849D02*
X2180719D01*
X1793221D02*
X2097412D01*
X1794202Y2340151D02*
X2097412D01*
X2303072Y2295000D02*
X2459066D01*
X2316268Y2335302D02*
X2459066D01*
X2311419Y2340151D02*
X2316268Y2335302D01*
X2303072Y2340151D02*
X2311419D01*
X1752069Y2345000D02*
X1789353D01*
X1794202Y2340151D01*
X1752069Y2295000D02*
X1788372D01*
X1793221Y2299849D01*
D61*
X2856283Y519138D02*
Y863639D01*
X2837653Y-93636D02*
X2856283Y-75007D01*
Y401739D01*
X2837653Y-93636D02*
X2842656Y-98638D01*
Y-278615D02*
Y-98638D01*
X2842653Y-610006D02*
Y-440006D01*
X2837653Y-435006D02*
X2842653Y-440006D01*
X2842654Y-815006D02*
Y-610006D01*
D62*
X6626393Y1361662D02*
X6636904Y1351151D01*
X6342500Y1372173D02*
X6353011Y1361662D01*
X6626393D01*
D63*
X3974992Y3580000D02*
D03*
D64*
X2842643Y-909994D02*
D03*
D65*
X2967654Y-965017D02*
D03*
D66*
X3092641Y-1024994D02*
D03*
X2202643Y-1144994D02*
D03*
X3092641Y-1264994D02*
D03*
X2202666Y-1385017D02*
D03*
D67*
X2647654Y-1085005D02*
D03*
D68*
X2647655Y-1205006D02*
D03*
X2647654Y-1325005D02*
D03*
D69*
X2512645Y-1445015D02*
D03*
D70*
X2842653Y-819943D02*
D03*
D71*
X10416440Y5647440D02*
D03*
X10430000Y-83910D02*
D03*
X4840000Y-600000D02*
D03*
X6939904Y2785000D02*
D03*
X2554913Y6075156D02*
D03*
X1434065D02*
D03*
X2823006Y5365700D02*
D03*
X978033Y3935931D02*
D03*
X1766667Y3875000D02*
D03*
X3373223Y6075156D02*
D03*
X4050000D02*
D03*
X3714912D02*
D03*
X4404100D02*
D03*
X4168143Y1879824D02*
D03*
X3803662Y1044851D02*
D03*
X3491264Y1693058D02*
D03*
X4938290Y4943371D02*
D03*
X3524073Y2178717D02*
D03*
X8230000Y4060000D02*
D03*
X10500000Y4087440D02*
D03*
X630584Y3945371D02*
D03*
D72*
X302747Y-499994D02*
D03*
X300000Y6000000D02*
D03*
X10000000D02*
D03*
Y-500000D02*
D03*
D73*
X2108586Y26254D02*
D03*
X1554390D02*
D03*
X1300390D02*
D03*
X2100695Y674137D02*
D03*
X1563057Y680688D02*
D03*
X1309057D02*
D03*
X2302695Y-610006D02*
D03*
X2048695D02*
D03*
X1794695D02*
D03*
X1540695D02*
D03*
X1286695D02*
D03*
X10164062Y1570269D02*
D03*
Y1316269D02*
D03*
X9608463Y1560269D02*
D03*
Y1306269D02*
D03*
X8579212Y1572361D02*
D03*
Y1318361D02*
D03*
X8028904Y1589030D02*
D03*
Y1335030D02*
D03*
X7478904Y1594029D02*
D03*
Y1340029D02*
D03*
X6939904Y1609529D02*
D03*
Y1355529D02*
D03*
X6636904Y1351151D02*
D03*
X6342500Y1626173D02*
D03*
Y1372173D02*
D03*
D74*
X1854586Y26254D02*
D03*
X1046390D02*
D03*
X1846695Y674137D02*
D03*
X1055057Y680688D02*
D03*
X1032695Y-610006D02*
D03*
D75*
X7908000Y2349992D02*
D03*
X10230000D02*
D03*
D76*
X7408000D02*
D03*
X9730000D02*
D03*
D77*
X544912Y4580372D02*
D03*
Y5160371D02*
D03*
X544913Y2190000D02*
D03*
Y2770000D02*
D03*
D78*
X594912Y5302872D02*
D03*
Y4437871D02*
D03*
X594912Y2912500D02*
D03*
Y2047500D02*
D03*
D79*
X174912Y4437871D02*
D03*
Y5302872D02*
D03*
X174913Y2047500D02*
D03*
Y2912500D02*
D03*
D80*
X10164062Y1062269D02*
D03*
X9608463Y1052269D02*
D03*
X8579212Y1064361D02*
D03*
X8028904Y1081030D02*
D03*
X7478904Y1086029D02*
D03*
X6939904Y1101529D02*
D03*
X6636904Y1097151D02*
D03*
X6342500Y1118173D02*
D03*
D81*
X3154831Y3526289D02*
D03*
Y3741288D02*
D03*
Y3951289D02*
D03*
X3591840Y3492619D02*
D03*
X3360000Y1520000D02*
D03*
X4670000Y240000D02*
D03*
X4041439Y5255419D02*
D03*
X3764912Y5128371D02*
D03*
X3664929Y4569971D02*
D03*
X3764912Y4508371D02*
D03*
X3841840Y2492619D02*
D03*
X4723353Y3215372D02*
D03*
X4720000Y3314817D02*
D03*
X4537450Y5418371D02*
D03*
X3654912Y5068371D02*
D03*
X3841840Y1992619D02*
D03*
X3716840Y2242619D02*
D03*
X4466840Y1742619D02*
D03*
X4341840Y1992619D02*
D03*
X4591840D02*
D03*
X4301176Y3205770D02*
D03*
Y3314817D02*
D03*
X4184881Y3311125D02*
D03*
X1709447Y1879824D02*
D03*
X1715433Y1626173D02*
D03*
X5591840Y1992619D02*
D03*
X5091840D02*
D03*
X4966840Y1742619D02*
D03*
X5091840Y1492619D02*
D03*
X4841840Y1992619D02*
D03*
Y1492619D02*
D03*
X4466840Y-257381D02*
D03*
X4591840Y-507381D02*
D03*
X4216840Y-257381D02*
D03*
X4341840Y-507381D02*
D03*
X3966840Y1242619D02*
D03*
X4091840Y992619D02*
D03*
X3966840Y742619D02*
D03*
X4091840Y492619D02*
D03*
Y-7381D02*
D03*
Y-507381D02*
D03*
X3841840D02*
D03*
X3591840Y992619D02*
D03*
Y-507381D02*
D03*
X3216840Y4242619D02*
D03*
X3341840Y1992619D02*
D03*
Y-507381D02*
D03*
X3091840Y1992619D02*
D03*
Y-507381D02*
D03*
X2466840Y2242619D02*
D03*
Y-257381D02*
D03*
X2091840Y1992619D02*
D03*
X1966840Y1742619D02*
D03*
X1716840Y2242619D02*
D03*
X1841840Y1992619D02*
D03*
X1716840Y1742619D02*
D03*
X1591840Y2492619D02*
D03*
X1466840Y2242619D02*
D03*
X1591840Y1992619D02*
D03*
X1341840Y992619D02*
D03*
X1091840D02*
D03*
X841840Y-7381D02*
D03*
X716840Y-257381D02*
D03*
X841840Y-507381D02*
D03*
X591840Y992619D02*
D03*
Y-507381D02*
D03*
X341840Y992619D02*
D03*
X2489912Y2663581D02*
D03*
X3532673Y3912871D02*
D03*
X3750000Y3916220D02*
D03*
X3837197Y4019774D02*
D03*
X3645895Y4020372D02*
D03*
X3438532Y4019774D02*
D03*
X2494813Y3091294D02*
D03*
X3425543Y4918371D02*
D03*
X3429964Y4713371D02*
D03*
X8635000Y2512969D02*
D03*
X6937500Y2362500D02*
D03*
X6309984Y1884138D02*
D03*
X6622212Y1924138D02*
D03*
X7318204Y1849139D02*
D03*
X8475218Y1860000D02*
D03*
X9022683D02*
D03*
X8668514Y780000D02*
D03*
X8076144Y850000D02*
D03*
X7153920Y1043971D02*
D03*
X7626940Y915073D02*
D03*
X6357193Y-60163D02*
D03*
X6871380Y-59707D02*
D03*
X7547428D02*
D03*
X8208182Y-50000D02*
D03*
X8844917Y-130000D02*
D03*
X8301587Y-517236D02*
D03*
X7596341Y-549984D02*
D03*
X6896828Y-534141D02*
D03*
X6299424D02*
D03*
X9333145Y1025977D02*
D03*
X10041440Y711020D02*
D03*
X9952683Y2230000D02*
D03*
X9350000Y1529285D02*
D03*
X9885183Y1062269D02*
D03*
X10470000Y976717D02*
D03*
X10207138Y2600000D02*
D03*
X10253364Y2050000D02*
D03*
X8041440Y4005419D02*
D03*
X8166440Y3755419D02*
D03*
X8041440Y3505419D02*
D03*
X8166440Y3255419D02*
D03*
X8041440Y3005419D02*
D03*
X7791440Y4005419D02*
D03*
X7916440Y3755419D02*
D03*
X10291440Y4005419D02*
D03*
X10416440Y3755419D02*
D03*
X10291440Y3505419D02*
D03*
X10416440Y3255419D02*
D03*
X10041440Y4005419D02*
D03*
X10166440Y3755419D02*
D03*
X10416440Y505419D02*
D03*
X10166440Y5505419D02*
D03*
X10041440Y5255419D02*
D03*
X10166440Y5005419D02*
D03*
X10041440Y4755419D02*
D03*
X9916440Y5505419D02*
D03*
X9791440Y5255419D02*
D03*
X9916440Y5005419D02*
D03*
X9666440Y5505419D02*
D03*
X9541440Y5255419D02*
D03*
X9666440Y5005419D02*
D03*
X9541440Y4755419D02*
D03*
X9666440Y-494581D02*
D03*
X9416440Y5505419D02*
D03*
X9291440Y5255419D02*
D03*
X9416440Y5005419D02*
D03*
Y505419D02*
D03*
X9291440Y255419D02*
D03*
Y-244581D02*
D03*
Y-744581D02*
D03*
X9166440Y5505419D02*
D03*
X8416440Y4505419D02*
D03*
X7791440Y5255419D02*
D03*
X7916440Y5005419D02*
D03*
X7791440Y4755419D02*
D03*
X7541440Y5255419D02*
D03*
X7666440Y5005419D02*
D03*
X7291440Y5255419D02*
D03*
X7416440Y5005419D02*
D03*
X7291440Y4755419D02*
D03*
X7041440Y5255419D02*
D03*
X7166440Y5005419D02*
D03*
X6916440D02*
D03*
X6041440Y4755419D02*
D03*
X5791440Y5255419D02*
D03*
X5916440Y5005419D02*
D03*
X5791440Y4755419D02*
D03*
X5916440Y4505419D02*
D03*
X5791440Y4255419D02*
D03*
X5916440Y4005419D02*
D03*
X5791440Y3755419D02*
D03*
X5916440Y3505419D02*
D03*
Y2005419D02*
D03*
X5541440Y5255419D02*
D03*
X5666440Y5005419D02*
D03*
X5541440Y4755419D02*
D03*
X5666440Y4505419D02*
D03*
X5541440Y4255419D02*
D03*
X5666440Y4005419D02*
D03*
Y3505419D02*
D03*
X5291440Y5255419D02*
D03*
X5416440Y4505419D02*
D03*
X5291440Y4255419D02*
D03*
X5416440Y4005419D02*
D03*
Y3505419D02*
D03*
X5041439Y5255419D02*
D03*
Y4755419D02*
D03*
X5166440Y4505419D02*
D03*
X5041439Y4255419D02*
D03*
X5166440Y4005419D02*
D03*
Y3505419D02*
D03*
X5041439Y3255419D02*
D03*
X4791439Y4755419D02*
D03*
X4916439Y4505419D02*
D03*
Y4005419D02*
D03*
X4041439Y3255419D02*
D03*
X3416439Y5005419D02*
D03*
X916439Y6005419D02*
D03*
X791439Y3255419D02*
D03*
X666439Y6005419D02*
D03*
X541439Y5755419D02*
D03*
X666439Y3505419D02*
D03*
X541439Y3255419D02*
D03*
X291439Y5755419D02*
D03*
X416439Y3505419D02*
D03*
X291439Y3255419D02*
D03*
X6804948Y4403210D02*
D03*
Y4516755D02*
D03*
X6720000Y4403210D02*
D03*
X6720500Y4516755D02*
D03*
X6235000Y4418354D02*
D03*
Y4497440D02*
D03*
X6329560Y4418354D02*
D03*
Y4497440D02*
D03*
X8545000Y4410000D02*
D03*
Y4505000D02*
D03*
X8635000Y4410000D02*
D03*
X8636278Y4510000D02*
D03*
X9135000Y4410000D02*
D03*
Y4505000D02*
D03*
X9046341Y4410000D02*
D03*
Y4510000D02*
D03*
X4839490Y3215372D02*
D03*
Y3311125D02*
D03*
X4184881Y3205770D02*
D03*
X2856283Y1841645D02*
D03*
X2123695Y1576946D02*
D03*
X2236950Y1819145D02*
D03*
X3800000Y3750000D02*
D03*
X4427412Y5418371D02*
D03*
X2243481Y5096938D02*
D03*
X1330679Y3823788D02*
D03*
X1784412Y3555371D02*
D03*
Y3655371D02*
D03*
X2114912Y4190372D02*
D03*
X2014912Y4290372D02*
D03*
Y4390371D02*
D03*
X1317263Y2991250D02*
D03*
X5469104Y1924138D02*
D03*
X1320000Y2690000D02*
D03*
X3800000Y3530000D02*
D03*
Y3640000D02*
D03*
X3910000Y3430000D02*
D03*
X3800000D02*
D03*
X3910000Y3750000D02*
D03*
X1840000Y2450000D02*
D03*
X875000Y1800000D02*
D03*
X650000D02*
D03*
X400000D02*
D03*
X150000D02*
D03*
X650000Y3175000D02*
D03*
X400000D02*
D03*
X150000D02*
D03*
X972712Y2210000D02*
D03*
Y2113744D02*
D03*
X1075012Y2692500D02*
D03*
X900000Y2690000D02*
D03*
X1520000Y2450000D02*
D03*
X1680000D02*
D03*
X1009912Y3720758D02*
D03*
X910000Y3725000D02*
D03*
X3083880Y475438D02*
D03*
X3904912Y2550000D02*
D03*
X6425000Y2270000D02*
D03*
X2004912Y3385371D02*
D03*
X2584912Y3680372D02*
D03*
X2684912D02*
D03*
X3157331Y4564432D02*
D03*
X2442412Y3555371D02*
D03*
Y3655371D02*
D03*
X1242263Y4505371D02*
D03*
Y4131589D02*
D03*
X859912Y5520371D02*
D03*
X659912D02*
D03*
Y5695372D02*
D03*
Y5870372D02*
D03*
X459912Y5520371D02*
D03*
X3152331Y4765371D02*
D03*
X3157331Y4362872D02*
D03*
X3154831Y4163789D02*
D03*
X3152331Y4972871D02*
D03*
X2114912Y4290372D02*
D03*
X2214912D02*
D03*
Y4190372D02*
D03*
X2014912D02*
D03*
X2114912Y4390371D02*
D03*
X2214912D02*
D03*
X1989481Y5098851D02*
D03*
X259912Y5520371D02*
D03*
X889912Y4509972D02*
D03*
X1037712Y4505371D02*
D03*
D82*
X3387447Y2352796D02*
D03*
X2456848Y5055371D02*
D03*
X4011014Y1640865D02*
D03*
X4005532Y1362334D02*
D03*
X3324383Y3707102D02*
D03*
X2417117Y1839490D02*
D03*
X2917301Y1797917D02*
D03*
X2132764Y1255579D02*
D03*
X2062412Y1134083D02*
D03*
X3276359Y1098148D02*
D03*
X2601283Y677901D02*
D03*
X2711973Y672576D02*
D03*
X2788814D02*
D03*
Y754907D02*
D03*
X2656283Y618131D02*
D03*
X2420000Y440000D02*
D03*
X2550853Y728206D02*
D03*
X3221173Y1174324D02*
D03*
X2396297Y754907D02*
D03*
X2456283Y693185D02*
D03*
X2503405Y753639D02*
D03*
X3192161Y1003335D02*
D03*
X3276359Y1013032D02*
D03*
X2356137Y1754558D02*
D03*
X2516347Y1832864D02*
D03*
X2586037Y1778649D02*
D03*
X2716109Y1774490D02*
D03*
X2776283Y1816988D02*
D03*
X3216840Y1242619D02*
D03*
X817212Y1255579D02*
D03*
X2697964Y4144280D02*
D03*
X2639912Y4845372D02*
D03*
X2132764Y1370979D02*
D03*
X3148783Y1405171D02*
D03*
X4559194Y4946931D02*
D03*
X5960000Y2277957D02*
D03*
X8690812Y3422440D02*
D03*
X9310000Y3050000D02*
D03*
X1693371Y916041D02*
D03*
X3973156Y320901D02*
D03*
X3199847Y287386D02*
D03*
X687412Y-93636D02*
D03*
X2746870Y-391942D02*
D03*
X2745542Y-457328D02*
D03*
X2778598Y-513759D02*
D03*
X2778598Y-701560D02*
D03*
X2906709Y-707511D02*
D03*
X2929767Y-646311D02*
D03*
Y-580911D02*
D03*
X2906709Y-519711D02*
D03*
X2938936Y-462803D02*
D03*
X2939528Y-397405D02*
D03*
X2900369Y-345025D02*
D03*
X2792228Y253653D02*
D03*
Y188253D02*
D03*
Y122853D02*
D03*
Y57453D02*
D03*
X2777663Y-6305D02*
D03*
X2939769Y-291402D02*
D03*
X2934311Y-226230D02*
D03*
X2914880Y-163783D02*
D03*
X2924767Y-99135D02*
D03*
X2920398Y-33881D02*
D03*
X2920338Y31519D02*
D03*
Y96919D02*
D03*
Y162319D02*
D03*
Y227719D02*
D03*
Y293119D02*
D03*
X3491264Y3696221D02*
D03*
X3173695Y1331139D02*
D03*
X3596173Y298036D02*
D03*
X1731712Y4619031D02*
D03*
X2434896Y5770000D02*
D03*
X1690000Y2745000D02*
D03*
X2331481Y2466250D02*
D03*
X1839555Y2809982D02*
D03*
X1400000Y2148717D02*
D03*
X1475570Y3005000D02*
D03*
X1690000Y3100371D02*
D03*
X1616557Y3000000D02*
D03*
X2032231Y2788250D02*
D03*
X2193783Y1531139D02*
D03*
Y1411139D02*
D03*
X2101781Y2110000D02*
D03*
X2116481Y2943910D02*
D03*
X397412Y1394680D02*
D03*
X2193783Y1331139D02*
D03*
X946237Y1056139D02*
D03*
X2193783Y1171299D02*
D03*
X2938710Y765529D02*
D03*
X2576283Y2442421D02*
D03*
X2270110Y3060000D02*
D03*
X2481727Y2802500D02*
D03*
X2780813Y3285413D02*
D03*
X2696283Y2455000D02*
D03*
X2821283D02*
D03*
D83*
X4480550Y5565119D02*
D03*
X2931283Y976139D02*
D03*
X2821283D02*
D03*
X2711283D02*
D03*
X2601283D02*
D03*
X2491283D02*
D03*
X2381283D02*
D03*
X2931283Y1086139D02*
D03*
X2821283D02*
D03*
X2711283D02*
D03*
X2601283D02*
D03*
X2491283D02*
D03*
X2381283D02*
D03*
X2931283Y1196139D02*
D03*
X2821283D02*
D03*
X2711283D02*
D03*
X2601283D02*
D03*
X2491283D02*
D03*
X2381283D02*
D03*
X2931283Y1306139D02*
D03*
X2821283D02*
D03*
X2711283D02*
D03*
X2601283D02*
D03*
X2491283D02*
D03*
X2381283D02*
D03*
X2931283Y1416139D02*
D03*
X2821283D02*
D03*
X2711283D02*
D03*
X2601283D02*
D03*
X2491283D02*
D03*
X2381283D02*
D03*
X2931283Y1526139D02*
D03*
X2821283D02*
D03*
X2711283D02*
D03*
X2601283D02*
D03*
X2491283D02*
D03*
X2381283D02*
D03*
X1680000Y4500371D02*
D03*
D84*
X2618313Y4211593D02*
D03*
X2041481Y4626405D02*
D03*
X1901481Y4617319D02*
D03*
X1804912Y4538371D02*
D03*
X2191481Y4613451D02*
D03*
X2014591Y3197857D02*
D03*
X9101240Y4965641D02*
D03*
X9085000Y3710000D02*
D03*
X6795000Y4945000D02*
D03*
X6774938Y3730503D02*
D03*
X6394091Y3412088D02*
D03*
X4370000Y2190000D02*
D03*
X4613600Y4700372D02*
D03*
X4730000Y2520000D02*
D03*
X4770000Y3720000D02*
D03*
X2494912Y4090372D02*
D03*
X2734912Y3526289D02*
D03*
X2419843Y4632341D02*
D03*
X2462477Y4340372D02*
D03*
X2634912Y4632341D02*
D03*
X2297981Y4613451D02*
D03*
D85*
X4414912Y4778371D02*
D03*
Y4858371D02*
D03*
X4344912D02*
D03*
Y4778371D02*
D03*
%TF.MD5,16bea93af002ede9d8e504c66cf91e2e*%
M02*
