%TF.GenerationSoftware,Altium Limited,Altium Designer,25.6.2 (33)*%
G04 Layer_Physical_Order=4*
G04 Layer_Color=16711680*
%FSLAX45Y45*%
%MOMM*%
%TF.SameCoordinates,2E975FAE-7BB7-4674-B285-B64E5795C48D*%
%TF.FilePolarity,Positive*%
%TF.FileFunction,Copper,L4,Bot,Signal*%
%TF.Part,Single*%
G01*
G75*
%TA.AperFunction,Conductor*%
%ADD10C,0.25400*%
%TA.AperFunction,SMDPad,CuDef*%
G04:AMPARAMS|DCode=15|XSize=0.8mm|YSize=1mm|CornerRadius=0.1mm|HoleSize=0mm|Usage=FLASHONLY|Rotation=270.000|XOffset=0mm|YOffset=0mm|HoleType=Round|Shape=RoundedRectangle|*
%AMROUNDEDRECTD15*
21,1,0.80000,0.80000,0,0,270.0*
21,1,0.60000,1.00000,0,0,270.0*
1,1,0.20000,-0.40000,-0.30000*
1,1,0.20000,-0.40000,0.30000*
1,1,0.20000,0.40000,0.30000*
1,1,0.20000,0.40000,-0.30000*
%
%ADD15ROUNDEDRECTD15*%
%TA.AperFunction,Conductor*%
%ADD56C,0.20320*%
%ADD57C,0.20000*%
%ADD58C,0.50000*%
%ADD59C,0.30000*%
%TA.AperFunction,ComponentPad*%
%ADD71C,1.50000*%
%ADD72C,3.20000*%
%ADD73C,2.03200*%
%ADD74R,2.03200X2.03200*%
%ADD75R,1.40000X1.40000*%
%ADD76C,1.40000*%
%ADD77C,0.60000*%
%ADD78O,2.20000X1.00000*%
%ADD79O,1.90000X1.00000*%
%ADD80R,2.03200X2.03200*%
%TA.AperFunction,ViaPad*%
%ADD81C,0.60000*%
%ADD82C,0.40000*%
%ADD83C,0.50000*%
%ADD84C,0.50800*%
%ADD85C,0.45720*%
G36*
X6846855Y4340000D02*
Y3835152D01*
X6777606Y3765903D01*
X6767896D01*
X6754885Y3760513D01*
X6744927Y3750555D01*
X6739538Y3737544D01*
Y3723461D01*
X6744927Y3710450D01*
X6754885Y3700492D01*
X6767896Y3695103D01*
X6781979D01*
X6794990Y3700492D01*
X6804948Y3710450D01*
X6810338Y3723461D01*
Y3733171D01*
X6886366Y3809199D01*
X6891383Y3816708D01*
X6893145Y3825565D01*
Y4340000D01*
X9172683Y4340000D01*
Y3830414D01*
X9087669Y3745400D01*
X9077959D01*
X9064948Y3740011D01*
X9054990Y3730053D01*
X9049600Y3717042D01*
Y3702959D01*
X9054990Y3689948D01*
X9064948Y3679990D01*
X9077959Y3674600D01*
X9092042D01*
X9105053Y3679990D01*
X9115011Y3689948D01*
X9120400Y3702959D01*
Y3712669D01*
X9160950Y3753218D01*
X9172683Y3748358D01*
Y3236642D01*
X9160950Y3231782D01*
X8953926Y3438806D01*
X8946417Y3443823D01*
X8937560Y3445585D01*
X8710094D01*
X8707806Y3447873D01*
X8696780Y3452440D01*
X8684845D01*
X8673819Y3447873D01*
X8665379Y3439434D01*
X8660812Y3428407D01*
Y3416472D01*
X8665379Y3405446D01*
X8673819Y3397007D01*
X8684845Y3392440D01*
X8696780D01*
X8707806Y3397007D01*
X8710094Y3399295D01*
X8927973D01*
X9172683Y3154586D01*
Y-802454D01*
X6010000D01*
X6006945Y4331017D01*
X6015923Y4340000D01*
X6846855D01*
D02*
G37*
G36*
X10600000Y565824D02*
X9204297D01*
Y3796566D01*
X9219206Y3811474D01*
X9224223Y3818983D01*
X9225985Y3827840D01*
Y4340000D01*
X10600000Y4340000D01*
Y565824D01*
D02*
G37*
%LPC*%
G36*
X6951095Y2870000D02*
X6928714D01*
X6907095Y2864207D01*
X6887713Y2853017D01*
X6871887Y2837191D01*
X6860697Y2817808D01*
X6854904Y2796190D01*
Y2773809D01*
X6860697Y2752191D01*
X6871887Y2732809D01*
X6887713Y2716983D01*
X6907095Y2705792D01*
X6928714Y2700000D01*
X6951095D01*
X6972713Y2705792D01*
X6992095Y2716983D01*
X7007921Y2732809D01*
X7019111Y2752191D01*
X7024904Y2773809D01*
Y2796190D01*
X7019111Y2817808D01*
X7007921Y2837191D01*
X6992095Y2853017D01*
X6972713Y2864207D01*
X6951095Y2870000D01*
D02*
G37*
G36*
X8642957Y2552969D02*
X8627043D01*
X8612342Y2546879D01*
X8601090Y2535627D01*
X8595000Y2520925D01*
Y2505012D01*
X8601090Y2490311D01*
X8612342Y2479059D01*
X8627043Y2472969D01*
X8642957D01*
X8657658Y2479059D01*
X8668910Y2490311D01*
X8675000Y2505012D01*
Y2520925D01*
X8668910Y2535627D01*
X8657658Y2546879D01*
X8642957Y2552969D01*
D02*
G37*
G36*
X6945457Y2402500D02*
X6929544D01*
X6914842Y2396410D01*
X6903590Y2385158D01*
X6897500Y2370457D01*
Y2354544D01*
X6903590Y2339842D01*
X6914842Y2328590D01*
X6929544Y2322500D01*
X6945457D01*
X6960158Y2328590D01*
X6971410Y2339842D01*
X6977500Y2354544D01*
Y2370457D01*
X6971410Y2385158D01*
X6960158Y2396410D01*
X6945457Y2402500D01*
D02*
G37*
G36*
X7418533Y2429992D02*
X7397468D01*
X7377122Y2424540D01*
X7358879Y2414008D01*
X7343985Y2399113D01*
X7333452Y2380871D01*
X7328001Y2360524D01*
Y2339460D01*
X7333452Y2319113D01*
X7343985Y2300871D01*
X7358879Y2285976D01*
X7377122Y2275444D01*
X7397468Y2269992D01*
X7418533D01*
X7438879Y2275444D01*
X7457121Y2285976D01*
X7472016Y2300871D01*
X7482548Y2319113D01*
X7488000Y2339460D01*
Y2360524D01*
X7482548Y2380871D01*
X7472016Y2399113D01*
X7457121Y2414008D01*
X7438879Y2424540D01*
X7418533Y2429992D01*
D02*
G37*
G36*
X6432957Y2310000D02*
X6417044D01*
X6402342Y2303910D01*
X6391090Y2292658D01*
X6385000Y2277957D01*
Y2262043D01*
X6391090Y2247342D01*
X6402342Y2236090D01*
X6417044Y2230000D01*
X6432957D01*
X6447658Y2236090D01*
X6458910Y2247342D01*
X6465000Y2262043D01*
Y2277957D01*
X6458910Y2292658D01*
X6447658Y2303910D01*
X6432957Y2310000D01*
D02*
G37*
G36*
X6630168Y1964138D02*
X6614255D01*
X6599554Y1958049D01*
X6588302Y1946796D01*
X6582212Y1932095D01*
Y1916182D01*
X6588302Y1901480D01*
X6599554Y1890228D01*
X6614255Y1884138D01*
X6630168D01*
X6644870Y1890228D01*
X6656122Y1901480D01*
X6662212Y1916182D01*
Y1932095D01*
X6656122Y1946796D01*
X6644870Y1958049D01*
X6630168Y1964138D01*
D02*
G37*
G36*
X6317941Y1924138D02*
X6302028D01*
X6287326Y1918049D01*
X6276074Y1906797D01*
X6269984Y1892095D01*
Y1876182D01*
X6276074Y1861480D01*
X6287326Y1850228D01*
X6302028Y1844139D01*
X6317941D01*
X6332642Y1850228D01*
X6343894Y1861480D01*
X6349984Y1876182D01*
Y1892095D01*
X6343894Y1906797D01*
X6332642Y1918049D01*
X6317941Y1924138D01*
D02*
G37*
G36*
X9030640Y1900000D02*
X9014726D01*
X9000025Y1893910D01*
X8988773Y1882658D01*
X8982683Y1867957D01*
Y1852044D01*
X8988773Y1837342D01*
X9000025Y1826090D01*
X9014726Y1820000D01*
X9030640D01*
X9045341Y1826090D01*
X9056593Y1837342D01*
X9062683Y1852044D01*
Y1867957D01*
X9056593Y1882658D01*
X9045341Y1893910D01*
X9030640Y1900000D01*
D02*
G37*
G36*
X8483174D02*
X8467261D01*
X8452560Y1893910D01*
X8441307Y1882658D01*
X8435218Y1867957D01*
Y1852044D01*
X8441307Y1837342D01*
X8452560Y1826090D01*
X8467261Y1820000D01*
X8483174D01*
X8497876Y1826090D01*
X8509128Y1837342D01*
X8515218Y1852044D01*
Y1867957D01*
X8509128Y1882658D01*
X8497876Y1893910D01*
X8483174Y1900000D01*
D02*
G37*
G36*
X7326160Y1889138D02*
X7310247D01*
X7295546Y1883049D01*
X7284294Y1871797D01*
X7278204Y1857095D01*
Y1841182D01*
X7284294Y1826480D01*
X7295546Y1815228D01*
X7310247Y1809139D01*
X7326160D01*
X7340862Y1815228D01*
X7352114Y1826480D01*
X7358204Y1841182D01*
Y1857095D01*
X7352114Y1871797D01*
X7340862Y1883049D01*
X7326160Y1889138D01*
D02*
G37*
G36*
X6357193Y1737773D02*
X6327808D01*
X6299424Y1730167D01*
X6273976Y1715475D01*
X6253198Y1694697D01*
X6238506Y1669249D01*
X6230900Y1640865D01*
Y1611480D01*
X6238506Y1583097D01*
X6253198Y1557649D01*
X6273976Y1536871D01*
X6299424Y1522178D01*
X6327808Y1514573D01*
X6357193D01*
X6385576Y1522178D01*
X6411024Y1536871D01*
X6431802Y1557649D01*
X6446495Y1583097D01*
X6454100Y1611480D01*
Y1640865D01*
X6446495Y1669249D01*
X6431802Y1694697D01*
X6411024Y1715475D01*
X6385576Y1730167D01*
X6357193Y1737773D01*
D02*
G37*
G36*
X6954596Y1721129D02*
X6925212D01*
X6896828Y1713523D01*
X6871380Y1698831D01*
X6850602Y1678053D01*
X6835910Y1652605D01*
X6828304Y1624221D01*
Y1594837D01*
X6835910Y1566453D01*
X6850602Y1541005D01*
X6871380Y1520227D01*
X6896828Y1505534D01*
X6925212Y1497929D01*
X6954596D01*
X6982980Y1505534D01*
X7008428Y1520227D01*
X7029206Y1541005D01*
X7043899Y1566453D01*
X7051504Y1594837D01*
Y1624221D01*
X7043899Y1652605D01*
X7029206Y1678053D01*
X7008428Y1698831D01*
X6982980Y1713523D01*
X6954596Y1721129D01*
D02*
G37*
G36*
X7493596Y1705629D02*
X7464211D01*
X7435828Y1698023D01*
X7410380Y1683331D01*
X7389602Y1662553D01*
X7374909Y1637105D01*
X7367304Y1608721D01*
Y1579336D01*
X7374909Y1550953D01*
X7389602Y1525505D01*
X7410380Y1504727D01*
X7435828Y1490034D01*
X7464211Y1482429D01*
X7493596D01*
X7521980Y1490034D01*
X7547428Y1504727D01*
X7568206Y1525505D01*
X7582898Y1550953D01*
X7590504Y1579336D01*
Y1608721D01*
X7582898Y1637105D01*
X7568206Y1662553D01*
X7547428Y1683331D01*
X7521980Y1698023D01*
X7493596Y1705629D01*
D02*
G37*
G36*
X8043596Y1700630D02*
X8014211D01*
X7985828Y1693025D01*
X7960380Y1678332D01*
X7939602Y1657554D01*
X7924909Y1632106D01*
X7917304Y1603723D01*
Y1574338D01*
X7924909Y1545954D01*
X7939602Y1520506D01*
X7960380Y1499728D01*
X7985828Y1485036D01*
X8014211Y1477430D01*
X8043596D01*
X8071980Y1485036D01*
X8097428Y1499728D01*
X8118206Y1520506D01*
X8132898Y1545954D01*
X8140504Y1574338D01*
Y1603723D01*
X8132898Y1632106D01*
X8118206Y1657554D01*
X8097428Y1678332D01*
X8071980Y1693025D01*
X8043596Y1700630D01*
D02*
G37*
G36*
X8593905Y1683961D02*
X8564520D01*
X8536136Y1676356D01*
X8510688Y1661663D01*
X8489910Y1640885D01*
X8475218Y1615437D01*
X8467612Y1587054D01*
Y1557669D01*
X8475218Y1529285D01*
X8489910Y1503837D01*
X8510688Y1483059D01*
X8536136Y1468367D01*
X8564520Y1460761D01*
X8593905D01*
X8622288Y1468367D01*
X8647736Y1483059D01*
X8668514Y1503837D01*
X8683207Y1529285D01*
X8690812Y1557669D01*
Y1587054D01*
X8683207Y1615437D01*
X8668514Y1640885D01*
X8647736Y1661663D01*
X8622288Y1676356D01*
X8593905Y1683961D01*
D02*
G37*
G36*
X6357193Y1483773D02*
X6327808D01*
X6299424Y1476167D01*
X6273976Y1461475D01*
X6253198Y1440697D01*
X6238506Y1415249D01*
X6230900Y1386865D01*
Y1357480D01*
X6238506Y1329097D01*
X6253198Y1303649D01*
X6273976Y1282871D01*
X6299424Y1268178D01*
X6327808Y1260573D01*
X6357193D01*
X6385576Y1268178D01*
X6411024Y1282871D01*
X6431802Y1303649D01*
X6446495Y1329097D01*
X6454100Y1357480D01*
Y1386865D01*
X6446495Y1415249D01*
X6431802Y1440697D01*
X6411024Y1461475D01*
X6385576Y1476167D01*
X6357193Y1483773D01*
D02*
G37*
G36*
X6651597Y1462751D02*
X6622212D01*
X6593828Y1455145D01*
X6568380Y1440453D01*
X6547602Y1419675D01*
X6532910Y1394227D01*
X6525304Y1365843D01*
Y1336459D01*
X6532910Y1308075D01*
X6547602Y1282627D01*
X6568380Y1261849D01*
X6593828Y1247157D01*
X6622212Y1239551D01*
X6651597D01*
X6679980Y1247157D01*
X6705428Y1261849D01*
X6726206Y1282627D01*
X6740899Y1308075D01*
X6748504Y1336459D01*
Y1365843D01*
X6740899Y1394227D01*
X6726206Y1419675D01*
X6705428Y1440453D01*
X6679980Y1455145D01*
X6651597Y1462751D01*
D02*
G37*
G36*
X6454100Y1229773D02*
X6230900D01*
Y1006573D01*
X6454100D01*
Y1229773D01*
D02*
G37*
G36*
X7161876Y1083971D02*
X7145963D01*
X7131262Y1077882D01*
X7120010Y1066630D01*
X7113920Y1051928D01*
Y1036015D01*
X7120010Y1021313D01*
X7131262Y1010061D01*
X7145963Y1003972D01*
X7161876D01*
X7176578Y1010061D01*
X7187830Y1021313D01*
X7193920Y1036015D01*
Y1051928D01*
X7187830Y1066630D01*
X7176578Y1077882D01*
X7161876Y1083971D01*
D02*
G37*
G36*
X7051504Y1213129D02*
X6828304D01*
Y989929D01*
X7051504D01*
Y1213129D01*
D02*
G37*
G36*
X7590504Y1197629D02*
X7367304D01*
Y974429D01*
X7590504D01*
Y1197629D01*
D02*
G37*
G36*
X8140504Y1192630D02*
X7917304D01*
Y969430D01*
X8140504D01*
Y1192630D01*
D02*
G37*
G36*
X8690812Y1175961D02*
X8467612D01*
Y952761D01*
X8690812D01*
Y1175961D01*
D02*
G37*
G36*
X7634897Y955073D02*
X7618983D01*
X7604282Y948983D01*
X7593030Y937731D01*
X7586940Y923029D01*
Y907116D01*
X7593030Y892415D01*
X7604282Y881163D01*
X7618983Y875073D01*
X7634897D01*
X7649598Y881163D01*
X7660850Y892415D01*
X7666940Y907116D01*
Y923029D01*
X7660850Y937731D01*
X7649598Y948983D01*
X7634897Y955073D01*
D02*
G37*
G36*
X8084101Y890000D02*
X8068188D01*
X8053486Y883910D01*
X8042234Y872658D01*
X8036144Y857957D01*
Y842044D01*
X8042234Y827342D01*
X8053486Y816090D01*
X8068188Y810000D01*
X8084101D01*
X8098802Y816090D01*
X8110054Y827342D01*
X8116144Y842044D01*
Y857957D01*
X8110054Y872658D01*
X8098802Y883910D01*
X8084101Y890000D01*
D02*
G37*
G36*
X8676471Y820000D02*
X8660558D01*
X8645856Y813910D01*
X8634604Y802658D01*
X8628514Y787957D01*
Y772043D01*
X8634604Y757342D01*
X8645856Y746090D01*
X8660558Y740000D01*
X8676471D01*
X8691172Y746090D01*
X8702425Y757342D01*
X8708514Y772043D01*
Y787957D01*
X8702425Y802658D01*
X8691172Y813910D01*
X8676471Y820000D01*
D02*
G37*
G36*
X8216139Y-10000D02*
X8200226D01*
X8185524Y-16090D01*
X8174272Y-27342D01*
X8168183Y-42043D01*
Y-57956D01*
X8174272Y-72658D01*
X8185524Y-83910D01*
X8200226Y-90000D01*
X8216139D01*
X8230841Y-83910D01*
X8242093Y-72658D01*
X8248182Y-57956D01*
Y-42043D01*
X8242093Y-27342D01*
X8230841Y-16090D01*
X8216139Y-10000D01*
D02*
G37*
G36*
X7555384Y-19707D02*
X7539471D01*
X7524770Y-25797D01*
X7513517Y-37049D01*
X7507428Y-51751D01*
Y-67664D01*
X7513517Y-82365D01*
X7524770Y-93618D01*
X7539471Y-99707D01*
X7555384D01*
X7570086Y-93618D01*
X7581338Y-82365D01*
X7587428Y-67664D01*
Y-51751D01*
X7581338Y-37049D01*
X7570086Y-25797D01*
X7555384Y-19707D01*
D02*
G37*
G36*
X6879337D02*
X6863424D01*
X6848722Y-25797D01*
X6837470Y-37049D01*
X6831380Y-51751D01*
Y-67664D01*
X6837470Y-82365D01*
X6848722Y-93618D01*
X6863424Y-99707D01*
X6879337D01*
X6894038Y-93618D01*
X6905290Y-82365D01*
X6911380Y-67664D01*
Y-51751D01*
X6905290Y-37049D01*
X6894038Y-25797D01*
X6879337Y-19707D01*
D02*
G37*
G36*
X6365149Y-20163D02*
X6349236D01*
X6334534Y-26252D01*
X6323282Y-37505D01*
X6317193Y-52206D01*
Y-68119D01*
X6323282Y-82821D01*
X6334534Y-94073D01*
X6349236Y-100163D01*
X6365149D01*
X6379851Y-94073D01*
X6391103Y-82821D01*
X6397192Y-68119D01*
Y-52206D01*
X6391103Y-37505D01*
X6379851Y-26252D01*
X6365149Y-20163D01*
D02*
G37*
G36*
X8852874Y-90000D02*
X8836960D01*
X8822259Y-96090D01*
X8811007Y-107342D01*
X8804917Y-122043D01*
Y-137957D01*
X8811007Y-152658D01*
X8822259Y-163910D01*
X8836960Y-170000D01*
X8852874D01*
X8867575Y-163910D01*
X8878827Y-152658D01*
X8884917Y-137957D01*
Y-122043D01*
X8878827Y-107342D01*
X8867575Y-96090D01*
X8852874Y-90000D01*
D02*
G37*
G36*
X8309543Y-477236D02*
X8293630D01*
X8278929Y-483326D01*
X8267676Y-494578D01*
X8261587Y-509280D01*
Y-525193D01*
X8267676Y-539894D01*
X8278929Y-551146D01*
X8293630Y-557236D01*
X8309543D01*
X8324245Y-551146D01*
X8335497Y-539894D01*
X8341587Y-525193D01*
Y-509280D01*
X8335497Y-494578D01*
X8324245Y-483326D01*
X8309543Y-477236D01*
D02*
G37*
G36*
X6904785Y-494141D02*
X6888872D01*
X6874170Y-500231D01*
X6862918Y-511483D01*
X6856828Y-526184D01*
Y-542097D01*
X6862918Y-556799D01*
X6874170Y-568051D01*
X6888872Y-574141D01*
X6904785D01*
X6919486Y-568051D01*
X6930738Y-556799D01*
X6936828Y-542097D01*
Y-526184D01*
X6930738Y-511483D01*
X6919486Y-500231D01*
X6904785Y-494141D01*
D02*
G37*
G36*
X6307381D02*
X6291468D01*
X6276766Y-500231D01*
X6265514Y-511483D01*
X6259424Y-526184D01*
Y-542097D01*
X6265514Y-556799D01*
X6276766Y-568051D01*
X6291468Y-574141D01*
X6307381D01*
X6322082Y-568051D01*
X6333335Y-556799D01*
X6339424Y-542097D01*
Y-526184D01*
X6333335Y-511483D01*
X6322082Y-500231D01*
X6307381Y-494141D01*
D02*
G37*
G36*
X7604298Y-509984D02*
X7588385D01*
X7573683Y-516074D01*
X7562431Y-527326D01*
X7556342Y-542027D01*
Y-557940D01*
X7562431Y-572642D01*
X7573683Y-583894D01*
X7588385Y-589984D01*
X7604298D01*
X7618999Y-583894D01*
X7630252Y-572642D01*
X7636341Y-557940D01*
Y-542027D01*
X7630252Y-527326D01*
X7618999Y-516074D01*
X7604298Y-509984D01*
D02*
G37*
G36*
X10215094Y2640000D02*
X10199181D01*
X10184480Y2633910D01*
X10173228Y2622658D01*
X10167138Y2607956D01*
Y2592043D01*
X10173228Y2577342D01*
X10184480Y2566090D01*
X10199181Y2560000D01*
X10215094D01*
X10229796Y2566090D01*
X10241048Y2577342D01*
X10247138Y2592043D01*
Y2607956D01*
X10241048Y2622658D01*
X10229796Y2633910D01*
X10215094Y2640000D01*
D02*
G37*
G36*
X9740532Y2429992D02*
X9719468D01*
X9699121Y2424540D01*
X9680879Y2414008D01*
X9665984Y2399113D01*
X9655452Y2380871D01*
X9650000Y2360524D01*
Y2339460D01*
X9655452Y2319113D01*
X9665984Y2300871D01*
X9680879Y2285976D01*
X9699121Y2275444D01*
X9719468Y2269992D01*
X9740532D01*
X9760879Y2275444D01*
X9779121Y2285976D01*
X9794016Y2300871D01*
X9804548Y2319113D01*
X9810000Y2339460D01*
Y2360524D01*
X9804548Y2380871D01*
X9794016Y2399113D01*
X9779121Y2414008D01*
X9760879Y2424540D01*
X9740532Y2429992D01*
D02*
G37*
G36*
X9960639Y2270000D02*
X9944726D01*
X9930025Y2263910D01*
X9918773Y2252658D01*
X9912683Y2237957D01*
Y2222044D01*
X9918773Y2207342D01*
X9930025Y2196090D01*
X9944726Y2190000D01*
X9960639D01*
X9975341Y2196090D01*
X9986593Y2207342D01*
X9992683Y2222044D01*
Y2237957D01*
X9986593Y2252658D01*
X9975341Y2263910D01*
X9960639Y2270000D01*
D02*
G37*
G36*
X10261321Y2090000D02*
X10245408D01*
X10230706Y2083910D01*
X10219454Y2072658D01*
X10213364Y2057957D01*
Y2042043D01*
X10219454Y2027342D01*
X10230706Y2016090D01*
X10245408Y2010000D01*
X10261321D01*
X10276022Y2016090D01*
X10287274Y2027342D01*
X10293364Y2042043D01*
Y2057957D01*
X10287274Y2072658D01*
X10276022Y2083910D01*
X10261321Y2090000D01*
D02*
G37*
G36*
X9357957Y1569285D02*
X9342044D01*
X9327342Y1563196D01*
X9316090Y1551944D01*
X9310000Y1537242D01*
Y1521329D01*
X9316090Y1506627D01*
X9327342Y1495375D01*
X9342044Y1489286D01*
X9357957D01*
X9372658Y1495375D01*
X9383910Y1506627D01*
X9390000Y1521329D01*
Y1537242D01*
X9383910Y1551944D01*
X9372658Y1563196D01*
X9357957Y1569285D01*
D02*
G37*
G36*
X10178754Y1681869D02*
X10149370D01*
X10120986Y1674263D01*
X10095538Y1659571D01*
X10074760Y1638793D01*
X10060068Y1613345D01*
X10052462Y1584961D01*
Y1555577D01*
X10060068Y1527193D01*
X10074760Y1501745D01*
X10095538Y1480967D01*
X10120986Y1466274D01*
X10149370Y1458669D01*
X10178754D01*
X10207138Y1466274D01*
X10232586Y1480967D01*
X10253364Y1501745D01*
X10268056Y1527193D01*
X10275662Y1555577D01*
Y1584961D01*
X10268056Y1613345D01*
X10253364Y1638793D01*
X10232586Y1659571D01*
X10207138Y1674263D01*
X10178754Y1681869D01*
D02*
G37*
G36*
X9623156Y1671869D02*
X9593771D01*
X9565388Y1664263D01*
X9539940Y1649571D01*
X9519161Y1628793D01*
X9504469Y1603345D01*
X9496863Y1574961D01*
Y1545577D01*
X9504469Y1517193D01*
X9519161Y1491745D01*
X9539940Y1470967D01*
X9565388Y1456274D01*
X9593771Y1448669D01*
X9623156D01*
X9651539Y1456274D01*
X9676987Y1470967D01*
X9697765Y1491745D01*
X9712458Y1517193D01*
X9720063Y1545577D01*
Y1574961D01*
X9712458Y1603345D01*
X9697765Y1628793D01*
X9676987Y1649571D01*
X9651539Y1664263D01*
X9623156Y1671869D01*
D02*
G37*
G36*
X9893140Y1102269D02*
X9877227D01*
X9862525Y1096179D01*
X9851273Y1084927D01*
X9845183Y1070225D01*
Y1054312D01*
X9851273Y1039611D01*
X9862525Y1028359D01*
X9877227Y1022269D01*
X9893140D01*
X9907841Y1028359D01*
X9919093Y1039611D01*
X9925183Y1054312D01*
Y1070225D01*
X9919093Y1084927D01*
X9907841Y1096179D01*
X9893140Y1102269D01*
D02*
G37*
G36*
X9341101Y1065977D02*
X9325188D01*
X9310487Y1059887D01*
X9299234Y1048635D01*
X9293145Y1033933D01*
Y1018020D01*
X9299234Y1003319D01*
X9310487Y992066D01*
X9325188Y985977D01*
X9341101D01*
X9355803Y992066D01*
X9367055Y1003319D01*
X9373145Y1018020D01*
Y1033933D01*
X9367055Y1048635D01*
X9355803Y1059887D01*
X9341101Y1065977D01*
D02*
G37*
G36*
X10275662Y1173869D02*
X10052462D01*
Y950669D01*
X10275662D01*
Y1173869D01*
D02*
G37*
G36*
X9720063Y1163869D02*
X9496863D01*
Y940669D01*
X9720063D01*
Y1163869D01*
D02*
G37*
G36*
X10477956Y1016717D02*
X10462043D01*
X10447342Y1010627D01*
X10436090Y999375D01*
X10430000Y984673D01*
Y968760D01*
X10436090Y954059D01*
X10447342Y942806D01*
X10462043Y936717D01*
X10477956D01*
X10492658Y942806D01*
X10503910Y954059D01*
X10510000Y968760D01*
Y984673D01*
X10503910Y999375D01*
X10492658Y1010627D01*
X10477956Y1016717D01*
D02*
G37*
G36*
X10049396Y751020D02*
X10033483D01*
X10018782Y744930D01*
X10007529Y733678D01*
X10001440Y718977D01*
Y703064D01*
X10007529Y688362D01*
X10018782Y677110D01*
X10033483Y671020D01*
X10049396D01*
X10064098Y677110D01*
X10075350Y688362D01*
X10081440Y703064D01*
Y718977D01*
X10075350Y733678D01*
X10064098Y744930D01*
X10049396Y751020D01*
D02*
G37*
%LPD*%
D10*
X4608740Y4695512D02*
X4613600Y4700372D01*
X4608740Y4668740D02*
Y4695512D01*
X3491264Y3696221D02*
X3636222D01*
X4608740Y4668740D01*
X3491264Y2456614D02*
Y3696221D01*
X3387447Y2352796D02*
X3491264Y2456614D01*
X3320000Y441055D02*
Y877640D01*
X3194305Y1003335D02*
X3320000Y877640D01*
X3199847Y320901D02*
X3320000Y441055D01*
X2168783Y1306139D02*
X2193783Y1331139D01*
X1366840Y1306139D02*
X2168783D01*
X1242500Y1430479D02*
X1366840Y1306139D01*
X1330679Y1679322D02*
X1616362Y1393639D01*
X2110104D02*
X2132764Y1370979D01*
X1616362Y1393639D02*
X2110104D01*
X3192161Y1003335D02*
X3194305D01*
X1330679Y1679322D02*
Y2335207D01*
X1242500Y1430479D02*
Y2771930D01*
X1599912Y3190459D02*
Y4041754D01*
X1766667Y3875000D01*
X1599912Y4041754D02*
Y4255371D01*
X1475570Y3140987D02*
Y4216858D01*
X978033Y3935931D02*
X1194643D01*
X1475570Y4216858D01*
Y4295941D01*
X1599912Y3190459D02*
X1690000Y3100371D01*
X1599912Y4255371D02*
X1804912Y4460372D01*
X1475570Y3140987D02*
X1616557Y3000000D01*
X1475570Y4295941D02*
X1680000Y4500371D01*
X1804912Y4460372D02*
Y4538371D01*
X6774938Y3730503D02*
X6870000Y3825565D01*
X6795000Y4945000D02*
X6870000Y4870000D01*
Y3825565D02*
Y4870000D01*
X5957207Y2275163D02*
X5960000Y2277957D01*
X5957207Y2221519D02*
Y2275163D01*
X5925688Y2190000D02*
X5957207Y2221519D01*
X4370000Y2190000D02*
X5925688D01*
X8690812Y3422440D02*
X8937560D01*
X9310000Y3050000D01*
X3199847Y287386D02*
Y320901D01*
X2191481Y4613451D02*
X2324912Y4480019D01*
Y3820372D02*
Y4480019D01*
X1616557Y2621085D02*
Y3000000D01*
X2014591Y3197857D02*
Y3200050D01*
X2014912Y3200372D02*
X2034912D01*
X2184912Y3350372D01*
X2014591Y3200050D02*
X2014912Y3200372D01*
X1242500Y2771930D02*
X1475570Y3005000D01*
X1330679Y2335207D02*
X1616557Y2621085D01*
X2184912Y3350372D02*
Y3680372D01*
X9202840Y3827840D02*
Y4864041D01*
X9101240Y4965641D02*
X9202840Y4864041D01*
X9085000Y3710000D02*
X9202840Y3827840D01*
X2184912Y3680372D02*
X2324912Y3820372D01*
D15*
X3136173Y608541D02*
D03*
Y758541D02*
D03*
X2938785Y475438D02*
D03*
Y625438D02*
D03*
D56*
X3276359Y1013032D02*
X3596173Y693218D01*
Y298036D02*
Y693218D01*
X3276359Y1098148D02*
X3313574D01*
X3973156Y438566D01*
X2357497Y1899110D02*
X2417117Y1839490D01*
X2333464Y1899110D02*
X2357497D01*
X2277610Y1954965D02*
X2333464Y1899110D01*
X1989481Y3565552D02*
Y3950891D01*
X1909181Y4031191D02*
X1989481Y3950891D01*
X1849912Y3425983D02*
X1989481Y3565552D01*
X1949912Y4548339D02*
X1999092Y4597518D01*
X1949912Y4092514D02*
Y4548339D01*
Y4092514D02*
X2082481Y3959945D01*
X1981252Y1134083D02*
X2062412D01*
X1563057Y680688D02*
Y715887D01*
X1981252Y1134083D01*
X2154922Y1450000D02*
X2193783Y1411139D01*
X1520000Y1697696D02*
X1767696Y1450000D01*
X2154922D01*
X1488529Y1255579D02*
X2132764D01*
X1289089Y1056139D02*
X1488529Y1255579D01*
X1309057Y680688D02*
X1824507Y1196139D01*
X2168943D02*
X2193783Y1171299D01*
X1824507Y1196139D02*
X2168943D01*
X2590000Y-480000D02*
X2856283Y-213718D01*
X2788814Y672576D02*
X2856283Y605107D01*
Y-213718D02*
Y605107D01*
X2711973Y451973D02*
Y672576D01*
X2630813Y-9705D02*
Y370813D01*
X2711973Y451973D01*
X2536173Y346173D02*
X2656283Y466283D01*
Y618131D01*
X2536173Y26254D02*
Y346173D01*
X2601283Y500438D02*
Y677901D01*
X2442429Y443765D02*
X2550853Y552189D01*
Y728206D01*
X1718148Y260000D02*
X2100443D01*
X2499226Y658783D02*
Y692998D01*
X2100443Y260000D02*
X2499226Y658783D01*
Y692998D02*
X2503405Y697177D01*
X2117055Y353957D02*
X2456283Y693185D01*
X1558105Y353957D02*
X2117055D01*
X2396297Y714297D02*
Y754907D01*
X2124500Y442500D02*
X2396297Y714297D01*
X1392648Y442500D02*
X2124500D01*
X2459066Y358221D02*
X2601283Y500438D01*
X2420000Y440000D02*
X2423766Y443765D01*
X2442429D01*
X2459066Y116647D02*
Y358221D01*
X2503405Y697177D02*
Y753639D01*
X2224103Y1940254D02*
X2356137Y1808220D01*
Y1754558D02*
Y1808220D01*
X2277610Y1954965D02*
Y2958069D01*
X2331481Y2017731D02*
Y2466250D01*
Y2017731D02*
X2516347Y1832864D01*
X2400612Y2721385D02*
X2481727Y2802500D01*
X2400612Y2063808D02*
Y2721385D01*
Y2063808D02*
X2586037Y1878383D01*
Y1778649D02*
Y1878383D01*
X1400000Y2148717D02*
X1520000Y2028717D01*
Y1697696D02*
Y2028717D01*
X946237Y1056139D02*
X1289089D01*
X1690000Y2745000D02*
Y2952902D01*
X1849912Y3112814D02*
Y3425983D01*
X1690000Y2952902D02*
X1849912Y3112814D01*
X1909181Y4031191D02*
Y4558536D01*
X1950000Y2920426D02*
Y3438519D01*
X2082481Y3571000D01*
X1839555Y2809982D02*
X1950000Y2920426D01*
X2082481Y3571000D02*
Y3959945D01*
X1909181Y4558536D02*
X2032164Y4681519D01*
X2277610Y2958069D02*
X2604953Y3285413D01*
X2780813D01*
X2233783Y1571139D02*
Y1678306D01*
X2026585Y1885504D02*
Y2457706D01*
Y1885504D02*
X2233783Y1678306D01*
X2224103Y1940254D02*
Y3013993D01*
X2193783Y1531139D02*
X2233783Y1571139D01*
X2224103Y3013993D02*
X2270110Y3060000D01*
X3973156Y320901D02*
Y438566D01*
X1046390Y26254D02*
Y96242D01*
X1300390Y26254D02*
Y96242D01*
X1554390Y26254D02*
Y96242D01*
X1544063Y-98638D02*
X2243781D01*
X1032695Y-610006D02*
X1544063Y-98638D01*
X2243781D02*
X2459066Y116647D01*
X1554390Y96242D02*
X1718148Y260000D01*
X2014338Y4597518D02*
X2041481Y4624662D01*
X2229912Y4681519D02*
X2297981Y4613451D01*
X2041481Y4624662D02*
Y4626405D01*
X2032164Y4681519D02*
X2229912D01*
X1999092Y4597518D02*
X2014338D01*
X1920000Y2564291D02*
Y2729537D01*
X1839555Y2809982D02*
X1920000Y2729537D01*
Y2564291D02*
X2026585Y2457706D01*
X1400000Y2130453D02*
Y2148717D01*
X2101781Y2923885D02*
X2116481Y2938585D01*
Y2943910D01*
X2101781Y2110000D02*
Y2923885D01*
X1046390Y96242D02*
X1392648Y442500D01*
X1300390Y96242D02*
X1558105Y353957D01*
X1924701Y-480000D02*
X2590000D01*
X2239805Y-403575D02*
X2632244Y-11136D01*
X2630813Y-9705D02*
X2632244Y-11136D01*
X1747126Y-403575D02*
X2239805D01*
X2279919Y-230000D02*
X2536173Y26254D01*
X1666701Y-230000D02*
X2279919D01*
X1286695Y-610006D02*
X1666701Y-230000D01*
X1540695Y-610006D02*
X1747126Y-403575D01*
X1794695Y-610006D02*
X1924701Y-480000D01*
D57*
X2821283Y2242401D02*
G03*
X2856683Y2207001I35400J0D01*
G01*
X2967305Y2136201D02*
G03*
X2967305Y2207001I0J35400D01*
G01*
X2919262Y2136201D02*
G03*
X2894230Y2075770I0J-35400D01*
G01*
X3148783Y1405171D02*
X3271265Y1527654D01*
X3352346D01*
X3360000Y1520000D01*
X2821283Y2242401D02*
Y2385599D01*
X2856683Y2207001D02*
X2967305D01*
X2919262Y2136201D02*
X2967305D01*
X2894230Y2075770D02*
X2917301Y2052699D01*
Y2020000D02*
Y2052699D01*
X2821283Y2385599D02*
Y2455000D01*
X2917301Y1797917D02*
Y2020000D01*
X2696283Y2085339D02*
Y2455000D01*
Y2085339D02*
X2773783Y2007840D01*
Y1819488D02*
Y2007840D01*
X2714912Y1775686D02*
X2716109Y1774490D01*
X2714912Y1775686D02*
Y1880516D01*
X2544912Y2050516D02*
X2714912Y1880516D01*
X2773783Y1819488D02*
X2776283Y1816988D01*
X2544912Y2050516D02*
Y2411050D01*
X2576283Y2442421D01*
D58*
X3240000Y4065456D02*
X3524073Y4349529D01*
X3240000Y2253097D02*
X4680000Y813097D01*
X3240000Y2253097D02*
Y4065456D01*
X4670000Y240000D02*
Y522902D01*
X4680000Y532902D02*
Y813097D01*
X4670000Y522902D02*
X4680000Y532902D01*
X4155034Y5020000D02*
X4279912Y5144878D01*
Y5480119D01*
X3934042Y5020000D02*
X4155034D01*
X4364912Y5565119D02*
X4480550D01*
X4279912Y5480119D02*
X4364912Y5565119D01*
X3524073Y4610031D02*
X3934042Y5020000D01*
X3524073Y4349529D02*
Y4610031D01*
X3083880Y475438D02*
X3106884D01*
X2938785D02*
X3083880D01*
X1990437Y5097895D02*
X2242524D01*
X2243481Y5096938D01*
X2938710Y765529D02*
X3004186D01*
X3011173Y758541D01*
X2938710Y625513D02*
Y765529D01*
Y625513D02*
X2938785Y625438D01*
X3011173Y758541D02*
X3136173D01*
X3106884Y475438D02*
X3136173Y504728D01*
Y608541D01*
X2419843Y4632341D02*
X2634912D01*
X1989481Y5098851D02*
X1990437Y5097895D01*
D59*
X2430360Y4738371D02*
X2512578Y4820590D01*
Y5692317D01*
X2022533Y4738371D02*
X2430360D01*
X2434896Y5770000D02*
X2512578Y5692317D01*
X2239635Y4838158D02*
X2456848Y5055371D01*
X4549015Y4778371D02*
X4714015Y4943371D01*
X4414912Y4778371D02*
X4549015D01*
X4714015Y4943371D02*
X4938290D01*
X2697964Y4144280D02*
Y4178059D01*
X2880000Y4360095D02*
Y4929759D01*
X2697964Y4178059D02*
X2880000Y4360095D01*
X2614333Y4215572D02*
X2618313Y4211593D01*
X2587276Y4215572D02*
X2614333D01*
X2462477Y4340372D02*
X2587276Y4215572D01*
X2618313Y4211593D02*
Y4404370D01*
X2789912Y4575970D01*
X3290000Y5068407D02*
X3429964Y5208371D01*
X3290000Y4940957D02*
Y5068407D01*
X3194414Y4845372D02*
X3290000Y4940957D01*
X3537316Y5208371D02*
X4404100Y6075156D01*
X3429964Y5208371D02*
X3537316D01*
X3040000Y4845372D02*
X3194414D01*
X3000000Y4805372D02*
X3040000Y4845372D01*
X3000000Y4373371D02*
Y4805372D01*
X2920000Y4293371D02*
X3000000Y4373371D01*
X2920000Y3906376D02*
Y4293371D01*
X2799912Y3786289D02*
X2920000Y3906376D01*
X4025397Y6075156D02*
X4050000D01*
X2880000Y4929759D02*
X4025397Y6075156D01*
X2789912Y4967870D02*
X3714912Y5892870D01*
X2789912Y4575970D02*
Y4967870D01*
X3714912Y5892870D02*
Y6075156D01*
X3373223Y5666594D02*
Y6075156D01*
X2639912Y4933283D02*
X3373223Y5666594D01*
X2639912Y4845372D02*
Y4933283D01*
X4770000Y3720000D02*
X4895000Y3595000D01*
Y2685000D02*
Y3595000D01*
X4730000Y2520000D02*
X4895000Y2685000D01*
X1731712Y4619031D02*
X1950839Y4838158D01*
X2239635D01*
X1901481Y4617319D02*
X2022533Y4738371D01*
X4730000Y2520000D02*
X4730000D01*
X2494912Y4090372D02*
X2495829D01*
X2799912Y3591289D02*
Y3786289D01*
X2495829Y4090372D02*
X2799912Y3786289D01*
X2734912Y3526289D02*
X2799912Y3591289D01*
D71*
X10416440Y5647440D02*
D03*
X10430000Y-83910D02*
D03*
X4840000Y-600000D02*
D03*
X6939904Y2785000D02*
D03*
X2554913Y6075156D02*
D03*
X1434065D02*
D03*
X2823006Y5365700D02*
D03*
X978033Y3935931D02*
D03*
X1766667Y3875000D02*
D03*
X3373223Y6075156D02*
D03*
X4050000D02*
D03*
X3714912D02*
D03*
X4404100D02*
D03*
X4168143Y1879824D02*
D03*
X3803662Y1044851D02*
D03*
X3491264Y1693058D02*
D03*
X4938290Y4943371D02*
D03*
X3524073Y2178717D02*
D03*
X8230000Y4060000D02*
D03*
X10500000Y4087440D02*
D03*
X630584Y3945371D02*
D03*
D72*
X302747Y-499994D02*
D03*
X300000Y6000000D02*
D03*
X10000000D02*
D03*
Y-500000D02*
D03*
D73*
X2108586Y26254D02*
D03*
X1554390D02*
D03*
X1300390D02*
D03*
X2100695Y674137D02*
D03*
X1563057Y680688D02*
D03*
X1309057D02*
D03*
X2302695Y-610006D02*
D03*
X2048695D02*
D03*
X1794695D02*
D03*
X1540695D02*
D03*
X1286695D02*
D03*
X10164062Y1570269D02*
D03*
Y1316269D02*
D03*
X9608463Y1560269D02*
D03*
Y1306269D02*
D03*
X8579212Y1572361D02*
D03*
Y1318361D02*
D03*
X8028904Y1589030D02*
D03*
Y1335030D02*
D03*
X7478904Y1594029D02*
D03*
Y1340029D02*
D03*
X6939904Y1609529D02*
D03*
Y1355529D02*
D03*
X6636904Y1351151D02*
D03*
X6342500Y1626173D02*
D03*
Y1372173D02*
D03*
D74*
X1854586Y26254D02*
D03*
X1046390D02*
D03*
X1846695Y674137D02*
D03*
X1055057Y680688D02*
D03*
X1032695Y-610006D02*
D03*
D75*
X7908000Y2349992D02*
D03*
X10230000D02*
D03*
D76*
X7408000D02*
D03*
X9730000D02*
D03*
D77*
X544912Y4580372D02*
D03*
Y5160371D02*
D03*
X544913Y2190000D02*
D03*
Y2770000D02*
D03*
D78*
X594912Y5302872D02*
D03*
Y4437871D02*
D03*
X594912Y2912500D02*
D03*
Y2047500D02*
D03*
D79*
X174912Y4437871D02*
D03*
Y5302872D02*
D03*
X174913Y2047500D02*
D03*
Y2912500D02*
D03*
D80*
X10164062Y1062269D02*
D03*
X9608463Y1052269D02*
D03*
X8579212Y1064361D02*
D03*
X8028904Y1081030D02*
D03*
X7478904Y1086029D02*
D03*
X6939904Y1101529D02*
D03*
X6636904Y1097151D02*
D03*
X6342500Y1118173D02*
D03*
D81*
X3154831Y3526289D02*
D03*
Y3741288D02*
D03*
Y3951289D02*
D03*
X3591840Y3492619D02*
D03*
X3360000Y1520000D02*
D03*
X4670000Y240000D02*
D03*
X4041439Y5255419D02*
D03*
X3764912Y5128371D02*
D03*
X3664929Y4569971D02*
D03*
X3764912Y4508371D02*
D03*
X3841840Y2492619D02*
D03*
X4723353Y3215372D02*
D03*
X4720000Y3314817D02*
D03*
X4537450Y5418371D02*
D03*
X3654912Y5068371D02*
D03*
X3841840Y1992619D02*
D03*
X3716840Y2242619D02*
D03*
X4466840Y1742619D02*
D03*
X4341840Y1992619D02*
D03*
X4591840D02*
D03*
X4301176Y3205770D02*
D03*
Y3314817D02*
D03*
X4184881Y3311125D02*
D03*
X1709447Y1879824D02*
D03*
X1715433Y1626173D02*
D03*
X5591840Y1992619D02*
D03*
X5091840D02*
D03*
X4966840Y1742619D02*
D03*
X5091840Y1492619D02*
D03*
X4841840Y1992619D02*
D03*
Y1492619D02*
D03*
X4466840Y-257381D02*
D03*
X4591840Y-507381D02*
D03*
X4216840Y-257381D02*
D03*
X4341840Y-507381D02*
D03*
X3966840Y1242619D02*
D03*
X4091840Y992619D02*
D03*
X3966840Y742619D02*
D03*
X4091840Y492619D02*
D03*
Y-7381D02*
D03*
Y-507381D02*
D03*
X3841840D02*
D03*
X3591840Y992619D02*
D03*
Y-507381D02*
D03*
X3216840Y4242619D02*
D03*
X3341840Y1992619D02*
D03*
Y-507381D02*
D03*
X3091840Y1992619D02*
D03*
Y-507381D02*
D03*
X2466840Y2242619D02*
D03*
Y-257381D02*
D03*
X2091840Y1992619D02*
D03*
X1966840Y1742619D02*
D03*
X1716840Y2242619D02*
D03*
X1841840Y1992619D02*
D03*
X1716840Y1742619D02*
D03*
X1591840Y2492619D02*
D03*
X1466840Y2242619D02*
D03*
X1591840Y1992619D02*
D03*
X1341840Y992619D02*
D03*
X1091840D02*
D03*
X841840Y-7381D02*
D03*
X716840Y-257381D02*
D03*
X841840Y-507381D02*
D03*
X591840Y992619D02*
D03*
Y-507381D02*
D03*
X341840Y992619D02*
D03*
X2489912Y2663581D02*
D03*
X3532673Y3912871D02*
D03*
X3750000Y3916220D02*
D03*
X3837197Y4019774D02*
D03*
X3645895Y4020372D02*
D03*
X3438532Y4019774D02*
D03*
X2494813Y3091294D02*
D03*
X3425543Y4918371D02*
D03*
X3429964Y4713371D02*
D03*
X8635000Y2512969D02*
D03*
X6937500Y2362500D02*
D03*
X6309984Y1884138D02*
D03*
X6622212Y1924138D02*
D03*
X7318204Y1849139D02*
D03*
X8475218Y1860000D02*
D03*
X9022683D02*
D03*
X8668514Y780000D02*
D03*
X8076144Y850000D02*
D03*
X7153920Y1043971D02*
D03*
X7626940Y915073D02*
D03*
X6357193Y-60163D02*
D03*
X6871380Y-59707D02*
D03*
X7547428D02*
D03*
X8208182Y-50000D02*
D03*
X8844917Y-130000D02*
D03*
X8301587Y-517236D02*
D03*
X7596341Y-549984D02*
D03*
X6896828Y-534141D02*
D03*
X6299424D02*
D03*
X9333145Y1025977D02*
D03*
X10041440Y711020D02*
D03*
X9952683Y2230000D02*
D03*
X9350000Y1529285D02*
D03*
X9885183Y1062269D02*
D03*
X10470000Y976717D02*
D03*
X10207138Y2600000D02*
D03*
X10253364Y2050000D02*
D03*
X8041440Y4005419D02*
D03*
X8166440Y3755419D02*
D03*
X8041440Y3505419D02*
D03*
X8166440Y3255419D02*
D03*
X8041440Y3005419D02*
D03*
X7791440Y4005419D02*
D03*
X7916440Y3755419D02*
D03*
X10291440Y4005419D02*
D03*
X10416440Y3755419D02*
D03*
X10291440Y3505419D02*
D03*
X10416440Y3255419D02*
D03*
X10041440Y4005419D02*
D03*
X10166440Y3755419D02*
D03*
X10416440Y505419D02*
D03*
X10166440Y5505419D02*
D03*
X10041440Y5255419D02*
D03*
X10166440Y5005419D02*
D03*
X10041440Y4755419D02*
D03*
X9916440Y5505419D02*
D03*
X9791440Y5255419D02*
D03*
X9916440Y5005419D02*
D03*
X9666440Y5505419D02*
D03*
X9541440Y5255419D02*
D03*
X9666440Y5005419D02*
D03*
X9541440Y4755419D02*
D03*
X9666440Y-494581D02*
D03*
X9416440Y5505419D02*
D03*
X9291440Y5255419D02*
D03*
X9416440Y5005419D02*
D03*
Y505419D02*
D03*
X9291440Y255419D02*
D03*
Y-244581D02*
D03*
Y-744581D02*
D03*
X9166440Y5505419D02*
D03*
X8416440Y4505419D02*
D03*
X7791440Y5255419D02*
D03*
X7916440Y5005419D02*
D03*
X7791440Y4755419D02*
D03*
X7541440Y5255419D02*
D03*
X7666440Y5005419D02*
D03*
X7291440Y5255419D02*
D03*
X7416440Y5005419D02*
D03*
X7291440Y4755419D02*
D03*
X7041440Y5255419D02*
D03*
X7166440Y5005419D02*
D03*
X6916440D02*
D03*
X6041440Y4755419D02*
D03*
X5791440Y5255419D02*
D03*
X5916440Y5005419D02*
D03*
X5791440Y4755419D02*
D03*
X5916440Y4505419D02*
D03*
X5791440Y4255419D02*
D03*
X5916440Y4005419D02*
D03*
X5791440Y3755419D02*
D03*
X5916440Y3505419D02*
D03*
Y2005419D02*
D03*
X5541440Y5255419D02*
D03*
X5666440Y5005419D02*
D03*
X5541440Y4755419D02*
D03*
X5666440Y4505419D02*
D03*
X5541440Y4255419D02*
D03*
X5666440Y4005419D02*
D03*
Y3505419D02*
D03*
X5291440Y5255419D02*
D03*
X5416440Y4505419D02*
D03*
X5291440Y4255419D02*
D03*
X5416440Y4005419D02*
D03*
Y3505419D02*
D03*
X5041439Y5255419D02*
D03*
Y4755419D02*
D03*
X5166440Y4505419D02*
D03*
X5041439Y4255419D02*
D03*
X5166440Y4005419D02*
D03*
Y3505419D02*
D03*
X5041439Y3255419D02*
D03*
X4791439Y4755419D02*
D03*
X4916439Y4505419D02*
D03*
Y4005419D02*
D03*
X4041439Y3255419D02*
D03*
X3416439Y5005419D02*
D03*
X916439Y6005419D02*
D03*
X791439Y3255419D02*
D03*
X666439Y6005419D02*
D03*
X541439Y5755419D02*
D03*
X666439Y3505419D02*
D03*
X541439Y3255419D02*
D03*
X291439Y5755419D02*
D03*
X416439Y3505419D02*
D03*
X291439Y3255419D02*
D03*
X6804948Y4403210D02*
D03*
Y4516755D02*
D03*
X6720000Y4403210D02*
D03*
X6720500Y4516755D02*
D03*
X6235000Y4418354D02*
D03*
Y4497440D02*
D03*
X6329560Y4418354D02*
D03*
Y4497440D02*
D03*
X8545000Y4410000D02*
D03*
Y4505000D02*
D03*
X8635000Y4410000D02*
D03*
X8636278Y4510000D02*
D03*
X9135000Y4410000D02*
D03*
Y4505000D02*
D03*
X9046341Y4410000D02*
D03*
Y4510000D02*
D03*
X4839490Y3215372D02*
D03*
Y3311125D02*
D03*
X4184881Y3205770D02*
D03*
X2856283Y1841645D02*
D03*
X2123695Y1576946D02*
D03*
X2236950Y1819145D02*
D03*
X3800000Y3750000D02*
D03*
X4427412Y5418371D02*
D03*
X2243481Y5096938D02*
D03*
X1330679Y3823788D02*
D03*
X1784412Y3555371D02*
D03*
Y3655371D02*
D03*
X2114912Y4190372D02*
D03*
X2014912Y4290372D02*
D03*
Y4390371D02*
D03*
X1317263Y2991250D02*
D03*
X5469104Y1924138D02*
D03*
X1320000Y2690000D02*
D03*
X3800000Y3530000D02*
D03*
Y3640000D02*
D03*
X3910000Y3430000D02*
D03*
X3800000D02*
D03*
X3910000Y3750000D02*
D03*
X1840000Y2450000D02*
D03*
X875000Y1800000D02*
D03*
X650000D02*
D03*
X400000D02*
D03*
X150000D02*
D03*
X650000Y3175000D02*
D03*
X400000D02*
D03*
X150000D02*
D03*
X972712Y2210000D02*
D03*
Y2113744D02*
D03*
X1075012Y2692500D02*
D03*
X900000Y2690000D02*
D03*
X1520000Y2450000D02*
D03*
X1680000D02*
D03*
X1009912Y3720758D02*
D03*
X910000Y3725000D02*
D03*
X3083880Y475438D02*
D03*
X3904912Y2550000D02*
D03*
X6425000Y2270000D02*
D03*
X2004912Y3385371D02*
D03*
X2584912Y3680372D02*
D03*
X2684912D02*
D03*
X3157331Y4564432D02*
D03*
X2442412Y3555371D02*
D03*
Y3655371D02*
D03*
X1242263Y4505371D02*
D03*
Y4131589D02*
D03*
X859912Y5520371D02*
D03*
X659912D02*
D03*
Y5695372D02*
D03*
Y5870372D02*
D03*
X459912Y5520371D02*
D03*
X3152331Y4765371D02*
D03*
X3157331Y4362872D02*
D03*
X3154831Y4163789D02*
D03*
X3152331Y4972871D02*
D03*
X2114912Y4290372D02*
D03*
X2214912D02*
D03*
Y4190372D02*
D03*
X2014912D02*
D03*
X2114912Y4390371D02*
D03*
X2214912D02*
D03*
X1989481Y5098851D02*
D03*
X259912Y5520371D02*
D03*
X889912Y4509972D02*
D03*
X1037712Y4505371D02*
D03*
D82*
X3387447Y2352796D02*
D03*
X2456848Y5055371D02*
D03*
X4011014Y1640865D02*
D03*
X4005532Y1362334D02*
D03*
X3324383Y3707102D02*
D03*
X2417117Y1839490D02*
D03*
X2917301Y1797917D02*
D03*
X2132764Y1255579D02*
D03*
X2062412Y1134083D02*
D03*
X3276359Y1098148D02*
D03*
X2601283Y677901D02*
D03*
X2711973Y672576D02*
D03*
X2788814D02*
D03*
Y754907D02*
D03*
X2656283Y618131D02*
D03*
X2420000Y440000D02*
D03*
X2550853Y728206D02*
D03*
X3221173Y1174324D02*
D03*
X2396297Y754907D02*
D03*
X2456283Y693185D02*
D03*
X2503405Y753639D02*
D03*
X3192161Y1003335D02*
D03*
X3276359Y1013032D02*
D03*
X2356137Y1754558D02*
D03*
X2516347Y1832864D02*
D03*
X2586037Y1778649D02*
D03*
X2716109Y1774490D02*
D03*
X2776283Y1816988D02*
D03*
X3216840Y1242619D02*
D03*
X817212Y1255579D02*
D03*
X2697964Y4144280D02*
D03*
X2639912Y4845372D02*
D03*
X2132764Y1370979D02*
D03*
X3148783Y1405171D02*
D03*
X4559194Y4946931D02*
D03*
X5960000Y2277957D02*
D03*
X8690812Y3422440D02*
D03*
X9310000Y3050000D02*
D03*
X1693371Y916041D02*
D03*
X3973156Y320901D02*
D03*
X3199847Y287386D02*
D03*
X687412Y-93636D02*
D03*
X2746870Y-391942D02*
D03*
X2745542Y-457328D02*
D03*
X2778598Y-513759D02*
D03*
X2778598Y-701560D02*
D03*
X2906709Y-707511D02*
D03*
X2929767Y-646311D02*
D03*
Y-580911D02*
D03*
X2906709Y-519711D02*
D03*
X2938936Y-462803D02*
D03*
X2939528Y-397405D02*
D03*
X2900369Y-345025D02*
D03*
X2792228Y253653D02*
D03*
Y188253D02*
D03*
Y122853D02*
D03*
Y57453D02*
D03*
X2777663Y-6305D02*
D03*
X2939769Y-291402D02*
D03*
X2934311Y-226230D02*
D03*
X2914880Y-163783D02*
D03*
X2924767Y-99135D02*
D03*
X2920398Y-33881D02*
D03*
X2920338Y31519D02*
D03*
Y96919D02*
D03*
Y162319D02*
D03*
Y227719D02*
D03*
Y293119D02*
D03*
X3491264Y3696221D02*
D03*
X3173695Y1331139D02*
D03*
X3596173Y298036D02*
D03*
X1731712Y4619031D02*
D03*
X2434896Y5770000D02*
D03*
X1690000Y2745000D02*
D03*
X2331481Y2466250D02*
D03*
X1839555Y2809982D02*
D03*
X1400000Y2148717D02*
D03*
X1475570Y3005000D02*
D03*
X1690000Y3100371D02*
D03*
X1616557Y3000000D02*
D03*
X2032231Y2788250D02*
D03*
X2193783Y1531139D02*
D03*
Y1411139D02*
D03*
X2101781Y2110000D02*
D03*
X2116481Y2943910D02*
D03*
X397412Y1394680D02*
D03*
X2193783Y1331139D02*
D03*
X946237Y1056139D02*
D03*
X2193783Y1171299D02*
D03*
X2938710Y765529D02*
D03*
X2576283Y2442421D02*
D03*
X2270110Y3060000D02*
D03*
X2481727Y2802500D02*
D03*
X2780813Y3285413D02*
D03*
X2696283Y2455000D02*
D03*
X2821283D02*
D03*
D83*
X4480550Y5565119D02*
D03*
X2931283Y976139D02*
D03*
X2821283D02*
D03*
X2711283D02*
D03*
X2601283D02*
D03*
X2491283D02*
D03*
X2381283D02*
D03*
X2931283Y1086139D02*
D03*
X2821283D02*
D03*
X2711283D02*
D03*
X2601283D02*
D03*
X2491283D02*
D03*
X2381283D02*
D03*
X2931283Y1196139D02*
D03*
X2821283D02*
D03*
X2711283D02*
D03*
X2601283D02*
D03*
X2491283D02*
D03*
X2381283D02*
D03*
X2931283Y1306139D02*
D03*
X2821283D02*
D03*
X2711283D02*
D03*
X2601283D02*
D03*
X2491283D02*
D03*
X2381283D02*
D03*
X2931283Y1416139D02*
D03*
X2821283D02*
D03*
X2711283D02*
D03*
X2601283D02*
D03*
X2491283D02*
D03*
X2381283D02*
D03*
X2931283Y1526139D02*
D03*
X2821283D02*
D03*
X2711283D02*
D03*
X2601283D02*
D03*
X2491283D02*
D03*
X2381283D02*
D03*
X1680000Y4500371D02*
D03*
D84*
X2618313Y4211593D02*
D03*
X2041481Y4626405D02*
D03*
X1901481Y4617319D02*
D03*
X1804912Y4538371D02*
D03*
X2191481Y4613451D02*
D03*
X2014591Y3197857D02*
D03*
X9101240Y4965641D02*
D03*
X9085000Y3710000D02*
D03*
X6795000Y4945000D02*
D03*
X6774938Y3730503D02*
D03*
X6394091Y3412088D02*
D03*
X4370000Y2190000D02*
D03*
X4613600Y4700372D02*
D03*
X4730000Y2520000D02*
D03*
X4770000Y3720000D02*
D03*
X2494912Y4090372D02*
D03*
X2734912Y3526289D02*
D03*
X2419843Y4632341D02*
D03*
X2462477Y4340372D02*
D03*
X2634912Y4632341D02*
D03*
X2297981Y4613451D02*
D03*
D85*
X4414912Y4778371D02*
D03*
Y4858371D02*
D03*
X4344912D02*
D03*
Y4778371D02*
D03*
%TF.MD5,2c5cf0a33cb75e7b8ac985ed26a6a041*%
M02*
