%TF.GenerationSoftware,Altium Limited,Altium Designer,25.6.2 (33)*%
G04 Layer_Color=8421504*
%FSLAX45Y45*%
%MOMM*%
%TF.SameCoordinates,2E975FAE-7BB7-4674-B285-B64E5795C48D*%
%TF.FilePolarity,Positive*%
%TF.FileFunction,Paste,Top*%
%TF.Part,Single*%
G01*
G75*
%TA.AperFunction,SMDPad,CuDef*%
G04:AMPARAMS|DCode=12|XSize=1.3043mm|YSize=3.22213mm|CornerRadius=0.4565mm|HoleSize=0mm|Usage=FLASHONLY|Rotation=90.000|XOffset=0mm|YOffset=0mm|HoleType=Round|Shape=RoundedRectangle|*
%AMROUNDEDRECTD12*
21,1,1.30430,2.30912,0,0,90.0*
21,1,0.39129,3.22213,0,0,90.0*
1,1,0.91301,1.15456,0.19564*
1,1,0.91301,1.15456,-0.19564*
1,1,0.91301,-1.15456,-0.19564*
1,1,0.91301,-1.15456,0.19564*
%
%ADD12ROUNDEDRECTD12*%
G04:AMPARAMS|DCode=13|XSize=1.3043mm|YSize=0.91213mm|CornerRadius=0.45606mm|HoleSize=0mm|Usage=FLASHONLY|Rotation=90.000|XOffset=0mm|YOffset=0mm|HoleType=Round|Shape=RoundedRectangle|*
%AMROUNDEDRECTD13*
21,1,1.30430,0.00000,0,0,90.0*
21,1,0.39217,0.91213,0,0,90.0*
1,1,0.91213,0.00000,0.19608*
1,1,0.91213,0.00000,-0.19608*
1,1,0.91213,0.00000,-0.19608*
1,1,0.91213,0.00000,0.19608*
%
%ADD13ROUNDEDRECTD13*%
%ADD14R,0.91213X1.30430*%
G04:AMPARAMS|DCode=19|XSize=1.05mm|YSize=0.4mm|CornerRadius=0.05mm|HoleSize=0mm|Usage=FLASHONLY|Rotation=270.000|XOffset=0mm|YOffset=0mm|HoleType=Round|Shape=RoundedRectangle|*
%AMROUNDEDRECTD19*
21,1,1.05000,0.30000,0,0,270.0*
21,1,0.95000,0.40000,0,0,270.0*
1,1,0.10000,-0.15000,-0.47500*
1,1,0.10000,-0.15000,0.47500*
1,1,0.10000,0.15000,0.47500*
1,1,0.10000,0.15000,-0.47500*
%
%ADD19ROUNDEDRECTD19*%
G04:AMPARAMS|DCode=20|XSize=0.2mm|YSize=0.6mm|CornerRadius=0.05mm|HoleSize=0mm|Usage=FLASHONLY|Rotation=270.000|XOffset=0mm|YOffset=0mm|HoleType=Round|Shape=RoundedRectangle|*
%AMROUNDEDRECTD20*
21,1,0.20000,0.50000,0,0,270.0*
21,1,0.10000,0.60000,0,0,270.0*
1,1,0.10000,-0.25000,-0.05000*
1,1,0.10000,-0.25000,0.05000*
1,1,0.10000,0.25000,0.05000*
1,1,0.10000,0.25000,-0.05000*
%
%ADD20ROUNDEDRECTD20*%
G04:AMPARAMS|DCode=25|XSize=0.96535mm|YSize=0.23928mm|CornerRadius=0.11964mm|HoleSize=0mm|Usage=FLASHONLY|Rotation=180.000|XOffset=0mm|YOffset=0mm|HoleType=Round|Shape=RoundedRectangle|*
%AMROUNDEDRECTD25*
21,1,0.96535,0.00000,0,0,180.0*
21,1,0.72606,0.23928,0,0,180.0*
1,1,0.23928,-0.36303,0.00000*
1,1,0.23928,0.36303,0.00000*
1,1,0.23928,0.36303,0.00000*
1,1,0.23928,-0.36303,0.00000*
%
%ADD25ROUNDEDRECTD25*%
%ADD26R,0.96535X0.23928*%
%ADD27R,0.62213X2.47407*%
G04:AMPARAMS|DCode=28|XSize=2.47407mm|YSize=0.62213mm|CornerRadius=0.31107mm|HoleSize=0mm|Usage=FLASHONLY|Rotation=270.000|XOffset=0mm|YOffset=0mm|HoleType=Round|Shape=RoundedRectangle|*
%AMROUNDEDRECTD28*
21,1,2.47407,0.00000,0,0,270.0*
21,1,1.85193,0.62213,0,0,270.0*
1,1,0.62213,0.00000,-0.92597*
1,1,0.62213,0.00000,0.92597*
1,1,0.62213,0.00000,0.92597*
1,1,0.62213,0.00000,-0.92597*
%
%ADD28ROUNDEDRECTD28*%
%ADD42R,0.62339X2.47407*%
G04:AMPARAMS|DCode=43|XSize=2.47407mm|YSize=0.62339mm|CornerRadius=0.31169mm|HoleSize=0mm|Usage=FLASHONLY|Rotation=90.000|XOffset=0mm|YOffset=0mm|HoleType=Round|Shape=RoundedRectangle|*
%AMROUNDEDRECTD43*
21,1,2.47407,0.00000,0,0,90.0*
21,1,1.85068,0.62339,0,0,90.0*
1,1,0.62339,0.00000,0.92534*
1,1,0.62339,0.00000,-0.92534*
1,1,0.62339,0.00000,-0.92534*
1,1,0.62339,0.00000,0.92534*
%
%ADD43ROUNDEDRECTD43*%
%TA.AperFunction,NonConductor*%
%ADD107R,0.20000X0.20000*%
%TA.AperFunction,SMDPad,CuDef*%
G04:AMPARAMS|DCode=108|XSize=1.308mm|YSize=1.508mm|CornerRadius=0.354mm|HoleSize=0mm|Usage=FLASHONLY|Rotation=180.000|XOffset=0mm|YOffset=0mm|HoleType=Round|Shape=RoundedRectangle|*
%AMROUNDEDRECTD108*
21,1,1.30800,0.80000,0,0,180.0*
21,1,0.60000,1.50800,0,0,180.0*
1,1,0.70800,-0.30000,0.40000*
1,1,0.70800,0.30000,0.40000*
1,1,0.70800,0.30000,-0.40000*
1,1,0.70800,-0.30000,-0.40000*
%
%ADD108ROUNDEDRECTD108*%
G04:AMPARAMS|DCode=109|XSize=1.308mm|YSize=1.508mm|CornerRadius=0.354mm|HoleSize=0mm|Usage=FLASHONLY|Rotation=270.000|XOffset=0mm|YOffset=0mm|HoleType=Round|Shape=RoundedRectangle|*
%AMROUNDEDRECTD109*
21,1,1.30800,0.80000,0,0,270.0*
21,1,0.60000,1.50800,0,0,270.0*
1,1,0.70800,-0.40000,-0.30000*
1,1,0.70800,-0.40000,0.30000*
1,1,0.70800,0.40000,0.30000*
1,1,0.70800,0.40000,-0.30000*
%
%ADD109ROUNDEDRECTD109*%
%ADD110R,6.90800X6.90800*%
%ADD111O,0.70800X1.50800*%
%ADD112O,1.50800X0.70800*%
%TA.AperFunction,ConnectorPad*%
%ADD113R,1.55800X1.15800*%
%TA.AperFunction,SMDPad,CuDef*%
%ADD114R,1.93800X6.00800*%
G04:AMPARAMS|DCode=115|XSize=2.108mm|YSize=3.208mm|CornerRadius=0.454mm|HoleSize=0mm|Usage=FLASHONLY|Rotation=270.000|XOffset=0mm|YOffset=0mm|HoleType=Round|Shape=RoundedRectangle|*
%AMROUNDEDRECTD115*
21,1,2.10800,2.30000,0,0,270.0*
21,1,1.20000,3.20800,0,0,270.0*
1,1,0.90800,-1.15000,-0.60000*
1,1,0.90800,-1.15000,0.60000*
1,1,0.90800,1.15000,0.60000*
1,1,0.90800,1.15000,-0.60000*
%
%ADD115ROUNDEDRECTD115*%
G04:AMPARAMS|DCode=116|XSize=1.908mm|YSize=2.208mm|CornerRadius=0.429mm|HoleSize=0mm|Usage=FLASHONLY|Rotation=180.000|XOffset=0mm|YOffset=0mm|HoleType=Round|Shape=RoundedRectangle|*
%AMROUNDEDRECTD116*
21,1,1.90800,1.35000,0,0,180.0*
21,1,1.05000,2.20800,0,0,180.0*
1,1,0.85800,-0.52500,0.67500*
1,1,0.85800,0.52500,0.67500*
1,1,0.85800,0.52500,-0.67500*
1,1,0.85800,-0.52500,-0.67500*
%
%ADD116ROUNDEDRECTD116*%
%ADD117R,3.70800X2.22800*%
G04:AMPARAMS|DCode=121|XSize=1.908mm|YSize=2.208mm|CornerRadius=0.429mm|HoleSize=0mm|Usage=FLASHONLY|Rotation=90.000|XOffset=0mm|YOffset=0mm|HoleType=Round|Shape=RoundedRectangle|*
%AMROUNDEDRECTD121*
21,1,1.90800,1.35000,0,0,90.0*
21,1,1.05000,2.20800,0,0,90.0*
1,1,0.85800,0.67500,0.52500*
1,1,0.85800,0.67500,-0.52500*
1,1,0.85800,-0.67500,-0.52500*
1,1,0.85800,-0.67500,0.52500*
%
%ADD121ROUNDEDRECTD121*%
G04:AMPARAMS|DCode=125|XSize=2.108mm|YSize=3.208mm|CornerRadius=0.454mm|HoleSize=0mm|Usage=FLASHONLY|Rotation=0.000|XOffset=0mm|YOffset=0mm|HoleType=Round|Shape=RoundedRectangle|*
%AMROUNDEDRECTD125*
21,1,2.10800,2.30000,0,0,0.0*
21,1,1.20000,3.20800,0,0,0.0*
1,1,0.90800,0.60000,-1.15000*
1,1,0.90800,-0.60000,-1.15000*
1,1,0.90800,-0.60000,1.15000*
1,1,0.90800,0.60000,1.15000*
%
%ADD125ROUNDEDRECTD125*%
G04:AMPARAMS|DCode=126|XSize=1.138mm|YSize=1.338mm|CornerRadius=0.33275mm|HoleSize=0mm|Usage=FLASHONLY|Rotation=0.000|XOffset=0mm|YOffset=0mm|HoleType=Round|Shape=RoundedRectangle|*
%AMROUNDEDRECTD126*
21,1,1.13800,0.67250,0,0,0.0*
21,1,0.47250,1.33800,0,0,0.0*
1,1,0.66550,0.23625,-0.33625*
1,1,0.66550,-0.23625,-0.33625*
1,1,0.66550,-0.23625,0.33625*
1,1,0.66550,0.23625,0.33625*
%
%ADD126ROUNDEDRECTD126*%
%ADD127R,1.40800X1.30800*%
%ADD128R,1.85800X0.90800*%
%ADD129R,1.85800X1.10800*%
%ADD130R,1.30800X3.20800*%
%ADD131R,6.00800X5.50800*%
G04:AMPARAMS|DCode=132|XSize=1.508mm|YSize=2.308mm|CornerRadius=0.304mm|HoleSize=0mm|Usage=FLASHONLY|Rotation=90.000|XOffset=0mm|YOffset=0mm|HoleType=Round|Shape=RoundedRectangle|*
%AMROUNDEDRECTD132*
21,1,1.50800,1.70000,0,0,90.0*
21,1,0.90000,2.30800,0,0,90.0*
1,1,0.60800,0.85000,0.45000*
1,1,0.60800,0.85000,-0.45000*
1,1,0.60800,-0.85000,-0.45000*
1,1,0.60800,-0.85000,0.45000*
%
%ADD132ROUNDEDRECTD132*%
%ADD133R,1.40800X0.90800*%
%TA.AperFunction,NonConductor*%
%ADD144R,2.21079X1.13579*%
%TA.AperFunction,SMDPad,CuDef*%
%ADD145R,2.00800X1.10800*%
%ADD146R,2.00800X0.80800*%
%ADD147R,3.25800X3.25800*%
G04:AMPARAMS|DCode=148|XSize=0.758mm|YSize=1.258mm|CornerRadius=0.3165mm|HoleSize=0mm|Usage=FLASHONLY|Rotation=180.000|XOffset=0mm|YOffset=0mm|HoleType=Round|Shape=RoundedRectangle|*
%AMROUNDEDRECTD148*
21,1,0.75800,0.62500,0,0,180.0*
21,1,0.12500,1.25800,0,0,180.0*
1,1,0.63300,-0.06250,0.31250*
1,1,0.63300,0.06250,0.31250*
1,1,0.63300,0.06250,-0.31250*
1,1,0.63300,-0.06250,-0.31250*
%
%ADD148ROUNDEDRECTD148*%
G04:AMPARAMS|DCode=149|XSize=0.758mm|YSize=1.258mm|CornerRadius=0.3165mm|HoleSize=0mm|Usage=FLASHONLY|Rotation=270.000|XOffset=0mm|YOffset=0mm|HoleType=Round|Shape=RoundedRectangle|*
%AMROUNDEDRECTD149*
21,1,0.75800,0.62500,0,0,270.0*
21,1,0.12500,1.25800,0,0,270.0*
1,1,0.63300,-0.31250,-0.06250*
1,1,0.63300,-0.31250,0.06250*
1,1,0.63300,0.31250,0.06250*
1,1,0.63300,0.31250,-0.06250*
%
%ADD149ROUNDEDRECTD149*%
%TA.AperFunction,TestPad*%
G04:AMPARAMS|DCode=150|XSize=1.408mm|YSize=1.308mm|CornerRadius=0.294mm|HoleSize=0mm|Usage=FLASHONLY|Rotation=0.000|XOffset=0mm|YOffset=0mm|HoleType=Round|Shape=RoundedRectangle|*
%AMROUNDEDRECTD150*
21,1,1.40800,0.72000,0,0,0.0*
21,1,0.82000,1.30800,0,0,0.0*
1,1,0.58800,0.41000,-0.36000*
1,1,0.58800,-0.41000,-0.36000*
1,1,0.58800,-0.41000,0.36000*
1,1,0.58800,0.41000,0.36000*
%
%ADD150ROUNDEDRECTD150*%
D12*
X4555000Y627853D02*
D03*
D13*
X4784000Y-41146D02*
D03*
X4555000D02*
D03*
D14*
X4326000D02*
D03*
D19*
X4414912Y4885871D02*
D03*
X4344912D02*
D03*
Y4750871D02*
D03*
X4414912D02*
D03*
D20*
X4264912Y4893371D02*
D03*
Y4843371D02*
D03*
Y4793371D02*
D03*
Y4743371D02*
D03*
X4494912Y4893371D02*
D03*
Y4843371D02*
D03*
Y4793371D02*
D03*
Y4743371D02*
D03*
D25*
X1611356Y2295000D02*
D03*
Y2345000D02*
D03*
Y2395000D02*
D03*
X1752069D02*
D03*
Y2345000D02*
D03*
D26*
Y2295000D02*
D03*
D27*
X4693560Y3504166D02*
D03*
X6720500Y4701607D02*
D03*
X9030500D02*
D03*
D28*
X4566560Y3504166D02*
D03*
X4439560D02*
D03*
X4312560D02*
D03*
Y3020953D02*
D03*
X4439560D02*
D03*
X4566560D02*
D03*
X4693560D02*
D03*
X6593500Y4701607D02*
D03*
X6466500D02*
D03*
X6339500D02*
D03*
Y4218393D02*
D03*
X6466500D02*
D03*
X6593500D02*
D03*
X6720500D02*
D03*
X8903500Y4701607D02*
D03*
X8776500D02*
D03*
X8649500D02*
D03*
Y4218393D02*
D03*
X8776500D02*
D03*
X8903500D02*
D03*
X9030500D02*
D03*
D42*
X1862481Y5314745D02*
D03*
D43*
X1989481D02*
D03*
X2116481D02*
D03*
X2243481D02*
D03*
Y5797958D02*
D03*
X2116481D02*
D03*
X1989481D02*
D03*
X1862481D02*
D03*
D107*
X2806283Y401736D02*
D03*
Y460436D02*
D03*
Y519136D02*
D03*
X2856283Y401736D02*
D03*
Y460436D02*
D03*
Y519136D02*
D03*
D108*
X4555000Y850000D02*
D03*
X4405000D02*
D03*
X4835000Y-270000D02*
D03*
X4685000D02*
D03*
X3878662Y1331139D02*
D03*
X3728662D02*
D03*
X3875000Y1658639D02*
D03*
X3725000D02*
D03*
X4555000Y2550000D02*
D03*
X4405000D02*
D03*
X4555000Y2360000D02*
D03*
X4405000D02*
D03*
X4555000Y2740000D02*
D03*
X4405000D02*
D03*
X4074912Y3804750D02*
D03*
X4224912D02*
D03*
X4875000Y2360000D02*
D03*
X4725000D02*
D03*
X4717500Y3857500D02*
D03*
X4567500D02*
D03*
X4129912Y5268371D02*
D03*
X4279912D02*
D03*
X4129912Y5068371D02*
D03*
X4279912D02*
D03*
X1734912Y5020371D02*
D03*
X1584912D02*
D03*
X1979912Y4950371D02*
D03*
X2129912D02*
D03*
X2172412Y3830371D02*
D03*
X2022412D02*
D03*
X1985000Y2926500D02*
D03*
X1835000D02*
D03*
X1985000Y2662500D02*
D03*
X1835000D02*
D03*
X1384056Y2850000D02*
D03*
X1534056D02*
D03*
X1384056Y3130000D02*
D03*
X1534056D02*
D03*
X1519577Y4505371D02*
D03*
X1369577D02*
D03*
X1525968Y4131589D02*
D03*
X1375968D02*
D03*
X3014912Y4972871D02*
D03*
X2864912D02*
D03*
X3017413Y4163789D02*
D03*
X2867413D02*
D03*
X2864912Y4765371D02*
D03*
X3014912D02*
D03*
X2867412Y3951289D02*
D03*
X3017412D02*
D03*
X3019912Y4567871D02*
D03*
X2869912D02*
D03*
X3017412Y3741288D02*
D03*
X2867412D02*
D03*
X2869912Y4362872D02*
D03*
X3019912D02*
D03*
X2867412Y3526289D02*
D03*
X3017412D02*
D03*
X5550000Y-640000D02*
D03*
X5700000D02*
D03*
X5550000Y-450000D02*
D03*
X5700000D02*
D03*
X5550000Y-260000D02*
D03*
X5700000D02*
D03*
X5550000Y-70000D02*
D03*
X5700000D02*
D03*
X5550000Y120000D02*
D03*
X5700000D02*
D03*
X5550000Y310000D02*
D03*
X5700000D02*
D03*
X2842654Y-610006D02*
D03*
X2692654D02*
D03*
X2837653Y-93636D02*
D03*
X2687654D02*
D03*
X4129912Y4568371D02*
D03*
X4279912D02*
D03*
Y4368371D02*
D03*
X4129912D02*
D03*
X3324383Y3580000D02*
D03*
X3474383D02*
D03*
X3729912Y4718371D02*
D03*
X3579912D02*
D03*
X4730000Y5170000D02*
D03*
X4880000D02*
D03*
X4730000Y5360000D02*
D03*
X4880000D02*
D03*
X3729912Y4918371D02*
D03*
X3579912D02*
D03*
X6795000Y3560000D02*
D03*
X6945000D02*
D03*
X9097683D02*
D03*
X9247683D02*
D03*
X6445000D02*
D03*
X6595000D02*
D03*
X8745000D02*
D03*
X8895000D02*
D03*
X6243917Y5000000D02*
D03*
X6093917D02*
D03*
X6440000Y3750000D02*
D03*
X6590000D02*
D03*
X6440000Y3940000D02*
D03*
X6590000D02*
D03*
X8560000Y4991953D02*
D03*
X8410000D02*
D03*
X8745000Y3750000D02*
D03*
X8895000D02*
D03*
X8745000Y3940000D02*
D03*
X8895000D02*
D03*
X3337382Y1331139D02*
D03*
X3487382D02*
D03*
X2048695Y1658639D02*
D03*
X1898695D02*
D03*
X2048695Y1844138D02*
D03*
X1898695D02*
D03*
X3416264Y1148132D02*
D03*
X3566264D02*
D03*
X1942412Y916138D02*
D03*
X1792412D02*
D03*
X1949840Y1131138D02*
D03*
X1799840D02*
D03*
X3221173Y504188D02*
D03*
X3371173D02*
D03*
X1961086Y1476139D02*
D03*
X1811086D02*
D03*
X964911Y3572522D02*
D03*
X814912D02*
D03*
X964911Y3066250D02*
D03*
X814912D02*
D03*
X1167263Y2525000D02*
D03*
X1317263D02*
D03*
D109*
X10450000Y4632435D02*
D03*
Y4782435D02*
D03*
X8130000Y4628393D02*
D03*
Y4778393D02*
D03*
X6425000Y2650000D02*
D03*
Y2500000D02*
D03*
X3204251Y-5163D02*
D03*
Y144837D02*
D03*
X3973156Y164837D02*
D03*
Y14837D02*
D03*
X3596173Y148583D02*
D03*
Y-1417D02*
D03*
X3973156Y-183746D02*
D03*
Y-333746D02*
D03*
X3199847Y-199054D02*
D03*
Y-349054D02*
D03*
X3596173Y-195308D02*
D03*
Y-345308D02*
D03*
X813706Y1544680D02*
D03*
Y1394680D02*
D03*
X4218127Y2345000D02*
D03*
Y2195000D02*
D03*
X4220000Y2575000D02*
D03*
Y2725000D02*
D03*
X1494912Y3485372D02*
D03*
Y3335372D02*
D03*
Y3821289D02*
D03*
Y3671289D02*
D03*
X3924912Y5268371D02*
D03*
Y5418371D02*
D03*
X3934912Y4373371D02*
D03*
Y4223371D02*
D03*
X2634912Y4340372D02*
D03*
Y4490372D02*
D03*
X3714912Y5268371D02*
D03*
Y5418371D02*
D03*
X2384912Y4770372D02*
D03*
Y4920372D02*
D03*
X2172412Y3215372D02*
D03*
Y3365371D02*
D03*
X2842656Y-428615D02*
D03*
Y-278615D02*
D03*
X3734912Y4223371D02*
D03*
Y4373371D02*
D03*
X3929912Y4568371D02*
D03*
Y4718371D02*
D03*
Y5068371D02*
D03*
Y4918371D02*
D03*
X6260000Y3410000D02*
D03*
Y3560000D02*
D03*
X8560000Y3422440D02*
D03*
Y3572440D02*
D03*
X6260000Y3925000D02*
D03*
Y3775000D02*
D03*
X8560000Y3925000D02*
D03*
Y3775000D02*
D03*
X2856283Y1916645D02*
D03*
Y2066645D02*
D03*
X10450000Y4280000D02*
D03*
Y4430000D02*
D03*
X8130000Y4272440D02*
D03*
Y4422440D02*
D03*
X6419484Y3060000D02*
D03*
Y2910000D02*
D03*
X817212Y414188D02*
D03*
Y264188D02*
D03*
X3596173Y824137D02*
D03*
Y674137D02*
D03*
X1534057Y1758613D02*
D03*
Y1908613D02*
D03*
X1527545Y1131138D02*
D03*
Y981138D02*
D03*
X972712Y3400660D02*
D03*
Y3250660D02*
D03*
X1160000Y2035000D02*
D03*
Y1885000D02*
D03*
X3914912Y3075000D02*
D03*
Y2925000D02*
D03*
D110*
X2656283Y1251138D02*
D03*
D111*
X2336283Y1638639D02*
D03*
X2376283D02*
D03*
X2416283D02*
D03*
X2456283D02*
D03*
X2496283D02*
D03*
X2536283D02*
D03*
X2576283D02*
D03*
X2616283D02*
D03*
X2656283D02*
D03*
X2696283D02*
D03*
X2736283D02*
D03*
X2776283D02*
D03*
X2816283D02*
D03*
X2856283D02*
D03*
X2896283D02*
D03*
X2936283D02*
D03*
X2976283D02*
D03*
Y863639D02*
D03*
X2936283D02*
D03*
X2896283D02*
D03*
X2856283D02*
D03*
X2816283D02*
D03*
X2776283D02*
D03*
X2736283D02*
D03*
X2696283D02*
D03*
X2656283D02*
D03*
X2616283D02*
D03*
X2576283D02*
D03*
X2536283D02*
D03*
X2496283D02*
D03*
X2456283D02*
D03*
X2416283D02*
D03*
X2376283D02*
D03*
X2336283D02*
D03*
D112*
X3043783Y1571139D02*
D03*
Y1531139D02*
D03*
Y1491138D02*
D03*
Y1451139D02*
D03*
Y1411139D02*
D03*
Y1371138D02*
D03*
Y1331139D02*
D03*
Y1291139D02*
D03*
Y1251138D02*
D03*
Y1211139D02*
D03*
Y1171139D02*
D03*
Y1131139D02*
D03*
Y1091139D02*
D03*
Y1051139D02*
D03*
Y1011139D02*
D03*
Y971139D02*
D03*
Y931139D02*
D03*
X2268783D02*
D03*
Y971139D02*
D03*
Y1011139D02*
D03*
Y1051139D02*
D03*
Y1091139D02*
D03*
Y1131139D02*
D03*
Y1171139D02*
D03*
Y1211139D02*
D03*
Y1251138D02*
D03*
Y1291139D02*
D03*
Y1331139D02*
D03*
Y1371138D02*
D03*
Y1411139D02*
D03*
Y1451139D02*
D03*
Y1491138D02*
D03*
Y1531139D02*
D03*
Y1571139D02*
D03*
D113*
X179913Y1541138D02*
D03*
X594912D02*
D03*
X179913Y1326139D02*
D03*
X594912D02*
D03*
X179913Y445409D02*
D03*
X594912D02*
D03*
X179913Y230409D02*
D03*
X594912D02*
D03*
D114*
X5822000Y2520000D02*
D03*
X5418000D02*
D03*
X7456000Y3320000D02*
D03*
X7860000D02*
D03*
X9744280D02*
D03*
X10148280D02*
D03*
D115*
X5790000Y3010000D02*
D03*
Y3290000D02*
D03*
X7840000Y4480000D02*
D03*
Y4200000D02*
D03*
X10148280Y4498393D02*
D03*
Y4218393D02*
D03*
D116*
X4528200Y4148371D02*
D03*
X4756800D02*
D03*
X8872640Y5276323D02*
D03*
X9101240D02*
D03*
X6562640Y5252500D02*
D03*
X6791240D02*
D03*
X1520612Y4785371D02*
D03*
X1749212D02*
D03*
X1983112Y3605371D02*
D03*
X2211712D02*
D03*
X2629212Y3880371D02*
D03*
X2400612D02*
D03*
D117*
X5220000Y3020000D02*
D03*
Y3660000D02*
D03*
D121*
X2530000Y5594300D02*
D03*
Y5365700D02*
D03*
X3484912Y5396971D02*
D03*
Y5168371D02*
D03*
X10435183Y1562569D02*
D03*
Y1333969D02*
D03*
X9885183Y1562569D02*
D03*
Y1333969D02*
D03*
X8853904Y1565952D02*
D03*
Y1337352D02*
D03*
X8301587Y1569696D02*
D03*
Y1341096D02*
D03*
X7753904Y1565952D02*
D03*
Y1337352D02*
D03*
X7203904Y1570951D02*
D03*
Y1342351D02*
D03*
X3504912Y4468371D02*
D03*
Y4239771D02*
D03*
D125*
X1149912Y5795371D02*
D03*
X869912D02*
D03*
X4790000Y4480019D02*
D03*
X4510000D02*
D03*
D126*
X2198912Y4750371D02*
D03*
X1975912D02*
D03*
X518956Y680688D02*
D03*
X295956D02*
D03*
D127*
X1867412Y3195372D02*
D03*
Y3385371D02*
D03*
X1667412Y3290372D02*
D03*
D128*
X4707499Y1264137D02*
D03*
Y1199137D02*
D03*
Y1134137D02*
D03*
Y1329138D02*
D03*
Y1394138D02*
D03*
X5292499D02*
D03*
Y1329138D02*
D03*
Y1134137D02*
D03*
Y1199137D02*
D03*
Y1264137D02*
D03*
Y1459138D02*
D03*
Y1524138D02*
D03*
Y1589138D02*
D03*
Y1654138D02*
D03*
Y1849139D02*
D03*
Y1784138D02*
D03*
Y1719138D02*
D03*
X4707499D02*
D03*
Y1784138D02*
D03*
Y1849139D02*
D03*
Y1654138D02*
D03*
Y1589138D02*
D03*
Y1524138D02*
D03*
Y1459138D02*
D03*
D129*
X5292499Y1059137D02*
D03*
Y1924138D02*
D03*
X4707499D02*
D03*
Y1059137D02*
D03*
D130*
X7500000Y4645000D02*
D03*
X7040000D02*
D03*
X9810000Y4670000D02*
D03*
X9350000D02*
D03*
D131*
X7270000Y3960000D02*
D03*
X9580000Y3985000D02*
D03*
D132*
X1534057Y1326139D02*
D03*
Y1576139D02*
D03*
D133*
X2618313Y3166250D02*
D03*
Y3101250D02*
D03*
Y3036250D02*
D03*
X2843313D02*
D03*
Y3166250D02*
D03*
X2618313Y2727500D02*
D03*
Y2662500D02*
D03*
Y2597500D02*
D03*
X2843313D02*
D03*
Y2727500D02*
D03*
D144*
X4503051Y3262551D02*
D03*
X6530024Y4459972D02*
D03*
X8840009Y4459965D02*
D03*
D145*
X669912Y5110372D02*
D03*
Y5190372D02*
D03*
Y4550371D02*
D03*
Y4630371D02*
D03*
X669913Y2720000D02*
D03*
Y2800000D02*
D03*
Y2160000D02*
D03*
Y2240000D02*
D03*
D146*
X669912Y5045371D02*
D03*
Y4995372D02*
D03*
Y4945372D02*
D03*
Y4695372D02*
D03*
Y4745372D02*
D03*
Y4795371D02*
D03*
Y4845372D02*
D03*
Y4895371D02*
D03*
X669913Y2655000D02*
D03*
Y2605000D02*
D03*
Y2555000D02*
D03*
Y2305000D02*
D03*
Y2355000D02*
D03*
Y2405000D02*
D03*
Y2455000D02*
D03*
Y2505000D02*
D03*
D147*
X2116481Y4290372D02*
D03*
D148*
X2241481Y4095372D02*
D03*
X2191481D02*
D03*
X2141481D02*
D03*
X2091481D02*
D03*
X2041481D02*
D03*
X1991481D02*
D03*
Y4485372D02*
D03*
X2041481D02*
D03*
X2091481D02*
D03*
X2141481D02*
D03*
X2191481D02*
D03*
X2241481D02*
D03*
D149*
X1921481Y4165372D02*
D03*
Y4215372D02*
D03*
Y4265371D02*
D03*
Y4315372D02*
D03*
Y4365372D02*
D03*
Y4415372D02*
D03*
X2311481D02*
D03*
Y4365372D02*
D03*
Y4315372D02*
D03*
Y4265371D02*
D03*
Y4215372D02*
D03*
Y4165372D02*
D03*
D150*
X3203673Y683541D02*
D03*
X3388673D02*
D03*
X3203673Y828541D02*
D03*
X3388673D02*
D03*
%TF.MD5,e78df2993d753a0786d1222c8259fc73*%
M02*
