%TF.GenerationSoftware,Altium Limited,Altium Designer,25.6.2 (33)*%
G04 Layer_Physical_Order=3*
G04 Layer_Color=128*
%FSLAX45Y45*%
%MOMM*%
%TF.SameCoordinates,2E975FAE-7BB7-4674-B285-B64E5795C48D*%
%TF.FilePolarity,Negative*%
%TF.FileFunction,Copper,L3,Inr,Plane*%
%TF.Part,Single*%
G01*
G75*
%TA.AperFunction,NonConductor*%
%ADD86C,1.01600*%
%ADD87C,0.25400*%
%ADD88R,40.57961X9.30000*%
%TA.AperFunction,ComponentPad*%
%ADD89C,1.76200*%
%ADD90C,1.77800*%
%ADD91C,1.66200*%
%ADD92C,1.36200*%
%ADD93O,2.51200X1.31200*%
%ADD94O,2.21200X1.31200*%
%TA.AperFunction,ViaPad*%
%ADD95C,1.16200*%
%ADD96C,1.06200*%
%ADD97C,1.06680*%
%TA.AperFunction,ComponentPad*%
%ADD98C,3.76200*%
D86*
X300000Y6300000D02*
G03*
X0Y6000000I0J-300000D01*
G01*
X10700000D02*
G03*
X10400000Y6300000I-300000J0D01*
G01*
Y-850000D02*
G03*
X10700000Y-550000I0J300000D01*
G01*
X0D02*
G03*
X300000Y-850000I300000J0D01*
G01*
X0Y-550000D02*
Y6000000D01*
X300000Y6300000D02*
X10400000D01*
X10700000Y-550000D02*
Y6000000D01*
X4011014Y-850000D02*
X10400000D01*
X3261014Y-1600000D02*
X4011014Y-850000D01*
X1175288Y-1600000D02*
X3261014D01*
X425287Y-850000D02*
X1175288Y-1600000D01*
X300000Y-850000D02*
X425287D01*
D87*
X3354912Y3830371D02*
Y3900769D01*
X3240000Y3830371D02*
X3354912D01*
X3240000Y3763530D02*
Y3830371D01*
Y3480371D02*
Y3770988D01*
X1242263Y3480371D02*
X3240000D01*
X1242263D02*
Y3596288D01*
X3617661Y6047252D02*
X3764912Y5900000D01*
X1242263Y3596288D02*
Y3900000D01*
X800000Y3596288D02*
Y3900000D01*
X1131697Y3596288D02*
X1242263D01*
X800000D02*
X910566D01*
X784913Y2038632D02*
X1163632D01*
Y2770000D01*
X784913D02*
X1163632D01*
X784913Y2038632D02*
Y2770000D01*
X3960000Y3830371D02*
Y5020000D01*
X4600000D01*
Y5900000D01*
X3764912D02*
X4600000D01*
X910566Y3596288D02*
X1131697D01*
X1242263Y3900000D02*
Y5096938D01*
X3354912D01*
Y3885901D02*
Y5096938D01*
Y3830371D02*
X3960000D01*
X800000Y6047252D02*
X3617661D01*
X800000Y3900000D02*
Y6047252D01*
D88*
X2297873Y-1250695D02*
D03*
D89*
X10416440Y5647440D02*
D03*
X10430000Y-83910D02*
D03*
X4840000Y-600000D02*
D03*
X2554913Y6075156D02*
D03*
X1434065D02*
D03*
X2823006Y5365700D02*
D03*
X978033Y3935931D02*
D03*
X1766667Y3875000D02*
D03*
X3373223Y6075156D02*
D03*
X4050000D02*
D03*
X3714912D02*
D03*
X4404100D02*
D03*
X4168143Y1879824D02*
D03*
X3803662Y1044851D02*
D03*
X3491264Y1693058D02*
D03*
X4938290Y4943371D02*
D03*
X3524073Y2178717D02*
D03*
X8230000Y4060000D02*
D03*
X10500000Y4087440D02*
D03*
X630584Y3945371D02*
D03*
D90*
X2108586Y26254D02*
D03*
X1554390D02*
D03*
X1046390D02*
D03*
X1300390D02*
D03*
X2100695Y674137D02*
D03*
X1563057Y680688D02*
D03*
X1055057D02*
D03*
X1309057D02*
D03*
X2302695Y-610006D02*
D03*
X1794695D02*
D03*
X1540695D02*
D03*
X1286695D02*
D03*
X1032695D02*
D03*
X10164062Y1570269D02*
D03*
Y1062269D02*
D03*
Y1316269D02*
D03*
X9608463Y1560269D02*
D03*
Y1052269D02*
D03*
Y1306269D02*
D03*
X8579212Y1572361D02*
D03*
Y1064361D02*
D03*
Y1318361D02*
D03*
X8028904Y1589030D02*
D03*
Y1081030D02*
D03*
Y1335030D02*
D03*
X7478904Y1594029D02*
D03*
Y1086029D02*
D03*
Y1340029D02*
D03*
X6939904Y1609529D02*
D03*
Y1101529D02*
D03*
Y1355529D02*
D03*
X6636904Y1351151D02*
D03*
Y1097151D02*
D03*
X6342500Y1626173D02*
D03*
Y1118173D02*
D03*
Y1372173D02*
D03*
D91*
X7908000Y2349992D02*
D03*
X7408000D02*
D03*
X10230000D02*
D03*
X9730000D02*
D03*
D92*
X544912Y4580372D02*
D03*
Y5160371D02*
D03*
X544913Y2190000D02*
D03*
Y2770000D02*
D03*
D93*
X594912Y5302872D02*
D03*
Y4437871D02*
D03*
X594912Y2912500D02*
D03*
Y2047500D02*
D03*
D94*
X174912Y4437871D02*
D03*
Y5302872D02*
D03*
X174913Y2047500D02*
D03*
Y2912500D02*
D03*
D95*
X3154831Y3526289D02*
D03*
Y3951289D02*
D03*
X3591840Y3492619D02*
D03*
X3360000Y1520000D02*
D03*
X4670000Y240000D02*
D03*
X4041439Y5255419D02*
D03*
X3764912Y5128371D02*
D03*
X3664929Y4569971D02*
D03*
X3764912Y4508371D02*
D03*
X3841840Y2492619D02*
D03*
X4723353Y3215372D02*
D03*
X4720000Y3314817D02*
D03*
X3654912Y5068371D02*
D03*
X3841840Y1992619D02*
D03*
X3716840Y2242619D02*
D03*
X4466840Y1742619D02*
D03*
X4341840Y1992619D02*
D03*
X4591840D02*
D03*
X4301176Y3205770D02*
D03*
Y3314817D02*
D03*
X4184881Y3311125D02*
D03*
X1709447Y1879824D02*
D03*
X1715433Y1626173D02*
D03*
X5591840Y1992619D02*
D03*
X5091840D02*
D03*
X4966840Y1742619D02*
D03*
X5091840Y1492619D02*
D03*
X4841840Y1992619D02*
D03*
Y1492619D02*
D03*
X4466840Y-257381D02*
D03*
X4591840Y-507381D02*
D03*
X4216840Y-257381D02*
D03*
X4341840Y-507381D02*
D03*
X3966840Y1242619D02*
D03*
X4091840Y992619D02*
D03*
X3966840Y742619D02*
D03*
X4091840Y492619D02*
D03*
Y-7381D02*
D03*
Y-507381D02*
D03*
X3841840D02*
D03*
X3591840Y992619D02*
D03*
Y-507381D02*
D03*
X3216840Y4242619D02*
D03*
X3341840Y1992619D02*
D03*
Y-507381D02*
D03*
X3091840Y1992619D02*
D03*
Y-507381D02*
D03*
X2466840Y2242619D02*
D03*
Y-257381D02*
D03*
X2091840Y1992619D02*
D03*
X1966840Y1742619D02*
D03*
X1716840Y2242619D02*
D03*
X1841840Y1992619D02*
D03*
X1716840Y1742619D02*
D03*
X1591840Y2492619D02*
D03*
X1466840Y2242619D02*
D03*
X1591840Y1992619D02*
D03*
X1341840Y992619D02*
D03*
X1091840D02*
D03*
X841840Y-7381D02*
D03*
X716840Y-257381D02*
D03*
X841840Y-507381D02*
D03*
X591840Y992619D02*
D03*
Y-507381D02*
D03*
X341840Y992619D02*
D03*
X2489912Y2663581D02*
D03*
X2494813Y3091294D02*
D03*
X3425543Y4918371D02*
D03*
X3429964Y4713371D02*
D03*
X8635000Y2512969D02*
D03*
X6937500Y2362500D02*
D03*
X6309984Y1884138D02*
D03*
X6622212Y1924138D02*
D03*
X7318204Y1849139D02*
D03*
X8475218Y1860000D02*
D03*
X9022683D02*
D03*
X8668514Y780000D02*
D03*
X8076144Y850000D02*
D03*
X7153920Y1043971D02*
D03*
X7626940Y915073D02*
D03*
X6357193Y-60163D02*
D03*
X6871380Y-59707D02*
D03*
X7547428D02*
D03*
X8208182Y-50000D02*
D03*
X8844917Y-130000D02*
D03*
X8301587Y-517236D02*
D03*
X7596341Y-549984D02*
D03*
X6896828Y-534141D02*
D03*
X6299424D02*
D03*
X9333145Y1025977D02*
D03*
X10041440Y711020D02*
D03*
X9952683Y2230000D02*
D03*
X9350000Y1529285D02*
D03*
X9885183Y1062269D02*
D03*
X10470000Y976717D02*
D03*
X10207138Y2600000D02*
D03*
X10253364Y2050000D02*
D03*
X8041440Y4005419D02*
D03*
X8166440Y3755419D02*
D03*
X8041440Y3505419D02*
D03*
X8166440Y3255419D02*
D03*
X8041440Y3005419D02*
D03*
X7791440Y4005419D02*
D03*
X7916440Y3755419D02*
D03*
X10291440Y4005419D02*
D03*
X10416440Y3755419D02*
D03*
X10291440Y3505419D02*
D03*
X10416440Y3255419D02*
D03*
X10041440Y4005419D02*
D03*
X10166440Y3755419D02*
D03*
X10416440Y505419D02*
D03*
X10166440Y5505419D02*
D03*
X10041440Y5255419D02*
D03*
X10166440Y5005419D02*
D03*
X10041440Y4755419D02*
D03*
X9916440Y5505419D02*
D03*
X9791440Y5255419D02*
D03*
X9916440Y5005419D02*
D03*
X9666440Y5505419D02*
D03*
X9541440Y5255419D02*
D03*
X9666440Y5005419D02*
D03*
X9541440Y4755419D02*
D03*
X9666440Y-494581D02*
D03*
X9416440Y5505419D02*
D03*
X9291440Y5255419D02*
D03*
X9416440Y5005419D02*
D03*
Y505419D02*
D03*
X9291440Y255419D02*
D03*
Y-244581D02*
D03*
Y-744581D02*
D03*
X9166440Y5505419D02*
D03*
X8416440Y4505419D02*
D03*
X7791440Y5255419D02*
D03*
X7916440Y5005419D02*
D03*
X7791440Y4755419D02*
D03*
X7541440Y5255419D02*
D03*
X7666440Y5005419D02*
D03*
X7291440Y5255419D02*
D03*
X7416440Y5005419D02*
D03*
X7291440Y4755419D02*
D03*
X7041440Y5255419D02*
D03*
X7166440Y5005419D02*
D03*
X6916440D02*
D03*
X6041440Y4755419D02*
D03*
X5791440Y5255419D02*
D03*
X5916440Y5005419D02*
D03*
X5791440Y4755419D02*
D03*
X5916440Y4505419D02*
D03*
X5791440Y4255419D02*
D03*
X5916440Y4005419D02*
D03*
X5791440Y3755419D02*
D03*
X5916440Y3505419D02*
D03*
Y2005419D02*
D03*
X5541440Y5255419D02*
D03*
X5666440Y5005419D02*
D03*
X5541440Y4755419D02*
D03*
X5666440Y4505419D02*
D03*
X5541440Y4255419D02*
D03*
X5666440Y4005419D02*
D03*
Y3505419D02*
D03*
X5291440Y5255419D02*
D03*
X5416440Y4505419D02*
D03*
X5291440Y4255419D02*
D03*
X5416440Y4005419D02*
D03*
Y3505419D02*
D03*
X5041439Y5255419D02*
D03*
Y4755419D02*
D03*
X5166440Y4505419D02*
D03*
X5041439Y4255419D02*
D03*
X5166440Y4005419D02*
D03*
Y3505419D02*
D03*
X5041439Y3255419D02*
D03*
X4791439Y4755419D02*
D03*
X4916439Y4505419D02*
D03*
Y4005419D02*
D03*
X4041439Y3255419D02*
D03*
X3416439Y5005419D02*
D03*
X916439Y6005419D02*
D03*
X791439Y3255419D02*
D03*
X666439Y6005419D02*
D03*
X541439Y5755419D02*
D03*
X666439Y3505419D02*
D03*
X541439Y3255419D02*
D03*
X291439Y5755419D02*
D03*
X416439Y3505419D02*
D03*
X291439Y3255419D02*
D03*
X6804948Y4403210D02*
D03*
Y4516755D02*
D03*
X6720000Y4403210D02*
D03*
X6720500Y4516755D02*
D03*
X6235000Y4418354D02*
D03*
Y4497440D02*
D03*
X6329560Y4418354D02*
D03*
Y4497440D02*
D03*
X8545000Y4410000D02*
D03*
Y4505000D02*
D03*
X8635000Y4410000D02*
D03*
X8636278Y4510000D02*
D03*
X9135000Y4410000D02*
D03*
Y4505000D02*
D03*
X9046341Y4410000D02*
D03*
Y4510000D02*
D03*
X4839490Y3215372D02*
D03*
Y3311125D02*
D03*
X4184881Y3205770D02*
D03*
X3800000Y3750000D02*
D03*
X2243481Y5096938D02*
D03*
X1784412Y3555371D02*
D03*
Y3655371D02*
D03*
X2114912Y4190372D02*
D03*
X2014912Y4290372D02*
D03*
Y4390371D02*
D03*
X5469104Y1924138D02*
D03*
X3800000Y3530000D02*
D03*
Y3640000D02*
D03*
X3910000Y3430000D02*
D03*
X3800000D02*
D03*
X3910000Y3750000D02*
D03*
X875000Y1800000D02*
D03*
X650000D02*
D03*
X400000D02*
D03*
X150000D02*
D03*
X650000Y3175000D02*
D03*
X400000D02*
D03*
X150000D02*
D03*
X3083880Y475438D02*
D03*
X6425000Y2270000D02*
D03*
X2004912Y3385371D02*
D03*
X2584912Y3680372D02*
D03*
X2684912D02*
D03*
X859912Y5520371D02*
D03*
X659912D02*
D03*
Y5695372D02*
D03*
Y5870372D02*
D03*
X459912Y5520371D02*
D03*
X3152331Y4765371D02*
D03*
X3157331Y4362872D02*
D03*
X2114912Y4290372D02*
D03*
X2214912D02*
D03*
Y4190372D02*
D03*
X2014912D02*
D03*
X2114912Y4390371D02*
D03*
X2214912D02*
D03*
X1989481Y5098851D02*
D03*
X259912Y5520371D02*
D03*
X889912Y4509972D02*
D03*
X1037712Y4505371D02*
D03*
D96*
X3387447Y2352796D02*
D03*
X2456848Y5055371D02*
D03*
X4480550Y5565119D02*
D03*
X2417117Y1839490D02*
D03*
X2917301Y1797917D02*
D03*
X2132764Y1255579D02*
D03*
X2062412Y1134083D02*
D03*
X3276359Y1098148D02*
D03*
X2601283Y677901D02*
D03*
X2711973Y672576D02*
D03*
X2788814D02*
D03*
X2656283Y618131D02*
D03*
X2420000Y440000D02*
D03*
X2550853Y728206D02*
D03*
X2396297Y754907D02*
D03*
X2456283Y693185D02*
D03*
X2503405Y753639D02*
D03*
X3192161Y1003335D02*
D03*
X3276359Y1013032D02*
D03*
X2356137Y1754558D02*
D03*
X2516347Y1832864D02*
D03*
X2586037Y1778649D02*
D03*
X2716109Y1774490D02*
D03*
X2776283Y1816988D02*
D03*
X3216840Y1242619D02*
D03*
X817212Y1255579D02*
D03*
X2697964Y4144280D02*
D03*
X2618313Y4211593D02*
D03*
X2639912Y4845372D02*
D03*
X2931283Y976139D02*
D03*
X2821283D02*
D03*
X2711283D02*
D03*
X2601283D02*
D03*
X2491283D02*
D03*
X2381283D02*
D03*
X2931283Y1086139D02*
D03*
X2821283D02*
D03*
X2711283D02*
D03*
X2601283D02*
D03*
X2491283D02*
D03*
X2381283D02*
D03*
X2931283Y1196139D02*
D03*
X2821283D02*
D03*
X2711283D02*
D03*
X2601283D02*
D03*
X2491283D02*
D03*
X2381283D02*
D03*
X2931283Y1306139D02*
D03*
X2821283D02*
D03*
X2711283D02*
D03*
X2601283D02*
D03*
X2491283D02*
D03*
X2381283D02*
D03*
X2931283Y1416139D02*
D03*
X2821283D02*
D03*
X2711283D02*
D03*
X2601283D02*
D03*
X2491283D02*
D03*
X2381283D02*
D03*
X2931283Y1526139D02*
D03*
X2821283D02*
D03*
X2711283D02*
D03*
X2601283D02*
D03*
X2491283D02*
D03*
X2381283D02*
D03*
X2132764Y1370979D02*
D03*
X3148783Y1405171D02*
D03*
X4559194Y4946931D02*
D03*
X8690812Y3422440D02*
D03*
X9310000Y3050000D02*
D03*
X3973156Y320901D02*
D03*
X3199847Y287386D02*
D03*
X687412Y-93636D02*
D03*
X2746870Y-391942D02*
D03*
X2745542Y-457328D02*
D03*
X2778598Y-513759D02*
D03*
X2778598Y-701560D02*
D03*
X2906709Y-707511D02*
D03*
X2929767Y-646311D02*
D03*
Y-580911D02*
D03*
X2906709Y-519711D02*
D03*
X2938936Y-462803D02*
D03*
X2939528Y-397405D02*
D03*
X2900369Y-345025D02*
D03*
X2792228Y253653D02*
D03*
Y188253D02*
D03*
Y122853D02*
D03*
Y57453D02*
D03*
X2777663Y-6305D02*
D03*
X2939769Y-291402D02*
D03*
X2934311Y-226230D02*
D03*
X2914880Y-163783D02*
D03*
X2924767Y-99135D02*
D03*
X2920398Y-33881D02*
D03*
X2920338Y31519D02*
D03*
Y96919D02*
D03*
Y162319D02*
D03*
Y227719D02*
D03*
Y293119D02*
D03*
X3491264Y3696221D02*
D03*
X3596173Y298036D02*
D03*
X1731712Y4619031D02*
D03*
X2041481Y4626405D02*
D03*
X1901481Y4617319D02*
D03*
X1804912Y4538371D02*
D03*
X2191481Y4613451D02*
D03*
X2434896Y5770000D02*
D03*
X1680000Y4500371D02*
D03*
X1690000Y2745000D02*
D03*
X2331481Y2466250D02*
D03*
X2014591Y3197857D02*
D03*
X1839555Y2809982D02*
D03*
X1400000Y2148717D02*
D03*
X1475570Y3005000D02*
D03*
X1690000Y3100371D02*
D03*
X1616557Y3000000D02*
D03*
X2193783Y1531139D02*
D03*
Y1411139D02*
D03*
X2101781Y2110000D02*
D03*
X2116481Y2943910D02*
D03*
X2193783Y1331139D02*
D03*
X946237Y1056139D02*
D03*
X2193783Y1171299D02*
D03*
X1320000Y2690000D02*
D03*
X1840000Y2450000D02*
D03*
X2576283Y2442421D02*
D03*
X1520000Y2450000D02*
D03*
X1680000D02*
D03*
X2270110Y3060000D02*
D03*
X2481727Y2802500D02*
D03*
X2780813Y3285413D02*
D03*
X2696283Y2455000D02*
D03*
X2821283D02*
D03*
X9101240Y4965641D02*
D03*
X9085000Y3710000D02*
D03*
X6795000Y4945000D02*
D03*
X6774938Y3730503D02*
D03*
X6394091Y3412088D02*
D03*
X4613600Y4700372D02*
D03*
X4730000Y2520000D02*
D03*
X4770000Y3720000D02*
D03*
X2494912Y4090372D02*
D03*
X2734912Y3526289D02*
D03*
X2419843Y4632341D02*
D03*
X2462477Y4340372D02*
D03*
X2634912Y4632341D02*
D03*
X1242263Y4505371D02*
D03*
Y4131589D02*
D03*
X2297981Y4613451D02*
D03*
D97*
X4414912Y4778371D02*
D03*
Y4858371D02*
D03*
X4344912D02*
D03*
Y4778371D02*
D03*
D98*
X302747Y-499994D02*
D03*
X300000Y6000000D02*
D03*
X10000000D02*
D03*
Y-500000D02*
D03*
%TF.MD5,dbd47a4cdde16990840f95fd4304014d*%
M02*
